<svg width="827" height="683" viewBox="0 0 827 683" fill="none" xmlns="http://www.w3.org/2000/svg">
<ellipse cx="304.5" cy="20.5" rx="304.5" ry="20.5" transform="matrix(-1 0 0 1 691.76 638)" fill="#D1D1D1"/>
<path d="M383.99 551.55V550.55C381.99 550.55 379.99 550.55 377.99 550.47V551.47C379.97 551.52 381.99 551.55 383.99 551.55ZM389.99 551.49C391.99 551.49 393.99 551.37 395.99 551.28L395.94 550.28C393.94 550.37 391.94 550.44 389.94 550.49L389.99 551.49ZM371.99 551.25L372.04 550.25C370.04 550.15 368.04 550.03 366.04 549.88L365.96 550.88C367.94 551 369.96 551.15 371.97 551.25H371.99ZM401.99 550.93C403.99 550.78 405.99 550.62 407.99 550.43L407.89 549.43C405.89 549.62 403.89 549.79 401.89 549.93L401.99 550.93ZM359.99 550.37L360.09 549.37C358.09 549.17 356.09 548.95 354.14 548.71L354.02 549.71C355.97 550 357.98 550.17 359.98 550.37H359.99ZM413.99 549.79C415.99 549.55 417.99 549.28 419.99 549L419.85 548C417.9 548.28 415.9 548.55 413.91 548.78L413.99 549.79ZM348.07 548.91L348.22 547.91C346.22 547.63 344.27 547.31 342.31 546.97L342.14 547.97C344.09 548.3 346.09 548.62 348.05 548.91H348.07ZM425.89 548.07C427.89 547.74 429.84 547.37 431.8 546.99L431.61 545.99C429.61 546.37 427.67 546.73 425.72 547.06L425.89 548.07ZM336.23 546.86L336.42 545.86C334.42 545.48 332.48 545.06 330.56 544.63L330.34 545.63C332.25 546.06 334.23 546.47 336.21 546.86H336.23ZM437.69 545.77C439.64 545.34 441.61 544.88 443.54 544.41L443.3 543.41C441.38 543.88 439.42 544.34 437.47 544.76L437.69 545.77ZM324.49 544.25L324.74 543.25C322.8 542.76 320.85 542.25 318.95 541.73L318.68 542.73C320.58 543.25 322.53 543.76 324.47 544.25H324.49ZM449.34 542.9C451.27 542.37 453.22 541.82 455.12 541.25L454.84 540.25C452.94 540.82 451 541.37 449.08 541.89L449.34 542.9ZM312.88 541.06L313.17 540.06C311.28 539.49 309.36 538.88 307.46 538.26L307.15 539.26C309.05 539.88 310.98 540.49 312.88 541.06ZM460.88 539.46C462.78 538.84 464.7 538.19 466.59 537.52L466.26 536.57C464.37 537.24 462.46 537.89 460.57 538.51L460.88 539.46ZM301.49 537.3L301.82 536.36C299.97 535.7 298.08 535 296.21 534.28L295.85 535.22C297.71 535.94 299.6 536.64 301.47 537.3H301.49ZM472.25 535.44C474.13 534.73 476.01 533.98 477.86 533.22L477.48 532.3C475.64 533.05 473.76 533.79 471.9 534.51L472.25 535.44ZM290.25 532.99L290.63 532.07C288.8 531.31 286.96 530.53 285.15 529.73L284.74 530.64C286.55 531.44 288.4 532.24 290.24 533L290.25 532.99ZM483.4 530.87C485.23 530.07 487.07 529.23 488.89 528.38L488.46 527.48C486.66 528.32 484.82 529.16 483 529.95L483.4 530.87ZM279.29 528.16L279.72 527.25C277.91 526.4 276.1 525.52 274.35 524.64L273.9 525.54C275.65 526.42 277.46 527.3 279.28 528.16H279.29ZM494.29 525.76C496.07 524.88 497.87 523.95 499.65 523.01L499.18 522.12C497.41 523.06 495.62 523.99 493.85 524.87L494.29 525.76ZM268.55 522.76L269.02 521.88C267.27 520.94 265.5 519.98 263.78 519.01L263.29 519.88C265.03 520.88 266.76 521.85 268.56 522.79L268.55 522.76ZM504.94 520.1C506.7 519.1 508.46 518.1 510.15 517.1L509.64 516.24C507.95 517.24 506.21 518.24 504.45 519.24L504.94 520.1ZM258.1 516.87L258.61 516.01C256.88 515.01 255.17 513.93 253.52 512.89L252.99 513.74C254.65 514.81 256.38 515.87 258.11 516.9L258.1 516.87ZM515.3 514C517.01 512.93 518.71 511.84 520.36 510.74L519.81 509.91C518.17 511 516.47 512.09 514.81 513.16L515.3 514ZM247.96 510.53L248.51 509.7C246.84 508.59 245.18 507.46 243.57 506.33L243 507.15C244.61 508.26 246.28 509.4 247.96 510.51V510.53ZM525.34 507.36C526.99 506.22 528.63 505.04 530.23 503.86L529.64 503.06C528.05 504.23 526.41 505.4 524.77 506.54L525.34 507.36ZM238.12 503.65L238.71 502.85C237.11 501.67 235.5 500.45 233.94 499.25L233.33 500.04C234.9 501.23 236.51 502.45 238.12 503.63V503.65ZM535.04 500.25C536.64 499.02 538.22 497.76 539.76 496.51L539.13 495.74C537.6 496.98 536.02 498.23 534.43 499.45L535.04 500.25ZM228.62 496.25L229.26 495.48C227.7 494.21 226.15 492.92 224.66 491.65L224.01 492.41C225.51 493.72 227.06 495 228.62 496.28V496.25ZM544.38 492.62C545.91 491.31 547.44 489.98 548.91 488.62L548.24 487.88C546.78 489.19 545.24 490.52 543.73 491.82L544.38 492.62ZM219.49 488.45L220.16 487.71C218.67 486.37 217.16 485 215.75 483.65L215.07 484.38C216.5 485.77 217.99 487.13 219.49 488.48V488.45ZM553.34 484.6C554.8 483.23 556.26 481.83 557.67 480.43L556.97 479.72C555.56 481.11 554.11 482.51 552.66 483.87L553.34 484.6ZM210.76 480.24L211.47 479.53C210.05 478.13 208.63 476.69 207.26 475.27L206.54 475.96C207.9 477.39 209.32 478.83 210.76 480.24ZM561.92 476.19C563.31 474.75 564.7 473.28 566.04 471.82L565.31 471.14C563.97 472.6 562.59 474.06 561.2 475.5L561.92 476.19ZM202.42 471.58L203.16 470.91C201.8 469.43 200.46 467.91 199.16 466.45L198.41 467.11C199.69 468.59 201.04 470.1 202.4 471.58H202.42ZM570.06 467.35C571.38 465.85 572.69 464.35 573.96 462.79L573.2 462.14C571.93 463.67 570.62 465.2 569.31 466.69L570.06 467.35ZM194.5 462.53L195.27 461.89C194 460.36 192.73 458.79 191.5 457.24L190.71 457.87C191.93 459.42 193.2 461 194.48 462.53H194.5ZM577.76 458.13C578.99 456.58 580.23 454.98 581.44 453.38L580.64 452.78C579.44 454.37 578.2 455.96 576.97 457.51L577.76 458.13ZM187.03 453.13L187.83 452.52C186.63 450.93 185.44 449.3 184.29 447.7L183.47 448.28C184.61 449.87 185.76 451.5 187.01 453.11L187.03 453.13ZM585.03 448.57C586.19 446.95 587.35 445.3 588.47 443.65L587.64 443.09C586.53 444.73 585.37 446.37 584.21 447.99L585.03 448.57ZM180.03 443.35L180.86 442.78C179.74 441.14 178.63 439.46 177.55 437.78L176.71 438.33C177.76 440 178.89 441.68 180.01 443.33L180.03 443.35ZM591.76 438.64C592.85 436.96 593.93 435.25 594.96 433.56L594.11 433.04C593.11 434.72 592.01 436.42 590.92 438.04L591.76 438.64ZM173.5 433.21L174.36 432.69C173.36 430.99 172.29 429.26 171.29 427.53L170.43 428.03C171.41 429.77 172.44 431.51 173.48 433.21H173.5ZM598.04 428.41C599.04 426.68 600.04 424.92 600.98 423.19L600.11 422.7C599.11 424.43 598.17 426.18 597.17 427.91L598.04 428.41ZM167.48 422.78L168.36 422.3C167.36 420.58 166.46 418.79 165.54 417.01L164.66 417.46C165.56 419.26 166.51 421.05 167.46 422.78H167.48ZM603.76 417.89C604.68 416.12 605.58 414.32 606.45 412.54L605.55 412.1C604.69 413.87 603.79 415.67 602.87 417.44L603.76 417.89ZM161.93 412.07L162.83 411.64C161.95 409.82 161.09 407.99 160.28 406.2L159.37 406.62C160.2 408.41 161.06 410.25 161.95 412.07H161.93ZM609.01 407.12C609.83 405.3 610.65 403.46 611.43 401.64L610.51 401.24C609.73 403.06 608.92 404.89 608.1 406.7L609.01 407.12ZM156.94 401.12L157.86 400.73C157.08 398.89 156.31 397.02 155.58 395.18L154.65 395.54C155.41 397.37 156.18 399.25 156.96 401.1L156.94 401.12ZM613.76 396.1C614.5 394.25 615.22 392.36 615.91 390.49L614.98 390.14C614.29 392 613.56 393.88 612.83 395.73L613.76 396.1ZM152.54 389.89L153.48 389.55C152.79 387.67 152.12 385.76 151.48 383.88L150.48 384.2C151.15 386.09 151.83 388 152.52 389.89H152.54ZM617.94 384.83C618.58 382.94 619.22 381.02 619.82 379.12L618.82 378.82C618.23 380.71 617.6 382.62 616.95 384.51L617.94 384.83ZM148.66 378.47L149.66 378.17C149.07 376.27 148.49 374.34 147.95 372.44L146.95 372.71C147.46 374.62 148.04 376.56 148.64 378.47H148.66ZM621.56 373.37C622.11 371.44 622.65 369.49 623.16 367.57L622.16 367.32C621.66 369.23 621.16 371.17 620.57 373.09L621.56 373.37ZM145.35 366.91L146.35 366.66C145.85 364.73 145.35 362.77 144.91 360.85L143.91 361.08C144.34 363 144.83 365 145.33 366.91H145.35ZM624.61 361.74C625.07 359.8 625.52 357.83 625.93 355.88L624.93 355.67C624.52 357.61 624.08 359.58 623.62 361.51L624.61 361.74ZM142.61 355.21L143.61 355C143.21 353.05 142.82 351.08 142.47 349.13L141.47 349.31C141.76 351.26 142.19 353.25 142.59 355.21H142.61ZM627.08 350C627.44 348 627.78 346 628.08 344.08L627.08 343.92C626.77 345.92 626.42 347.92 626.08 349.82L627.08 350ZM140.43 343.4L141.43 343.25C141.12 341.25 140.83 339.31 140.57 337.32L139.57 337.45C139.83 339.43 140.12 341.43 140.43 343.38V343.4ZM628.98 338.13C629.25 336.13 629.5 334.13 629.72 332.13L628.72 332.02C628.5 334.02 628.26 336.02 627.99 337.96L628.98 338.13ZM138.85 331.49L139.85 331.38C139.64 329.38 139.45 327.38 139.28 325.38L138.28 325.46C138.44 327.49 138.64 329.5 138.85 331.47V331.49ZM630.3 326.18C630.48 324.18 630.63 322.18 630.75 320.18L629.75 320.12C629.63 322.12 629.48 324.12 629.31 326.12L630.3 326.18ZM137.85 319.51L138.85 319.45C138.73 317.45 138.64 315.45 138.57 313.45H137.57C137.64 315.47 137.76 317.49 137.85 319.49V319.51ZM631.05 314.19C631.13 312.19 631.18 310.19 631.21 308.19H630.21C630.21 310.19 630.13 312.19 630.05 314.19H631.05ZM137.43 307.5H138.43C138.43 306.56 138.43 305.62 138.43 304.68C138.43 303.74 138.43 302.57 138.43 301.52H137.43C137.43 302.58 137.43 303.64 137.43 304.7C137.43 305.76 137.42 306.53 137.43 307.48V307.5ZM630.22 302.19H631.22C631.22 300.19 631.15 298.19 631.09 296.19H630.09C630.16 298.16 630.2 300.17 630.22 302.17V302.19ZM138.58 295.52C138.65 293.52 138.75 291.52 138.87 289.52L137.87 289.46C137.75 291.46 137.65 293.46 137.58 295.46L138.58 295.52ZM629.76 290.2L630.76 290.14C630.65 288.14 630.51 286.14 630.34 284.14L629.34 284.22C629.56 286.2 629.7 288.21 629.76 290.2ZM139.25 283.55C139.42 281.55 139.62 279.55 139.83 277.55L138.83 277.44C138.61 279.44 138.42 281.44 138.24 283.44L139.25 283.55ZM628.78 278.27L629.78 278.16C629.57 276.16 629.33 274.16 629.07 272.16L628.07 272.29C628.39 274.3 628.62 276.3 628.83 278.27H628.78ZM140.55 271.65C140.82 269.65 141.11 267.65 141.42 265.73L140.42 265.57C140.11 267.57 139.82 269.57 139.55 271.52L140.55 271.65ZM627.27 266.4L628.27 266.25C627.96 264.25 627.63 262.25 627.27 260.32L626.27 260.5C626.63 262.45 626.97 264.43 627.27 266.4ZM142.48 259.83C142.85 257.83 143.24 255.88 143.64 253.95L142.64 253.75C142.24 255.68 141.85 257.67 141.48 259.64L142.48 259.83ZM625.14 254.62L626.14 254.42C625.74 252.47 625.3 250.49 624.85 248.55L623.85 248.77C624.31 250.71 624.76 252.68 625.14 254.62ZM144.94 248.11C145.4 246.11 145.88 244.2 146.38 242.3L145.38 242.04C144.88 243.96 144.38 245.92 143.94 247.88L144.94 248.11ZM622.43 243L623.43 242.75C622.93 240.83 622.43 238.87 621.85 236.95L620.85 237.22C621.41 239.1 621.94 241 622.43 243ZM147.97 236.57C148.52 234.64 149.1 232.71 149.69 230.83L148.74 230.53C148.15 232.41 147.56 234.35 147.01 236.29L147.97 236.57ZM619.15 231.48L620.15 231.19C619.55 229.27 618.92 227.34 618.28 225.45L617.34 225.77C617.93 227.61 618.56 229.54 619.15 231.44V231.48ZM151.56 225.1C152.2 223.23 152.87 221.33 153.56 219.46L152.62 219.12C151.93 221 151.25 222.9 150.62 224.78L151.56 225.1ZM615.3 220.1L616.24 219.76C615.55 217.87 614.82 215.97 614.09 214.12L613.16 214.49C613.89 216.29 614.61 218.18 615.3 220.06V220.1ZM155.7 213.91C156.43 212.08 157.2 210.22 157.97 208.4L157.05 208.01C156.27 209.84 155.51 211.7 154.77 213.54L155.7 213.91ZM610.89 208.91L611.81 208.52C611.03 206.67 610.22 204.81 609.4 203L608.49 203.41C609.3 205.2 610.11 207.05 610.89 208.89V208.91ZM160.38 202.91C161.2 201.1 162.05 199.29 162.92 197.51L162.02 197.07C161.15 198.86 160.29 200.68 159.47 202.49L160.38 202.91ZM605.95 198L606.85 197.56C605.98 195.76 605.08 193.95 604.16 192.17L603.28 192.63C604.18 194.36 605.08 196.17 605.95 198ZM165.59 192.2C166.49 190.44 167.43 188.67 168.39 186.92L167.51 186.44C166.51 188.2 165.6 189.98 164.7 191.74L165.59 192.2ZM600.47 187.32L601.35 186.84C600.35 185.09 599.41 183.32 598.41 181.59L597.54 182.09C598.54 183.78 599.52 185.54 600.47 187.28V187.32ZM171.31 181.72C172.31 180.01 173.31 178.28 174.37 176.58L173.51 176.06C172.51 177.77 171.44 179.5 170.45 181.21L171.31 181.72ZM594.49 176.93L595.34 176.41C594.34 174.7 593.22 172.99 592.15 171.31L591.3 171.85C592.38 173.48 593.45 175.19 594.49 176.89V176.93ZM177.55 171.52C178.63 169.84 179.74 168.17 180.85 166.52L180.02 165.96C178.91 167.59 177.8 169.27 176.71 170.96L177.55 171.52ZM588 166.85L588.83 166.29C587.71 164.63 586.55 162.97 585.39 161.35L584.58 161.93C585.76 163.51 586.89 165.16 588 166.81V166.85ZM184.27 161.64C185.43 160.02 186.62 158.4 187.81 156.82L187.01 156.22C185.82 157.81 184.62 159.43 183.46 161.05L184.27 161.64ZM581.04 157.09L581.84 156.49C580.64 154.91 579.41 153.3 578.16 151.73L577.38 152.35C578.62 153.88 579.85 155.47 581.04 157.05V157.09ZM191.47 152.09C192.7 150.53 193.97 148.97 195.24 147.44L194.47 146.8C193.2 148.33 191.92 149.9 190.68 151.47L191.47 152.09ZM573.61 147.7L574.38 147.06C573.1 145.52 571.79 143.98 570.48 142.48L569.73 143.13C571.03 144.59 572.34 146.13 573.61 147.66V147.7ZM199.12 142.89C200.43 141.4 201.77 139.89 203.12 138.44L202.38 137.76C201.03 139.23 199.68 140.76 198.38 142.23L199.12 142.89ZM565.76 138.63L566.5 137.95C565.15 136.48 563.77 135.01 562.38 133.57L561.66 134.26C563.02 135.69 564.4 137.16 565.76 138.63ZM207.22 134C208.6 132.56 210.02 131.13 211.42 129.74L210.72 129.03C209.31 130.42 207.89 131.86 206.5 133.3L207.22 134ZM557.44 130L558.15 129.29C556.73 127.88 555.27 126.47 553.83 125.11L553.14 125.83C554.58 127.2 556.03 128.6 557.44 130ZM215.76 125.62C217.19 124.27 218.68 122.9 220.17 121.57L219.5 120.82C218 122.16 216.5 123.53 215.07 124.89L215.76 125.62ZM548.76 121.78L549.43 121.04C547.95 119.71 546.43 118.37 544.92 117.04L544.27 117.8C545.76 119.13 547.27 120.46 548.76 121.78ZM224.66 117.62C226.18 116.32 227.73 115.03 229.26 113.78L228.63 113.01C227.09 114.26 225.53 115.56 224.01 116.86L224.66 117.62ZM539.66 114L540.29 113.23C538.75 111.97 537.17 110.71 535.59 109.49L534.98 110.28C536.55 111.49 538.12 112.74 539.66 114ZM233.93 110.07C235.5 108.86 237.11 107.64 238.71 106.46L238.12 105.66C236.51 106.84 234.89 108.06 233.32 109.28L233.93 110.07ZM530.21 106.67L530.8 105.86C529.2 104.68 527.56 103.5 525.93 102.36L525.36 103.18C526.98 104.31 528.61 105.48 530.21 106.66V106.67ZM243.58 103C245.22 101.86 246.89 100.72 248.58 99.62L248.02 98.79C246.37 99.89 244.69 101.03 243.02 102.18L243.58 103ZM520.42 99.8L520.97 98.96C519.31 97.86 517.62 96.76 515.97 95.7L515.44 96.54C517.08 97.6 518.76 98.69 520.42 99.8ZM253.57 96.33C255.26 95.27 256.98 94.22 258.69 93.2L258.17 92.34C256.46 93.34 254.73 94.42 253.04 95.48L253.57 96.33ZM510.32 93.42L510.83 92.56C509.12 91.56 507.37 90.56 505.64 89.56L505.15 90.43C506.88 91.39 508.61 92.4 510.32 93.42ZM263.87 90.2C265.61 89.2 267.38 88.2 269.14 87.32L268.67 86.44C266.91 87.37 265.13 88.34 263.38 89.33L263.87 90.2ZM499.87 87.54L500.34 86.66C498.58 85.72 496.79 84.79 495.01 83.9L494.56 84.79C496.38 85.68 498.17 86.6 499.92 87.54H499.87ZM274.42 84.54C276.2 83.65 278.01 82.77 279.82 81.92L279.39 81.02C277.58 81.87 275.76 82.75 273.97 83.64L274.42 84.54ZM489.25 82.18L489.68 81.27C487.87 80.42 486.04 79.58 484.23 78.78L483.82 79.69C485.63 80.49 487.45 81.33 489.25 82.18ZM285.33 79.47C287.17 78.66 289.03 77.86 290.85 77.12L290.47 76.19C288.64 76.94 286.78 77.74 284.93 78.55L285.33 79.47ZM478.33 77.34L478.71 76.42C476.86 75.65 474.98 74.9 473.13 74.19L472.77 75.12C474.62 75.83 476.49 76.58 478.34 77.34H478.33ZM296.43 74.9C298.31 74.18 300.21 73.48 302.07 72.82L301.74 71.88C299.86 72.54 297.96 73.25 296.08 73.97L296.43 74.9ZM467.17 73L467.51 72C465.63 71.33 463.72 70.68 461.82 70L461.51 71C463.4 71.71 465.3 72.37 467.17 73ZM307.76 70.88C309.67 70.26 311.6 69.66 313.5 69.08L313.21 68.08C311.3 68.65 309.36 69.26 307.45 69.88L307.76 70.88ZM455.76 69.28L456.05 68.28C454.13 67.7 452.19 67.14 450.28 66.61L450.01 67.61C451.96 68.14 453.89 68.7 455.76 69.28ZM319.2 67.43C321.13 66.91 323.07 66.43 325 65.92L324.76 64.92C322.83 65.4 320.87 65.92 318.94 66.44L319.2 67.43ZM444.2 66.09L444.45 65.09C442.51 64.6 440.54 64.09 438.6 63.7L438.38 64.7C440.38 65.14 442.34 65.6 444.26 66.09H444.2ZM330.8 64.56C332.74 64.13 334.71 63.72 336.66 63.33L336.47 62.33C334.47 62.72 332.53 63.13 330.59 63.56L330.8 64.56ZM432.52 63.46L432.72 62.46C430.77 62.08 428.78 61.7 426.81 61.36L426.64 62.36C428.66 62.71 430.64 63.08 432.58 63.46H432.52ZM342.52 62.25C344.52 61.92 346.47 61.6 348.43 61.32L348.29 60.32C346.29 60.6 344.29 60.92 342.35 61.26L342.52 62.25ZM420.76 61.41L420.9 60.41C418.9 60.11 416.9 59.84 414.95 59.59L414.82 60.59C416.83 60.85 418.82 61.12 420.76 61.41ZM354.43 60.52C356.43 60.29 358.43 60.07 360.38 59.88L360.28 58.88C358.28 59.07 356.28 59.29 354.28 59.53L354.43 60.52ZM408.88 59.94L408.97 58.94C406.97 58.74 404.97 58.57 402.97 58.42L402.89 59.42C404.93 59.57 406.93 59.75 408.91 59.94H408.88ZM366.34 59.37C368.34 59.23 370.34 59.11 372.34 59.02V58.02C370.34 58.11 368.34 58.23 366.34 58.38V59.37ZM396.94 59.05L396.99 58.05C394.99 57.95 392.99 57.87 390.99 57.82V58.82C392.97 58.87 394.99 59 396.97 59.05H396.94ZM378.3 58.8C380.3 58.8 382.3 58.73 384.3 58.73H384.98V57.73H384.3C382.3 57.73 380.3 57.73 378.3 57.8V58.8Z" fill="#2F2E41"/>
<path d="M184.5 452.3C184.911 452.299 185.318 452.216 185.697 452.058C186.076 451.899 186.421 451.668 186.71 451.376C187 451.085 187.23 450.739 187.386 450.359C187.542 449.978 187.621 449.571 187.62 449.16C187.614 448.651 187.487 448.151 187.25 447.7L177.04 428.61C176.624 427.928 175.962 427.43 175.19 427.221C174.419 427.011 173.596 427.104 172.891 427.481C172.186 427.859 171.653 428.492 171.4 429.25C171.146 430.008 171.193 430.835 171.53 431.56L181.76 450.65C182.025 451.147 182.419 451.564 182.902 451.854C183.384 452.145 183.937 452.299 184.5 452.3Z" fill="#2F2E41"/>
<path d="M144.99 452.3C145.557 452.302 146.113 452.149 146.599 451.858C147.085 451.567 147.483 451.15 147.75 450.65L157.96 431.56C158.36 430.853 158.469 430.019 158.265 429.233C158.061 428.447 157.559 427.772 156.866 427.349C156.173 426.926 155.343 426.788 154.551 426.966C153.758 427.143 153.066 427.622 152.62 428.3C152.558 428.4 152.501 428.504 152.45 428.61L142.24 447.7C141.987 448.176 141.861 448.709 141.874 449.248C141.888 449.787 142.04 450.314 142.317 450.776C142.594 451.239 142.985 451.622 143.453 451.889C143.922 452.156 144.451 452.298 144.99 452.3Z" fill="#2F2E41"/>
<path d="M164.75 439.41C149.308 439.41 136.79 426.892 136.79 411.45C136.79 396.008 149.308 383.49 164.75 383.49C180.192 383.49 192.71 396.008 192.71 411.45C192.71 426.892 180.192 439.41 164.75 439.41Z" fill="#008BFF"/>
<path d="M164.75 435.41C151.517 435.41 140.79 424.683 140.79 411.45C140.79 398.218 151.517 387.49 164.75 387.49C177.983 387.49 188.71 398.218 188.71 411.45C188.71 424.683 177.983 435.41 164.75 435.41Z" fill="#008BFF"/>
<path d="M160.159 421.36L164.909 411.85C165.069 411.76 165.069 411.54 165.069 411.45V410.2C164.989 406.95 164.789 398.54 164.679 393.69H164.039C164.039 393.69 164.139 398.15 164.249 402.62C164.249 404.85 164.359 407.09 164.399 408.76C164.362 409.621 164.393 410.484 164.489 411.34L159.639 421.05L160.159 421.36Z" fill="#2F2E41"/>
<path d="M148.96 382.16C149.487 378.463 151.33 375.08 154.15 372.632C156.971 370.185 160.58 368.837 164.315 368.837C168.05 368.837 171.659 370.185 174.479 372.632C177.3 375.08 179.143 378.463 179.67 382.16H148.96Z" fill="#008BFF"/>
<path d="M164.749 413.23C163.766 413.23 162.969 412.433 162.969 411.45C162.969 410.467 163.766 409.67 164.749 409.67C165.732 409.67 166.529 410.467 166.529 411.45C166.529 412.433 165.732 413.23 164.749 413.23Z" fill="#2F2E41"/>
<path d="M116.329 270.47C116.327 274.516 117.122 278.524 118.668 282.263C120.215 286.002 122.483 289.4 125.344 292.262C128.204 295.124 131.6 297.394 135.338 298.943C139.076 300.493 143.083 301.29 147.129 301.29C148.853 301.298 150.573 301.151 152.269 300.85C158.061 299.87 163.452 297.255 167.806 293.313C172.161 289.371 175.298 284.266 176.848 278.601C178.397 272.935 178.295 266.944 176.553 261.335C174.812 255.725 171.502 250.73 167.016 246.939C162.53 243.148 157.053 240.718 151.231 239.936C145.41 239.154 139.486 240.052 134.158 242.525C128.83 244.998 124.32 248.943 121.16 253.894C117.999 258.845 116.32 264.596 116.319 270.47H116.329Z" fill="#008BFF"/>
<path d="M152.23 301.17L152.34 300.54C145.219 299.368 138.748 295.698 134.088 290.187C129.428 284.677 126.883 277.687 126.91 270.47C126.91 256.27 136.91 243.12 150.22 239.88L150.07 239.26C136.51 242.56 126.27 255.98 126.27 270.47C126.243 277.837 128.841 284.973 133.598 290.599C138.355 296.224 144.96 299.972 152.23 301.17Z" fill="#2F2E41"/>
<path d="M129.64 269.91C136.09 269.91 143.22 265.8 149.14 258.57C155.85 250.37 163.65 248.62 169.02 248.57V248C163.51 248 155.51 249.82 148.64 258.22C142.28 265.99 134.19 270.22 127.52 269.16C123.09 268.48 119.62 265.52 117.74 260.82L117.15 261.05C119.15 265.97 122.769 269.05 127.419 269.79C128.155 269.89 128.898 269.93 129.64 269.91Z" fill="#2F2E41"/>
<path d="M143.26 281C147.024 280.967 150.78 280.633 154.49 280C162.557 278.628 170.433 276.302 177.95 273.07L177.69 272.49C177.27 272.68 135.81 291.33 116.56 270.21L116.09 270.64C122.31 277.51 131.59 281 143.26 281Z" fill="#2F2E41"/>
<path d="M161.87 295C163.281 295 164.69 294.91 166.09 294.73L166.01 294.1C160.673 294.813 155.243 294.088 150.28 292C138.51 286.85 130.58 285.59 126.7 288.25C126.055 288.626 125.495 289.133 125.056 289.737C124.617 290.341 124.309 291.03 124.15 291.76L124.78 291.86C124.926 291.217 125.204 290.611 125.597 290.081C125.989 289.551 126.487 289.108 127.06 288.78C130.74 286.25 138.47 287.53 150.06 292.58C153.789 294.188 157.809 295.012 161.87 295Z" fill="#2F2E41"/>
<path d="M176.429 148.31C176.429 162.03 187.649 176.59 198.429 176.59C201.059 176.59 207.909 176.59 210.349 175.66C223.679 170.52 228.819 157.76 228.819 146.66C228.819 140.89 227.099 134.66 222.539 130.78C216.539 125.69 209.819 128.89 202.799 128.89C196.699 128.89 188.129 126.39 183.469 129.83C177.569 134.18 176.429 141.49 176.429 148.31Z" fill="#008BFF"/>
<path opacity="0.2" d="M183.63 139.09C184.52 140.63 187.19 140.74 189.63 139.35C192.07 137.96 193.27 135.59 192.39 134.06C191.51 132.53 188.83 132.41 186.39 133.8C183.95 135.19 182.76 137.56 183.63 139.09Z" fill="black"/>
<path d="M204.189 131.02L203.729 129.93L197.189 114.69L201.529 114.02L205.859 129.35L204.189 131.02Z" fill="#2F2E41"/>
<path d="M203.189 120.69C203.189 120.69 206.189 114.02 210.529 113.02C214.869 112.02 226.859 117.69 226.859 117.69C226.859 117.69 220.859 122.02 216.189 123.35C211.519 124.68 203.189 120.69 203.189 120.69Z" fill="#008BFF"/>
<path d="M368.339 103.94C369.339 98.5098 370.669 84.3398 369.499 79.0998C368.799 75.9171 368.54 72.6532 368.729 69.3998V50.3998C368.167 47.8356 368.232 45.1734 368.919 42.6398C370.079 38.5698 379.009 29.8298 379.009 29.8298V26.7298H379.579L382.029 26.6298V26.5698H383.469V26.6298L385.929 26.7298H386.499V29.8298C386.499 29.8298 395.419 38.5698 396.589 42.6398C397.27 45.1751 397.328 47.8372 396.759 50.3998V69.3998C396.95 72.6537 396.688 75.9183 395.979 79.0998C394.819 84.3398 396.179 98.5098 397.149 103.94C398.119 109.37 397.729 113.45 394.629 115C392.039 116.3 384.999 115.43 382.729 115.11C380.459 115.43 373.429 116.3 370.839 115C367.759 113.45 367.369 109.37 368.339 103.94Z" fill="#008BFF"/>
<path d="M389.97 116C391.609 116.092 393.25 115.847 394.79 115.28C397.79 113.8 398.61 110.17 397.48 103.88C396.48 98.0199 395.2 84.1899 396.32 79.1599C397.019 75.9431 397.281 72.6468 397.1 69.3599V50.3599C397.676 47.7523 397.604 45.0432 396.89 42.4699C395.76 38.6099 387.84 30.6899 386.76 29.6799V26.4099L385.9 26.3599L383.41 26.1999H382.69L381.69 26.1499V26.2399L378.69 26.3799V29.6499C377.69 30.6499 369.69 38.5799 368.61 42.4999C367.899 45.074 367.831 47.7831 368.41 50.3899V69.3899C368.219 72.6669 368.481 75.9547 369.19 79.1599C370.31 84.1599 369.07 98.0199 368.02 103.88C366.9 110.17 367.75 113.8 370.72 115.28C373.32 116.58 379.96 115.82 382.72 115.42C385.121 115.773 387.543 115.967 389.97 116ZM386.18 26.9999V29.9999L386.27 30.0899C386.36 30.1799 395.15 38.8099 396.27 42.7599C396.938 45.2386 397.003 47.8409 396.46 50.3499V69.3999C396.645 72.63 396.386 75.8702 395.69 79.0299C394.49 84.4599 395.96 99.0299 396.85 104.03C397.92 110.03 397.17 113.41 394.5 114.75C391.98 116.01 384.91 115.13 382.8 114.82H382.71C380.6 115.12 373.52 116.01 371 114.75C368.33 113.41 367.58 110 368.65 104.03C369.55 99.0299 371.02 84.4899 369.81 79.0299C369.12 75.8796 368.861 72.65 369.04 69.4299V50.2999C368.501 47.7901 368.569 45.1878 369.24 42.7099C370.36 38.7099 379.15 30.1299 379.24 30.0399L379.34 29.9499V26.9999H379.61L382.36 26.8899H383.27L383.48 26.9399L386.18 26.9999Z" fill="#2F2E41"/>
<path d="M372.12 80.1499C371.559 77.4313 371.351 74.6517 371.5 71.8799V62.6499H394.01V71.8799C394.159 74.6517 393.951 77.4313 393.39 80.1499C392.45 84.6099 393.54 96.6799 394.32 101.31C395.1 105.94 394.79 109.42 392.32 110.74C390.24 111.84 384.59 111.11 382.77 110.83C380.95 111.11 375.31 111.83 373.23 110.74C370.74 109.42 370.43 105.95 371.23 101.31C372.03 96.6699 373.05 84.6099 372.12 80.1499Z" fill="#008BFF"/>
<path d="M378.16 22.25H387.47V27.49H378.16V22.25Z" fill="#2F2E41"/>
<path d="M579.32 142.09H572.54L565.16 128.25L557.68 144.71L556.4 141.32H547.02L537.02 118.64L530.59 139.76H518.85C515.568 135.949 513.848 131.039 514.034 126.014C514.219 120.988 516.296 116.219 519.85 112.66C523.599 108.923 528.676 106.824 533.97 106.824C539.263 106.824 544.341 108.923 548.09 112.66L550.15 114.72L552.22 112.65C556.03 109.244 561 107.426 566.108 107.569C571.217 107.712 576.077 109.805 579.691 113.419C583.305 117.033 585.398 121.893 585.541 127.001C585.684 132.11 583.866 137.08 580.46 140.89L579.32 142.09Z" fill="#008BFF"/>
<path d="M533.199 143.26L537.639 128.67L544.739 144.81H553.979L557.369 153.84L565.409 136.14L570.449 145.59H575.819L550.199 171.21L522.249 143.26H533.199Z" fill="#008BFF"/>
<path d="M643.7 260.8C643.7 260.8 644.96 256.6 648.7 255.8C652.44 255 660.45 256.22 661.7 251.61C662.95 247 657.08 248.25 658.34 244.47C659.6 240.69 668.84 240.69 670.94 233.55C673.04 226.41 670.1 218.86 664.64 221.38C659.18 223.9 656.64 234.38 654.56 238.59C652.48 242.8 652.88 234.39 647.01 233.59C641.14 232.79 635.25 237.37 639.01 243.25C642.77 249.13 642.64 253.7 641.95 256.68C641.47 258.77 641.35 258.61 641.35 258.61L643.7 260.8Z" fill="#008BFF"/>
<path d="M664.96 232.36C667.18 228.7 667.44 226.73 667.45 226.65L666.82 226.57C666.353 228.52 665.537 230.37 664.41 232.03L664.96 232.36Z" fill="#2F2E41"/>
<path d="M642.639 259.88C643.547 256.273 645.341 252.949 647.859 250.21C649.762 248.169 651.8 246.258 653.959 244.49C657.091 241.962 659.947 239.109 662.479 235.98C662.839 235.49 663.179 235.03 663.479 234.58L662.959 234.22C662.649 234.66 662.309 235.11 661.959 235.59C659.46 238.688 656.633 241.508 653.529 244C651.355 245.793 649.297 247.724 647.369 249.78C644.757 252.602 642.909 256.044 641.999 259.78L642.639 259.88Z" fill="#2F2E41"/>
<path d="M630.53 254C630.53 254 649.76 257.8 649.76 276C649.76 294.2 597.96 329.72 594.12 323C590.28 316.28 609.12 276.53 613.93 267.9C618.74 259.27 623.82 253 630.53 254Z" fill="#008BFF"/>
<path d="M644.12 289.35C644.12 289.35 637.4 279.27 631.12 276.35" stroke="#D1D3D4" stroke-miterlimit="10"/>
<path d="M610.53 279.27C615.231 281.234 619.509 284.086 623.13 287.67" stroke="#D1D3D4" stroke-miterlimit="10"/>
<path d="M619.76 310.34C619.76 310.34 616.82 302.78 609.69 299" stroke="#D1D3D4" stroke-miterlimit="10"/>
<path d="M621.029 270.46L625.229 272.98" stroke="#D1D3D4" stroke-miterlimit="10"/>
<path d="M603.82 296.06L606.76 296.9" stroke="#D1D3D4" stroke-miterlimit="10"/>
<path d="M610.51 441.51C593.251 441.51 579.26 427.519 579.26 410.26C579.26 393.001 593.251 379.01 610.51 379.01C627.769 379.01 641.76 393.001 641.76 410.26C641.76 427.519 627.769 441.51 610.51 441.51Z" fill="#008BFF"/>
<path opacity="0.5" d="M602.369 388.58C602.369 393.92 607.229 405.43 610.509 405.43C613.789 405.43 618.649 393.92 618.649 388.58C618.649 383.24 613.789 381.66 610.509 381.66C607.229 381.66 602.369 383.24 602.369 388.58Z" fill="#008BFF"/>
<path opacity="0.5" d="M625.22 392.37C620.59 395.04 612.57 403.84 614.22 406.68C615.87 409.52 628.74 409.14 633.37 406.47C638 403.8 636.93 398.8 635.29 395.96C633.65 393.12 629.84 389.7 625.22 392.37Z" fill="#008BFF"/>
<path opacity="0.5" d="M633.36 414.05C628.73 411.38 615.51 409.05 613.87 411.88C612.23 414.71 620.59 425.48 625.22 428.15C629.85 430.82 633.64 427.4 635.28 424.56C636.92 421.72 637.98 416.72 633.36 414.05Z" fill="#008BFF"/>
<path opacity="0.5" d="M618.649 431.94C618.649 426.6 613.789 413.58 610.509 413.58C607.229 413.58 602.369 426.58 602.369 431.94C602.369 437.3 607.229 438.86 610.509 438.86C613.789 438.86 618.649 437.28 618.649 431.94Z" fill="#008BFF"/>
<path opacity="0.5" d="M595.76 428.15C600.38 425.48 607.99 415.4 606.35 412.56C604.71 409.72 592.24 411.38 587.62 414.05C583 416.72 584.06 421.72 585.69 424.56C587.32 427.4 591.18 430.82 595.76 428.15Z" fill="#008BFF"/>
<path opacity="0.5" d="M587.67 406.47C592.29 409.14 604.76 410.31 606.4 407.47C608.04 404.63 600.4 395.04 595.81 392.37C591.22 389.7 587.38 393.12 585.74 395.96C584.1 398.8 583.04 403.8 587.67 406.47Z" fill="#008BFF"/>
<path d="M136.53 549.16C136.53 549.16 146 585.08 163.33 602.59C163.33 602.59 168.42 608.79 170.02 607.48C170.51 607.08 170.69 606 170.29 603.83C168.469 598.707 167.48 593.326 167.36 587.89C167.398 584.511 168.162 581.179 169.6 578.12C171.14 574.73 173.51 568.05 170.6 563.51L156.76 544.83C156.76 544.83 158.11 536.1 149.18 541.83C149.18 541.83 141.24 543.4 137.92 546.43C137.513 546.765 137.18 547.181 136.941 547.651C136.702 548.12 136.562 548.634 136.53 549.16Z" fill="#008BFF"/>
<path d="M131.25 552.73C138.76 579.8 156.9 603.09 161.87 609.11C162.41 609.794 163.083 610.361 163.847 610.779C164.612 611.196 165.453 611.455 166.32 611.54C170.23 611.84 170.12 607.67 170.12 607.67L170.02 607.48C168.42 608.79 163.33 602.59 163.33 602.59C146 585.08 136.53 549.16 136.53 549.16C136.565 548.631 136.71 548.114 136.956 547.644C137.203 547.174 137.544 546.761 137.96 546.43C136.111 546.782 134.355 547.51 132.8 548.57C132.138 549.014 131.632 549.654 131.354 550.4C131.076 551.147 131.04 551.962 131.25 552.73Z" fill="#2F2E41"/>
<path d="M170.59 563.51C182.37 547.7 202.76 535.06 202.76 535.06C227.76 519.54 254.76 510.34 254.76 510.34C270.27 508.34 281.51 478.46 281.51 478.46C272.96 476.88 265.97 475.2 260.3 473.56C256.19 472.38 252.78 471.2 249.97 470.11C248.97 469.74 248.07 469.37 247.2 468.99C245.71 468.35 244.43 467.75 243.34 467.21C243.03 467.06 242.74 466.91 242.45 466.74C241.7 466.35 241.06 465.98 240.52 465.65C239.98 465.32 239.62 465.09 239.21 464.82C238.746 464.51 238.299 464.176 237.87 463.82V463.91C240.78 485.64 232.05 485.66 232.05 485.66C209.63 492.55 200.44 502.33 200.44 502.33C189.76 511.81 156.76 544.85 156.76 544.85C150.18 559.2 170.59 563.51 170.59 563.51Z" fill="#F9B499"/>
<path d="M170.59 563.51C164.09 559.44 162.43 556.3 162.43 556.3C155.64 547.37 187.99 517.3 187.99 517.3C214.62 492.3 236.42 492.1 236.42 492.1C253.58 492.46 244.82 483.17 244.82 483.17C241.6 478.69 246.43 477.81 246.43 477.81C260.69 478.11 260.65 474.59 260.32 473.52C260.284 473.412 260.237 473.309 260.18 473.21C256.728 472.353 253.326 471.305 249.99 470.07C248.99 469.7 248.09 469.33 247.22 468.95C245.78 468.35 244.49 467.75 243.36 467.17C243.05 467.02 242.76 466.87 242.47 466.7C241.76 466.33 241.12 465.97 240.54 465.61C239.96 465.25 239.64 465.05 239.23 464.78C238.82 464.51 238.29 464.14 237.9 463.85C240.81 485.58 232.08 485.6 232.08 485.6C209.66 492.49 200.47 502.27 200.47 502.27C189.84 511.75 156.8 544.79 156.8 544.79C150.18 559.2 170.59 563.51 170.59 563.51Z" fill="#F7A48B"/>
<path d="M260.189 473.24C260.189 473.24 243.919 469.89 235.399 461.68C235.399 461.68 239.259 432.28 243.159 417.8C244.708 420.99 245.892 424.344 246.689 427.8L257.169 464.88L260.189 473.24Z" fill="#2F2E41"/>
<path opacity="0.2" d="M260.189 473.24C260.189 473.24 243.919 469.89 235.399 461.68C235.399 461.68 239.259 432.28 243.159 417.8C244.708 420.99 245.892 424.344 246.689 427.8L257.169 464.88L260.189 473.24Z" fill="black"/>
<path d="M325.27 390.05C325.27 390.05 324.27 426.18 325.81 446.24C326.249 450.787 327.288 455.255 328.9 459.53C330.03 462.66 330.2 467.32 323.11 469.89C323.11 469.89 275.11 484.4 263.79 479.67C263.79 479.67 260.01 474.93 257.17 464.84L246.69 427.76C245.748 424.348 244.569 421.006 243.16 417.76C240.79 412.34 237.16 401.55 240.16 392.16L243.25 377.72L269.76 362.3L325.27 390.05Z" fill="#2F2E41"/>
<path d="M353.68 284.25L341.68 288.64C341.68 288.64 337.39 287.83 334.89 302.84C334.89 302.84 330.24 376.47 325.24 390.05C325.24 390.05 249.47 376.83 240.17 392.2C240.17 392.2 238.39 383.26 243.75 365.03C243.75 365.03 250.9 292.48 248.75 257.09L226.59 268.17C226.59 268.17 218.37 254.23 206.59 257.09C204.922 256.715 203.192 256.714 201.524 257.086C199.856 257.457 198.29 258.193 196.94 259.24C196.94 259.24 199.79 250.3 211.94 241.36L246.61 210.27C246.61 210.27 253.04 202.41 271.61 202.76L289.18 199.35H308.11L324.17 221.05C324.17 221.05 340.28 222.42 345.28 248.51L353.68 284.25Z" fill="#008BFF"/>
<path opacity="0.2" d="M273.3 243.06L248.78 257.06C249.83 286.768 248.72 316.513 245.46 346.06L243.76 365C243.76 365 238.76 381.23 240.18 392.17C240.18 392.17 243.09 381.66 288.08 385.47L305.99 387.25C305.99 387.25 283.46 369.25 293.99 353.25C293.99 353.25 308.61 334.25 285.52 309.7C285.52 309.7 284.38 300.05 272.96 292.7C269.223 290.628 266.203 287.469 264.302 283.642C262.4 279.815 261.705 275.5 262.31 271.27C262.497 269.79 262.832 268.333 263.31 266.92C265.01 261.59 269.9 249 273.3 243.06Z" fill="black"/>
<path d="M294.63 566.08C294.63 566.08 285.63 566.08 286.21 574.08C286.21 574.08 298.38 636.31 313.03 647.08C313.03 647.08 319.95 652.43 319.95 642.57L294.63 566.08Z" fill="#2F2E41"/>
<path d="M321.54 614.82C324.74 609.6 330.97 597.25 322.65 591.24C322.65 591.24 312.93 587.74 311.46 571.51V561.93C311.46 561.93 293.4 564.93 293.4 567.18C293.4 567.18 288.97 602.84 317.94 643.38C318.144 643.605 318.43 643.739 318.733 643.754C319.037 643.769 319.334 643.664 319.56 643.46C319.681 643.353 319.778 643.22 319.843 643.072C319.909 642.923 319.942 642.762 319.94 642.6V620.54C319.938 618.523 320.492 616.544 321.54 614.82Z" fill="#008BFF"/>
<path d="M496.31 305.62L513.51 288.62C513.51 288.62 539.18 283.73 532.65 272.76C532.65 272.76 534.51 267.16 530.55 266.46C530.55 266.46 532.41 260.63 527.55 260.63C527.55 260.63 532.22 255.96 524.55 256.19C524.55 256.19 520.78 255.26 515.08 259.46C510.891 263.218 507.941 268.159 506.62 273.63C506.41 274.432 506.001 275.168 505.43 275.77L497.33 284.23C497.33 284.23 496.86 299.46 496.31 305.62Z" fill="#F9B499"/>
<path d="M513.51 288.64C513.51 288.64 509.08 287.72 507.68 278.15C507.162 281.339 507.038 284.58 507.31 287.8C507.4 288.606 507.318 289.422 507.07 290.194C506.822 290.966 506.413 291.677 505.87 292.28C505.072 293.17 504.198 293.99 503.26 294.73C503.092 294.859 502.9 294.953 502.695 295.008C502.491 295.063 502.277 295.077 502.068 295.049C501.858 295.021 501.655 294.952 501.472 294.846C501.289 294.74 501.128 294.598 501 294.43C500.778 294.144 500.661 293.791 500.67 293.43V280.69L497.26 284.25C497.26 284.25 497.11 295.25 496.31 305.62L513.51 288.64Z" fill="#F7A48B"/>
<path d="M530.55 278.15C530.55 278.15 519.55 284.76 515.01 280.87C515.01 280.87 508.7 275.63 520.69 265.27L530.55 278.15Z" fill="#F7A48B"/>
<path d="M424.66 168.18C420.235 169.423 416.273 171.941 413.268 175.419C410.263 178.897 408.347 183.182 407.76 187.74C407.542 189.146 407.508 190.575 407.66 191.99C408.23 197.61 408.66 216.56 388.75 219.57C388.75 219.57 410.15 224.82 425.75 215.57C431.58 212.081 435.963 206.613 438.1 200.163C440.236 193.713 439.984 186.71 437.39 180.43L437.27 180.15C433.668 175.571 429.42 171.539 424.66 168.18Z" fill="#2F2E41"/>
<path d="M481.989 192.71C481.989 192.71 465.359 207.71 486.439 229.36L482.039 227.68C482.039 227.68 468.829 226.12 446.269 200.38C446.269 200.38 445.669 199.44 441.519 197.86C441.519 197.86 447.109 196.39 449.189 188.71L445.109 175.55L451.939 161.83L481.989 192.71Z" fill="#F9B499"/>
<path d="M481.99 192.71C481.99 192.71 476.89 196.91 475.83 206.03C475.83 206.03 464.45 189.77 462.92 177.73C462.92 177.73 469.63 191.91 481.99 192.71Z" fill="#F7A48B"/>
<path d="M458.81 165.869C455.577 148.938 462.403 133.409 474.055 131.184C485.708 128.959 497.775 140.881 501.008 157.812C504.241 174.743 497.415 190.271 485.762 192.496C474.11 194.721 462.043 182.8 458.81 165.869Z" fill="#F9B499"/>
<path d="M491.17 137.78C491.17 137.78 488.17 120.12 468.97 117.34C461.822 116.096 454.487 116.465 447.5 118.42C440.842 120.368 434.905 124.232 430.43 129.532C425.954 134.831 423.137 141.331 422.33 148.22C421.557 154.277 422.602 160.427 425.33 165.89C425.33 165.89 436.49 171.1 439.89 180.37C439.89 180.37 443.89 193.04 449.16 188.71C449.16 188.71 451.87 190.34 451.44 168.21L458.05 155.94C458.05 155.94 461.83 159.04 462.53 161.83C463.093 160.034 463.267 158.139 463.04 156.27C462.916 154.707 463.223 153.14 463.928 151.74C464.634 150.34 465.71 149.16 467.04 148.33C472.11 145.15 479.94 140.07 484.51 136.17C485.207 135.575 486.093 135.248 487.01 135.248C487.926 135.248 488.813 135.575 489.51 136.17C490.097 136.671 490.652 137.208 491.17 137.78Z" fill="#2F2E41"/>
<path d="M446.27 247.83C446.27 247.83 432.96 251.99 427.81 247.83C427.81 247.83 426.59 242.73 437.04 242.73C437.04 242.73 441.86 243.2 442.56 240.39C442.56 240.39 434.23 242.26 431.56 235C431.56 235 423.75 245.27 416.11 247.86C416.15 247.86 433.76 257.85 446.27 247.83Z" stroke="#ED1C24" stroke-width="0.25" stroke-miterlimit="10"/>
<path d="M428.48 199.43C428.48 199.43 441.27 194.69 446.27 200.38C446.27 200.38 466.71 223.96 482.04 227.68C484.962 228.331 487.649 229.77 489.81 231.84C497.26 239.25 510.88 257.3 497.27 280.56C497.27 280.56 497.73 318.83 490.44 336.82L488.84 352.08C488.84 352.08 471.99 335.23 447.39 335L424.61 334.77C424.61 334.77 435.77 302.77 426.89 284.25C426.89 284.25 411.6 258.46 412.3 248.1L428.48 199.43Z" fill="#008BFF"/>
<path d="M405.39 493.28C412.99 506.14 431.39 515.79 431.39 515.79C442.49 507.3 453.6 476.91 453.6 476.91C455.34 481.49 458.79 486.17 461.6 489.5C464.348 492.734 465.861 496.836 465.87 501.08V501.16C478.74 504.09 496.19 496.48 496.19 496.48C506.71 492.59 503.05 483.24 503.05 483.24C491.29 451.14 486.42 398.72 484.99 379.72C484.673 375.949 485.136 372.154 486.35 368.57C488.79 361.57 488.82 352.08 488.82 352.08C466.76 332.8 447.38 335 447.38 335L424.61 334.77C396.15 365.9 405.39 396.93 410.53 408.61C412.126 412.258 412.813 416.238 412.53 420.21L408.62 475.15C406.889 478.928 405.642 482.909 404.91 487C404.22 491.75 405.39 493.28 405.39 493.28Z" fill="#2F2E41"/>
<path opacity="0.2" d="M479.929 501.17C479.929 501.17 481.679 495 471.449 486C471.449 486 446.829 445.14 440.449 413.25C439.77 409.771 438.509 406.43 436.719 403.37C433.349 397.64 427.839 387.37 425.129 377C424.212 373.632 424.144 370.088 424.933 366.687C425.723 363.287 427.344 360.135 429.651 357.515C431.959 354.896 434.881 352.89 438.155 351.677C441.429 350.465 444.952 350.085 448.409 350.57C453.006 351.27 457.493 352.561 461.759 354.41C461.759 354.41 476.089 361.41 488.369 358.77C488.673 356.553 488.816 354.317 488.799 352.08C488.799 352.08 470.159 335.23 447.389 335L424.609 334.77C424.609 334.77 391.609 364.03 410.609 408.33C412.17 411.963 412.839 415.916 412.559 419.86L411.319 437.27C411.319 437.27 446.489 468.57 429.819 490.64C429.819 490.64 421.749 502.42 414.749 504.13C419.852 508.631 425.447 512.539 431.429 515.78C431.429 515.78 440.489 510.91 453.649 476.9C455.649 481.488 458.348 485.739 461.649 489.5C461.649 489.5 465.649 492.98 465.929 501.17C470.531 502.27 475.328 502.27 479.929 501.17Z" fill="black"/>
<path d="M457.37 336.13C456.92 337.82 456.56 339.54 456.26 341.27L455.83 343.86L455.5 346.47C455.08 349.95 454.807 353.443 454.68 356.95C454.406 363.955 454.593 370.97 455.24 377.95C456.496 391.925 459.102 405.746 463.02 419.22C463.9 422.62 465.02 425.93 466.15 429.22L467.8 434.22C468.38 435.88 469.04 437.5 469.66 439.14L471.54 444.06C472.17 445.69 472.76 447.34 473.48 448.94L477.66 458.59L494.34 497.19L477.76 458.58L473.62 448.92C472.9 447.32 472.32 445.67 471.69 444.03L469.82 439.12C469.21 437.48 468.55 435.85 467.98 434.2L466.35 429.2C465.27 425.87 464.12 422.56 463.25 419.2C459.302 405.752 456.659 391.955 455.36 378C454.702 371.02 454.498 364.006 454.75 357C454.86 353.5 455.12 350 455.54 346.52L455.86 343.91L456.28 341.32C456.57 339.54 456.92 337.82 457.37 336.13Z" fill="#008BFF"/>
<path d="M443.639 335C442.722 342.139 442.307 349.333 442.399 356.53L442.459 361.93C442.509 363.73 442.629 365.52 442.719 367.32C442.809 369.12 442.859 370.91 443.019 372.71L443.509 378.08C444.95 392.405 447.399 406.61 450.839 420.59L453.759 431L454.479 433.6L454.849 434.9L455.269 436.18L456.949 441.31L458.639 446.43L459.489 449L459.909 450.28L460.389 451.54L464.259 461.61L466.259 466.61L468.449 471.54L472.759 481.41C473.449 483.07 474.289 484.66 475.099 486.27L477.529 491.09L482.399 500.72L477.559 491.07L475.139 486.25C474.339 484.64 473.499 483.05 472.809 481.38L468.469 471.5L466.299 466.57L464.369 461.57L460.529 451.49L460.049 450.23L459.629 448.94L458.799 446.38L457.119 441.25L455.449 436.12L455.029 434.84L454.679 433.54L453.959 430.94L451.109 420.53C447.612 406.549 445.116 392.336 443.639 378L443.129 372.63C442.959 370.84 442.919 369.04 442.809 367.24C442.699 365.44 442.599 363.65 442.539 361.86L442.459 356.46C442.357 349.288 442.752 342.118 443.639 335Z" fill="#008BFF"/>
<path d="M466.71 531.45C464.52 568.8 482.36 605.05 482.36 605.05C487.76 619.7 485.02 628.85 485.02 628.85C509.19 645.33 512.5 609.44 512.5 609.44C500.41 598.83 503.68 517.9 503.68 517.9C504.57 508.154 504.57 498.346 503.68 488.6C502.4 494.79 496.21 496.48 496.21 496.48C493.017 497.789 489.744 498.891 486.41 499.78C470.57 503.28 465.89 501.16 465.89 501.16L466.71 531.45Z" fill="#F9B499"/>
<path d="M483.59 645.09C484.32 650.33 491.09 650.19 496.44 649.22C499.292 648.738 502.058 647.842 504.65 646.56C512.21 642.71 526.14 643.25 526.14 643.25C554.99 646.92 564.61 624.42 564.61 624.42C566.53 621.09 566.42 619.06 565.37 617.86C563.08 615.18 556.22 616.44 556.22 616.44C540.87 617.87 520.22 610.91 520.22 610.91C512.65 605.8 512.5 609.44 512.5 609.44C512.5 609.44 509.19 645.33 485.02 628.85L483.59 645.09Z" fill="#008BFF"/>
<path d="M483.59 645.09C484.41 668.83 510.39 653.87 510.39 653.87C516.936 649.817 524.603 647.953 532.28 648.55C560.72 646.32 566.94 626.47 566.94 626.47C571.54 617.47 565.39 617.86 565.39 617.86C566.44 619.06 566.55 621.09 564.63 624.42C564.63 624.42 555.01 646.92 526.16 643.25C526.16 643.25 512.23 642.71 504.67 646.56C502.077 647.842 499.311 648.738 496.46 649.22C491.09 650.19 484.32 650.33 483.59 645.09Z" fill="#2F2E41"/>
<path d="M311.46 571.51C312.12 586.32 322.65 591.24 322.65 591.24L351.59 568.24C369.59 553.4 397.59 534.8 411.03 526.1C415.028 523.482 419.33 521.36 423.84 519.78C429.23 517.92 431.41 515.78 431.41 515.78C431.41 515.78 412.99 506.13 405.41 493.27C405.41 493.27 404.24 491.74 404.93 486.99C378 496.85 351.28 525.79 351.28 525.79L311.46 571.51Z" fill="#F9B499"/>
<path d="M413.189 502.72C413.189 502.72 396.319 499.82 386.119 510.67L312.509 578.07C312.031 575.908 311.697 573.716 311.509 571.51L351.259 525.8C351.259 525.8 377.159 497.39 404.909 487C404.909 487 403.849 490.9 405.389 493.28C407.478 496.817 410.11 500.002 413.189 502.72Z" fill="#F7A48B"/>
<path d="M329.02 192C329.02 192 323.39 198.69 322.8 214.65C322.724 216.409 323.007 218.166 323.631 219.812C324.255 221.459 325.207 222.962 326.43 224.23C329.8 227.67 334.18 233.57 333.3 240.39C333.209 241.18 332.809 241.902 332.186 242.397C331.564 242.892 330.77 243.12 329.98 243.03C329.709 242.999 329.443 242.931 329.19 242.83C325.79 241.44 320.19 237.65 314.74 227.31C314.74 227.31 300.74 200.63 289.23 199.31L293.89 189.57L295.1 171.05L329.02 192Z" fill="#F9B499"/>
<path d="M329.02 192C329.02 192 325.46 194.91 323.52 207.06C323.52 207.06 313.12 196.12 306.62 188.82L329.02 192Z" fill="#F7A48B"/>
<path opacity="0.2" d="M339.259 290.1C339.259 290.1 340.599 284.04 338.079 270.64" stroke="black" stroke-miterlimit="10"/>
<path d="M270.43 308.25C262.829 302.529 254.928 297.218 246.76 292.34C246.76 292.34 227.7 273.24 226.65 268.17C226.65 268.17 218.31 254.17 206.65 257.09C206.65 257.09 200.97 255.37 197 259.24C197 259.24 184 278.98 197 285.38C197 285.38 229.08 307.77 252.41 319.32C257.35 321.78 261.765 325.176 265.41 329.32C269.85 334.32 276.93 340.9 285.3 343.64C285.3 343.64 291.59 347.58 291.59 343.64C291.59 343.64 299.34 347.29 297.29 341.3C297.29 341.3 306.45 340.96 301.53 333.84C301.53 333.84 305.88 330.47 299.19 324.49C299.19 324.49 292.61 312.06 284.57 312.36L276.27 310.81C274.153 310.417 272.154 309.541 270.43 308.25Z" fill="#F9B499"/>
<path d="M337.119 645.74C337.11 646.293 337.177 646.845 337.319 647.38C337.588 648.5 338.184 649.515 339.032 650.295C339.88 651.075 340.941 651.585 342.079 651.76C347.609 652.52 355.569 649.76 355.569 649.76C366.289 645.42 385.699 646.44 385.699 646.44C406.649 645.17 413.189 624.44 413.189 624.44C413.195 624.431 413.197 624.42 413.197 624.41C413.197 624.399 413.195 624.389 413.189 624.38C413.219 623.954 413.219 623.526 413.189 623.1C411.559 619.36 395.399 620.61 395.399 620.61C379.319 620.87 371.399 616.28 371.399 616.28C360.199 610.15 363.969 619.34 363.969 619.34L340.219 633.34C337.699 636.79 337.179 642.39 337.119 645.74Z" fill="#008BFF"/>
<path d="M337.12 647.43C338.3 671.24 364 655.61 364 655.61C369.91 651.84 382.74 649.89 389.87 649.06C396.48 648.369 402.59 645.221 406.99 640.24C410.797 635.813 412.99 630.225 413.21 624.39C413.215 624.399 413.218 624.41 413.218 624.42C413.218 624.431 413.215 624.441 413.21 624.45C413.21 624.45 406.67 645.14 385.72 646.45C385.72 646.45 366.31 645.45 355.59 649.77C355.59 649.77 347.59 652.56 342.1 651.77C340.961 651.595 339.9 651.085 339.052 650.305C338.205 649.525 337.608 648.51 337.34 647.39L337.12 647.43Z" fill="#2F2E41"/>
<path d="M450.22 166.564C447.282 162.176 447.364 156.971 450.403 154.937C453.441 152.903 458.285 154.811 461.222 159.198C464.159 163.586 464.077 168.791 461.039 170.825C458.001 172.859 453.157 170.951 450.22 166.564Z" fill="#F9B499"/>
<path d="M439.199 178.68C439.225 178.86 439.214 179.043 439.169 179.219C439.123 179.395 439.043 179.56 438.934 179.705C438.824 179.85 438.687 179.972 438.53 180.064C438.373 180.156 438.199 180.216 438.019 180.24C437.771 180.272 437.52 180.238 437.289 180.14C437.289 180.14 427.339 170.07 424.659 168.14C424.659 168.14 423.329 166.95 424.459 165.82C424.687 165.601 424.98 165.462 425.293 165.422C425.606 165.383 425.924 165.445 426.199 165.6C428.539 166.89 435.419 171.07 439.199 178.68Z" fill="#008BFF"/>
<path d="M411.22 248.66C412.087 248.086 413.086 247.744 414.123 247.667C415.159 247.59 416.198 247.78 417.14 248.22C425.25 251.98 447.57 259.62 454.14 233.72C454.14 233.72 460 214.18 434.25 201.08C432.328 200.104 430.228 199.531 428.077 199.395C425.926 199.259 423.769 199.564 421.74 200.29C414.91 202.75 404.37 209.29 393.74 226.55C392.758 228.153 391.518 229.582 390.07 230.78C381.97 237.45 354.35 261.55 353.8 280.5C353.775 281.85 354.172 283.174 354.935 284.287C355.699 285.401 356.792 286.248 358.06 286.71C363.67 288.81 376.74 292.2 405.65 294.48C405.65 294.48 423.59 294.48 431.57 299.48C431.57 299.48 446.39 307.54 459.57 305.24C459.841 305.197 460.102 305.102 460.336 304.958C460.57 304.815 460.774 304.627 460.935 304.405C461.097 304.183 461.213 303.932 461.277 303.665C461.342 303.398 461.353 303.121 461.31 302.85C461.31 302.85 461.31 302.78 461.31 302.75C461.179 302.205 460.941 301.692 460.61 301.24C460.61 301.24 467.33 302.7 466.74 297.44C466.74 297.44 474.35 300.07 472.3 293.05C472.3 293.05 475.63 292.43 475.44 289.6C475.351 288.634 474.901 287.738 474.18 287.09L471.18 284.28C471.18 284.28 478.45 286.04 478.45 281.07C475.084 280.801 471.742 280.29 468.45 279.54C459.33 277.072 449.608 278.248 441.34 282.82C441.34 282.82 402.83 279.92 385.15 267.55C385.048 267.482 384.961 267.395 384.893 267.294C384.824 267.192 384.777 267.079 384.753 266.959C384.729 266.839 384.728 266.716 384.752 266.596C384.776 266.476 384.823 266.362 384.89 266.26C384.961 266.159 385.049 266.071 385.15 266L411.22 248.66Z" fill="#F9B499"/>
<path d="M389.48 231.3C389.48 231.3 367.15 258.42 370.67 271.3C370.67 271.3 374.41 286.65 398.07 290.1C398.07 290.1 423.45 290.1 431.6 299.45C431.6 299.45 426.6 295.85 416.15 295.17C416.15 295.17 374.32 293.11 357.79 286.57C356.479 286.043 355.374 285.108 354.639 283.902C353.904 282.697 353.578 281.286 353.71 279.88C354.03 276.09 355.71 270.01 361.34 261.18C361.34 261.18 375.27 241.55 389.48 231.3Z" fill="#F7A48B"/>
<path d="M461.76 284.25C463.29 285.972 464.962 287.561 466.76 289C468.502 290.491 470.368 291.829 472.34 293C469.262 289.579 465.697 286.631 461.76 284.25Z" fill="#F7A48B"/>
<path d="M466.76 297.41C464.073 294.469 460.912 291.998 457.41 290.1C458.736 291.569 460.2 292.908 461.78 294.1C463.332 295.357 465 296.465 466.76 297.41Z" fill="#F7A48B"/>
<path d="M460.64 301.21C458.901 299.021 456.661 297.282 454.11 296.14C455.838 298.339 458.081 300.08 460.64 301.21Z" fill="#F7A48B"/>
<path d="M533.36 278.15C533.36 278.15 524.2 280.37 524.95 276.28C524.95 276.28 520.4 275.51 522.38 271.62C522.38 271.62 518.82 272.21 518.19 269.51C518.082 269.014 518.107 268.498 518.263 268.015C518.42 267.531 518.701 267.098 519.08 266.76C521.546 264.287 524.392 262.224 527.51 260.65C527.51 260.65 532.18 260.01 530.51 266.48C530.51 266.48 534.71 267.41 532.61 272.78C532.65 272.78 534.76 275.82 533.36 278.15Z" fill="#F9B499"/>
<path d="M524.949 276.28C527.4 275.904 529.695 274.843 531.569 273.22C530.347 273.382 529.158 273.74 528.049 274.28C526.918 274.782 525.873 275.457 524.949 276.28Z" fill="#F7A48B"/>
<path d="M522.379 271.62C523.733 271.201 525.027 270.609 526.229 269.86C527.456 269.142 528.58 268.261 529.569 267.24C526.857 268.104 524.391 269.606 522.379 271.62Z" fill="#F7A48B"/>
<path d="M281.03 479.73C281.57 487.45 293.16 498.56 293.16 498.56C298.93 504.94 299.89 513.64 299.89 513.64L304.76 555.24C309.76 582.24 317.35 588.99 320.81 590.68C322.16 591.298 323.357 592.205 324.318 593.337C325.279 594.469 325.979 595.798 326.37 597.23C326.821 599.07 326.969 600.972 326.81 602.86L340.26 633.38C354.32 641.29 361.77 625.2 363.57 620.55C363.708 620.204 363.749 619.826 363.689 619.458C363.629 619.09 363.471 618.745 363.23 618.46C346.05 598.07 334.94 528.02 337.69 517.71C340.5 507.23 333.87 492.42 333.87 492.42C330.16 485.01 328.5 469.8 328.21 467.01V466.56C324.81 469.83 323.15 469.88 323.15 469.88C304.18 475.69 281.03 479.73 281.03 479.73Z" fill="#F9B499"/>
<path d="M281.03 479.73C281.57 487.45 293.16 498.56 293.16 498.56C298.93 504.94 299.89 513.64 299.89 513.64L304.76 555.24C309.98 588.47 320.76 590.68 320.76 590.68C328.05 593.8 326.76 602.86 326.76 602.86L340.21 633.38C356.55 642.58 363.96 619.38 363.96 619.38C351.96 630.64 344.81 626.9 344.81 626.9C325.73 600.54 311.99 543.57 307.53 523.23C306.579 518.991 306.671 514.585 307.8 510.39C311.3 497.65 305.97 494.26 305.97 494.26C291.87 480.18 316.66 476.77 316.66 476.77C327.66 475.29 328.22 468.77 328.16 467.05V467C328.17 466.87 328.17 466.74 328.16 466.61C324.76 469.88 323.1 469.93 323.1 469.93C304.18 475.69 281.03 479.73 281.03 479.73Z" fill="#F7A48B"/>
<path d="M293.929 166.724C289.999 148.905 297.161 132.176 309.926 129.36C322.692 126.544 336.227 138.707 340.158 156.526C344.089 174.345 336.927 191.073 324.161 193.889C311.395 196.705 297.86 184.543 293.929 166.724Z" fill="#F9B499"/>
<path d="M305.1 140.82C305.1 140.82 337.1 141.75 338.1 122.46C338.1 122.46 334.99 128.37 330.32 129.3C331.642 127.961 332.64 126.335 333.237 124.55C333.833 122.764 334.012 120.866 333.76 119C333.76 119 327.54 128.64 312.91 124.29C312.91 124.29 280.8 115.2 273.67 145.16C273.464 146.028 273.356 146.917 273.35 147.81C273.24 154.24 274.06 180.54 293.93 189.57L295.14 171.05L303.42 161.84C303.42 161.84 306.32 164.37 305.73 154.29L305.1 140.82Z" fill="#2F2E41"/>
<path d="M291.881 166.655C290.022 162.17 291.088 157.468 294.262 156.153C297.435 154.838 301.515 157.408 303.373 161.892C305.232 166.377 304.166 171.079 300.992 172.394C297.819 173.709 293.739 171.14 291.881 166.655Z" fill="#F9B499"/>
<path d="M374.62 297.41C372.62 298.13 346.07 325.41 334.21 313.18L334.92 302.84C334.92 302.84 335.92 290.77 341.71 288.64L347.76 286.42L357.76 286.57C356.885 285.978 356.22 285.124 355.861 284.13C355.502 283.137 355.466 282.055 355.76 281.04C355.361 279.98 355.348 278.812 355.723 277.743C356.097 276.674 356.836 275.77 357.81 275.19C357.81 275.19 377.69 265.11 379 276.51C379.969 277.61 380.608 278.962 380.841 280.41C381.075 281.857 380.894 283.341 380.32 284.69C380.32 284.69 383.1 289.69 378.57 291.42C378.64 291.42 380.4 295.36 374.62 297.41Z" fill="#F9B499"/>
<path d="M357.759 280.37C357.759 280.37 368.439 274.9 379.109 276.51" stroke="#F7A48B" stroke-miterlimit="10"/>
<path d="M359.2 285.28C359.2 285.28 373.62 280.21 380.67 283.84" stroke="#F7A48B" stroke-miterlimit="10"/>
<path d="M378.64 291.42C378.64 291.42 376.74 284.84 364.9 287.91" stroke="#F7A48B" stroke-miterlimit="10"/>
<path d="M371.76 294.34C371.76 294.34 359.11 290.16 356.47 285.28C356.47 285.28 357.76 293.96 365.83 295.6C365.958 295.626 366.081 295.677 366.19 295.751C366.298 295.824 366.392 295.919 366.464 296.028C366.537 296.138 366.587 296.261 366.612 296.39C366.637 296.518 366.636 296.651 366.61 296.78V296.9L365.79 299.45L371.76 294.34Z" fill="#F7A48B"/>
<path d="M301.46 333.8L289.23 323.62" stroke="#F7A48B" stroke-miterlimit="10"/>
<path d="M297.22 341.26L285.25 330.21" stroke="#F7A48B" stroke-miterlimit="10"/>
<path d="M291.52 343.6L282.34 335.74" stroke="#F7A48B" stroke-miterlimit="10"/>
</svg>
