<svg width="189" height="189" viewBox="0 0 189 189" fill="none" xmlns="http://www.w3.org/2000/svg">
<path d="M189 94.5C189 146.691 146.691 189 94.5 189C42.3091 189 0 146.691 0 94.5C0 42.3091 42.3091 0 94.5 0C146.691 0 189 42.3091 189 94.5Z" fill="#0084DF"/>
<g clip-path="url(#clip0_450_66)">
<mask id="mask0_450_66" style="mask-type:luminance" maskUnits="userSpaceOnUse" x="30" y="30" width="130" height="130">
<path d="M160 30H30V160H160V30Z" fill="white"/>
</mask>
<g mask="url(#mask0_450_66)">
<path d="M125.106 89.526C125.106 95.572 120.204 100.473 114.158 100.473C108.112 100.473 103.211 95.572 103.211 89.526C103.211 83.48 108.112 78.5786 114.158 78.5786C120.204 78.5786 125.106 83.48 125.106 89.526Z" fill="white"/>
<path d="M103.211 89.5264H125.106C125.106 95.5724 120.204 100.474 114.158 100.474C108.112 100.474 103.211 95.5724 103.211 89.5264Z" fill="#E8E8E8"/>
<path d="M56.6846 133.315H73.1057V152.474C73.1057 155.497 70.6552 157.947 67.632 157.947H62.1583C59.1353 157.947 56.6846 155.497 56.6846 152.474V133.315ZM122.369 133.315V152.474C122.369 155.497 124.819 157.947 127.842 157.947H133.316C136.339 157.947 138.79 155.497 138.79 152.474V133.315H122.369Z" fill="white"/>
<path d="M56.6846 136.053H73.1057V149.737H56.6846V136.053ZM122.369 136.053V149.737H138.79V136.053H122.369Z" fill="white"/>
<path d="M147 114.157H152.472C155.496 114.157 157.946 116.608 157.946 119.631V136.052C157.946 139.076 155.496 141.526 152.472 141.526H42.9991C39.9761 141.526 37.5254 139.076 37.5254 136.052V119.631C37.5254 116.608 39.9759 114.157 42.9991 114.157H111.42V100.473C111.42 94.4268 116.322 89.5254 122.368 89.5254H147C153.046 89.5254 157.946 94.4268 157.946 100.473V103.21C157.946 109.256 153.046 114.157 147 114.157Z" fill="white"/>
<path d="M157.946 119.632V125.105H37.5254V119.632C37.5254 116.609 39.9759 114.158 42.9991 114.158H111.42V103.21H157.946C157.946 109.256 153.046 114.158 147 114.158H152.472C155.496 114.158 157.946 116.609 157.946 119.632Z" fill="white"/>
<path d="M157.947 100.474V103.211C157.947 109.257 153.046 114.158 147 114.158H111.421V100.474C111.421 94.4278 116.322 89.5264 122.368 89.5264H147C153.046 89.5264 157.947 94.4278 157.947 100.474Z" fill="white"/>
<path d="M111.421 103.21H157.947C157.947 109.256 153.046 114.158 147 114.158H111.421V103.21Z" fill="white"/>
<path d="M116.895 103.211V122.369C116.895 125.392 114.445 127.843 111.421 127.843H37.5265C34.5034 127.843 32.0527 125.392 32.0527 122.369V103.211C32.0527 100.188 34.5032 97.7373 37.5265 97.7373H111.421C114.444 97.7373 116.895 100.188 116.895 103.211Z" fill="white"/>
<path d="M116.894 103.211V122.369C116.894 125.392 114.444 127.843 111.421 127.843H92.2627V97.7373H111.421C114.444 97.7373 116.894 100.188 116.894 103.211Z" fill="white"/>
<path d="M85.4211 73.105H74.4736C63.1375 73.105 53.9473 63.9149 53.9473 52.5788C53.9473 41.2426 63.1375 32.0525 74.4736 32.0525H85.4211C96.7572 32.0525 105.947 41.2426 105.947 52.5788C105.947 63.9152 96.7572 73.105 85.4211 73.105Z" fill="white"/>
<path d="M105.948 68.9995C105.948 72.7784 102.884 75.8415 99.1057 75.8415C95.327 75.8415 92.2637 72.7782 92.2637 68.9995C92.2637 65.2209 95.327 62.1575 99.1057 62.1575C102.884 62.1575 105.948 65.2206 105.948 68.9995Z" fill="white"/>
<path d="M84.0523 62.8189C82.0952 64.1291 79.7422 64.8944 77.2103 64.8944C70.4084 64.8944 64.8945 59.3805 64.8945 52.5787C64.8945 45.7768 70.4084 40.2629 77.2103 40.2629C79.7425 40.2629 82.0952 41.028 84.0523 42.3384C80.7521 44.5478 78.5786 48.309 78.5786 52.579C78.5786 56.8489 80.7521 60.6094 84.0523 62.8189Z" fill="white"/>
<path d="M51.8949 52.5788C51.8949 48.9092 52.7957 45.2649 54.5005 42.0408C55.0306 41.0386 56.2724 40.6549 57.2746 41.1856C58.2768 41.7155 58.6599 42.9574 58.13 43.9592C56.7364 46.5946 56 49.5751 56 52.5788C56 62.7653 64.2872 71.0526 74.4737 71.0526H85.4212C86.5551 71.0526 87.4737 71.9717 87.4737 73.1051C87.4737 74.2388 86.5551 75.1578 85.4212 75.1578H74.4737C62.0236 75.158 51.8949 65.0292 51.8949 52.5788ZM61.9142 39.0312C65.3392 35.8546 69.7993 34.1052 74.4737 34.1052H85.4212C95.6076 34.1052 103.895 42.3924 103.895 52.5788C103.895 53.8235 103.771 55.0674 103.525 56.276C103.3 57.3869 104.018 58.4705 105.129 58.6957C105.266 58.7237 105.404 58.7371 105.539 58.7371C106.495 58.7371 107.351 58.0655 107.549 57.0923C107.848 55.6158 108 54.0975 108 52.5788C108 40.1289 97.8709 30 85.4212 30H74.4737C68.7608 30 63.309 32.1384 59.1226 36.0211C58.2917 36.792 58.2428 38.091 59.0136 38.922C59.7842 39.7533 61.0829 39.8023 61.9142 39.0312ZM155.722 112.843C158.25 114.057 160 116.644 160 119.631V136.052C160 140.203 156.624 143.579 152.474 143.579H140.842V152.474C140.842 153.705 140.544 154.868 140.018 155.895H157.948C159.081 155.895 160 156.814 160 157.948C160 159.081 159.081 160 157.948 160H114.158C113.024 160 112.105 159.081 112.105 157.948C112.105 156.814 113.024 155.895 114.158 155.895H121.139C120.613 154.868 120.316 153.705 120.316 152.474V143.579H75.158V152.474C75.158 153.705 74.8606 154.868 74.3345 155.895H105.948C107.082 155.895 108 156.814 108 157.948C108 159.081 107.081 160 105.947 160H32.0526C30.9186 160 30 159.081 30 157.948C30 156.814 30.9186 155.895 32.0526 155.895H55.4551C54.9288 154.868 54.6317 153.705 54.6317 152.474V143.579H43C38.8502 143.579 35.4737 140.203 35.4737 136.052C35.4737 134.919 36.3923 134 37.5263 134C38.6602 134 39.5789 134.919 39.5789 136.052C39.5789 137.939 41.1135 139.474 43 139.474H62.158C63.2919 139.474 64.2106 140.393 64.2106 141.526C64.2106 142.66 63.2919 143.579 62.158 143.579H58.7369V152.474C58.7369 154.36 60.2715 155.895 62.158 155.895H67.6317C69.5182 155.895 71.0528 154.36 71.0528 152.474V143.579H70.3685C69.2346 143.579 68.316 142.66 68.316 141.526C68.316 140.393 69.2346 139.474 70.3685 139.474H127.842C128.976 139.474 129.895 140.393 129.895 141.526C129.895 142.66 128.976 143.579 127.842 143.579H124.421V152.474C124.421 154.36 125.956 155.895 127.842 155.895H133.316C135.203 155.895 136.737 154.36 136.737 152.474V143.579H136.052C134.919 143.579 134 142.66 134 141.526C134 140.393 134.919 139.474 136.052 139.474H152.474C154.361 139.474 155.895 137.939 155.895 136.052V127.158H127.842C126.708 127.158 125.789 126.239 125.789 125.105C125.789 123.971 126.708 123.053 127.842 123.053H155.894V119.631C155.894 117.745 154.36 116.21 152.474 116.21H144.263C143.129 116.21 142.211 115.291 142.211 114.158C142.211 113.024 143.129 112.105 144.263 112.105H147C151.905 112.105 155.895 108.115 155.895 103.21V100.473C155.895 95.569 151.905 91.5786 147 91.5786H122.368C119.005 91.5786 115.997 93.4603 114.488 96.3378C117.114 97.5142 118.947 100.152 118.947 103.21V112.105H136.052C137.186 112.105 138.105 113.024 138.105 114.158C138.105 115.291 137.186 116.21 136.052 116.21H118.947V122.368C118.947 126.518 115.571 129.894 111.421 129.894H37.5263C33.3764 129.895 30 126.519 30 122.368V103.21C30 99.0602 33.3764 95.684 37.5263 95.684H102.71C101.702 93.8107 101.158 91.6982 101.158 89.526C101.158 82.358 106.99 76.526 114.158 76.526C120.628 76.526 126.009 81.2769 126.996 87.4735H147C154.168 87.4735 160 93.3055 160 100.473V103.21C160 107.026 158.347 110.463 155.722 112.843ZM111.421 99.7894H106.958C106.93 99.7899 106.903 99.7899 106.875 99.7894H37.5263C35.6398 99.7894 34.1052 101.324 34.1052 103.211V122.369C34.1052 124.255 35.6398 125.79 37.5263 125.79H90.2106V105.948C90.2106 104.814 91.1292 103.895 92.2631 103.895C93.3971 103.895 94.3157 104.814 94.3157 105.948V125.79H111.421C113.307 125.79 114.842 124.255 114.842 122.369V103.211C114.842 101.324 113.308 99.7894 111.421 99.7894ZM122.814 87.4737C121.885 83.5555 118.356 80.6317 114.158 80.6317C109.253 80.6317 105.263 84.6221 105.263 89.5265C105.263 91.829 106.158 94.0344 107.74 95.6846H110.278C112.216 90.779 116.98 87.474 122.368 87.474L122.814 87.4737ZM108 69C108 73.9044 104.01 77.8949 99.1051 77.8949C94.2004 77.8949 90.2103 73.9044 90.2103 69C90.2103 64.0956 94.2004 60.1051 99.1051 60.1051C104.01 60.1051 108 64.0956 108 69ZM103.895 69C103.895 66.3591 101.746 64.2106 99.1054 64.2106C96.4646 64.2106 94.316 66.3594 94.316 69C94.316 71.6406 96.4648 73.7894 99.1054 73.7894C101.746 73.7894 103.895 71.6409 103.895 69ZM80.6317 52.5788C80.6317 56.0104 82.3372 59.201 85.1949 61.1136C85.7639 61.4951 86.1054 62.1346 86.1054 62.8197C86.1054 63.5044 85.7639 64.1443 85.1947 64.5251C82.8275 66.1098 80.067 66.9472 77.2108 66.9472C69.2882 66.9472 62.8425 60.5017 62.8425 52.5788C62.8425 44.656 69.2885 38.2106 77.2108 38.2106C80.067 38.2106 82.8278 39.0482 85.1947 40.6328C85.7639 41.0137 86.1054 41.6538 86.1054 42.3383C86.1054 43.0228 85.7639 43.6629 85.1947 44.0438C82.3372 45.957 80.6317 49.1476 80.6317 52.5788ZM76.5263 52.5788C76.5263 48.9092 77.9192 45.4362 80.3592 42.8081C79.35 42.4828 78.2899 42.3157 77.2106 42.3157C71.5513 42.3157 66.9474 46.9196 66.9474 52.5788C66.9474 58.2382 71.5513 62.842 77.2106 62.842C78.2899 62.842 79.35 62.6747 80.3592 62.3497C77.9195 59.7215 76.5263 56.2489 76.5263 52.5788Z" fill="#0084DF"/>
</g>
</g>
<defs>
<clipPath id="clip0_450_66">
<rect width="130" height="130" fill="white" transform="translate(30 30)"/>
</clipPath>
</defs>
</svg>
