<svg width="132" height="132" viewBox="0 0 132 132" fill="none" xmlns="http://www.w3.org/2000/svg">
<g clip-path="url(#clip0_320_435)">
<path d="M96.5686 60.442C96.5686 66.581 91.5918 71.5579 85.4528 71.5579C79.3137 71.5579 74.3369 66.581 74.3369 60.442C74.3369 54.303 79.3137 49.3262 85.4528 49.3262C91.5918 49.3262 96.5686 54.303 96.5686 60.442Z" fill="#F4C064"/>
<path d="M74.3369 60.4424H96.5686C96.5686 66.5814 91.5918 71.5582 85.4528 71.5582C79.3137 71.5582 74.3369 66.5814 74.3369 60.4424Z" fill="#F4AB53"/>
<path d="M27.0947 104.905H43.7685V124.358C43.7685 127.428 41.2803 129.916 38.2106 129.916H32.6526C29.5831 129.916 27.0947 127.428 27.0947 124.358V104.905ZM93.7893 104.905V124.358C93.7893 127.428 96.2774 129.916 99.3472 129.916H104.905C107.975 129.916 110.463 127.428 110.463 124.358V104.905H93.7893Z" fill="#0084DF"/>
<path d="M27.0947 107.685H43.7685V121.579H27.0947V107.685ZM93.7893 107.685V121.579H110.463V107.685H93.7893Z" fill="#0084DF"/>
<path d="M118.8 85.4523H124.357C127.427 85.4523 129.915 87.9405 129.915 91.0102V107.684C129.915 110.754 127.427 113.242 124.357 113.242H13.1995C10.13 113.242 7.6416 110.754 7.6416 107.684V91.01C7.6416 87.9405 10.1298 85.4521 13.1995 85.4521H82.6733V71.5573C82.6733 65.4182 87.6501 60.4414 93.7891 60.4414H118.8C124.939 60.4414 129.915 65.4182 129.915 71.5573V74.3362C129.915 80.4755 124.939 85.4523 118.8 85.4523Z" fill="#0084DF"/>
<path d="M129.915 91.0107V96.5686H7.6416V91.0107C7.6416 87.9412 10.1298 85.4528 13.1995 85.4528H82.6733V74.3369H129.915C129.915 80.4759 124.939 85.4528 118.8 85.4528H124.357C127.427 85.453 129.915 87.9412 129.915 91.0107Z" fill="#0084DF"/>
<path d="M129.916 71.5582V74.3372C129.916 80.4762 124.939 85.453 118.8 85.453H82.6738V71.5582C82.6738 65.4192 87.6506 60.4424 93.7897 60.4424H118.8C124.939 60.4424 129.916 65.4192 129.916 71.5582Z" fill="#0084DF"/>
<path d="M82.6738 74.3369H129.916C129.916 80.4759 124.939 85.4528 118.8 85.4528H82.6738V74.3369Z" fill="#0084DF"/>
<path d="M88.2315 74.3372V93.7899C88.2315 96.8595 85.7434 99.3479 82.6736 99.3479H7.64191C4.57239 99.3479 2.08398 96.8597 2.08398 93.7899V74.3372C2.08398 71.2677 4.57213 68.7793 7.64191 68.7793H82.6736C85.7431 68.7793 88.2315 71.2674 88.2315 74.3372Z" fill="#0084DF"/>
<path d="M88.2314 74.3372V93.7899C88.2314 96.8595 85.7432 99.3479 82.6734 99.3479H63.2207V68.7793H82.6734C85.743 68.7793 88.2314 71.2674 88.2314 74.3372Z" fill="#0084DF"/>
<path d="M56.2734 43.7681H45.1575C33.647 43.7681 24.3154 34.4366 24.3154 22.9261C24.3154 11.4155 33.647 2.08398 45.1575 2.08398H56.2734C67.7839 2.08398 77.1154 11.4155 77.1154 22.9261C77.1154 34.4369 67.7839 43.7681 56.2734 43.7681Z" fill="#0084DF"/>
<path d="M77.1162 39.5996C77.1162 43.4366 74.0057 46.5469 70.169 46.5469C66.3322 46.5469 63.2217 43.4364 63.2217 39.5996C63.2217 35.7629 66.3322 32.6523 70.169 32.6523C74.0057 32.6523 77.1162 35.7626 77.1162 39.5996Z" fill="#0084DF"/>
<path d="M54.8841 33.3239C52.8969 34.6542 50.5077 35.4313 47.9368 35.4313C41.0303 35.4313 35.4316 29.8326 35.4316 22.9261C35.4316 16.0196 41.0303 10.4209 47.9368 10.4209C50.508 10.4209 52.8969 11.1977 54.8841 12.5283C51.5331 14.7717 49.3262 18.5907 49.3262 22.9264C49.3262 27.262 51.5331 31.0804 54.8841 33.3239Z" fill="#FFE77C"/>
<path d="M22.2317 22.9262C22.2317 19.2001 23.1464 15.4997 24.8774 12.226C25.4157 11.2084 26.6766 10.8188 27.6942 11.3577C28.7118 11.8957 29.1008 13.1567 28.5628 14.174C27.1477 16.8499 26.4 19.8763 26.4 22.9262C26.4 33.2694 34.8147 41.6842 45.1579 41.6842H56.2738C57.4252 41.6842 58.3579 42.6174 58.3579 43.7683C58.3579 44.9194 57.4252 45.8525 56.2738 45.8525H45.1579C32.5163 45.8527 22.2317 35.5681 22.2317 22.9262ZM32.4052 9.17013C35.8829 5.94464 40.4116 4.16831 45.1579 4.16831H56.2738C66.6169 4.16831 75.0317 12.5831 75.0317 22.9262C75.0317 24.19 74.9056 25.4531 74.6563 26.6802C74.4276 27.8082 75.1565 28.9085 76.2844 29.1372C76.4241 29.1656 76.5636 29.1792 76.701 29.1792C77.6717 29.1792 78.541 28.4973 78.7416 27.5091C79.0458 26.0099 79.2003 24.4682 79.2003 22.9262C79.2 10.2847 68.9151 0 56.2738 0H45.1579C39.3571 0 33.8214 2.1713 29.5706 6.11377C28.727 6.89648 28.6773 8.21545 29.46 9.05927C30.2424 9.90335 31.5611 9.95311 32.4052 9.17013ZM127.656 84.1173C130.223 85.3504 132 87.9767 132 91.0104V107.684C132 111.898 128.572 115.326 124.358 115.326H112.547V124.358C112.547 125.608 112.245 126.789 111.711 127.832H129.916C131.067 127.832 132 128.765 132 129.916C132 131.067 131.067 132 129.916 132H85.4527C84.3013 132 83.3686 131.067 83.3686 129.916C83.3686 128.765 84.3013 127.832 85.4527 127.832H92.5415C92.0071 126.789 91.7055 125.608 91.7055 124.358V115.326H45.8527V124.358C45.8527 125.608 45.5508 126.789 45.0166 127.832H77.1161C78.2675 127.832 79.2003 128.765 79.2003 129.916C79.2003 131.067 78.2672 132 77.1158 132H2.08416C0.932765 132 0 131.067 0 129.916C0 128.765 0.932765 127.832 2.08416 127.832H25.8467C25.3123 126.789 25.0106 125.608 25.0106 124.358V115.326H13.2C8.98631 115.326 5.55792 111.898 5.55792 107.684C5.55792 106.533 6.49069 105.6 7.64208 105.6C8.79347 105.6 9.72623 106.533 9.72623 107.684C9.72623 109.6 11.2845 111.158 13.2 111.158H32.6527C33.8041 111.158 34.7369 112.091 34.7369 113.242C34.7369 114.393 33.8041 115.326 32.6527 115.326H29.179V124.358C29.179 126.273 30.7372 127.832 32.6527 127.832H38.2106C40.1262 127.832 41.6844 126.273 41.6844 124.358V115.326H40.9896C39.8382 115.326 38.9055 114.393 38.9055 113.242C38.9055 112.091 39.8382 111.158 40.9896 111.158H99.3475C100.499 111.158 101.432 112.091 101.432 113.242C101.432 114.393 100.499 115.326 99.3475 115.326H95.8738V124.358C95.8738 126.273 97.432 127.832 99.3475 127.832H104.905C106.821 127.832 108.379 126.273 108.379 124.358V115.326H107.684C106.533 115.326 105.6 114.393 105.6 113.242C105.6 112.091 106.533 111.158 107.684 111.158H124.358C126.274 111.158 127.832 109.6 127.832 107.684V98.6525H99.3473C98.1959 98.6525 97.2631 97.7192 97.2631 96.5683C97.2631 95.4172 98.1959 94.4842 99.3473 94.4842H127.831V91.0104C127.831 89.0948 126.273 87.5366 124.358 87.5366H116.021C114.869 87.5366 113.937 86.6033 113.937 85.4525C113.937 84.3013 114.869 83.3683 116.021 83.3683H118.8C123.78 83.3683 127.832 79.3165 127.832 74.3366V71.5577C127.832 66.5778 123.78 62.526 118.8 62.526H93.7894C90.3739 62.526 87.3198 64.4366 85.7881 67.3584C88.4542 68.5529 90.3156 71.2313 90.3156 74.3366V83.3683H107.684C108.835 83.3683 109.768 84.3016 109.768 85.4525C109.768 86.6036 108.835 87.5366 107.684 87.5366H90.3156V93.7894C90.3156 98.0033 86.8872 101.431 82.6735 101.431H7.64208C3.42839 101.432 0 98.0036 0 93.7894V74.3366C0 70.1227 3.42839 66.6945 7.64208 66.6945H73.8285C72.8052 64.7924 72.2525 62.6474 72.2525 60.4418C72.2525 53.1635 78.1742 47.2418 85.4525 47.2418C92.0223 47.2418 97.4861 52.0658 98.488 58.3577H118.8C126.078 58.3577 132 64.2794 132 71.5577V74.3366C132 78.2108 130.322 81.7005 127.656 84.1173ZM82.6738 70.8631H78.1422C78.1138 70.8636 78.0857 70.8636 78.0574 70.8631H7.64208C5.72653 70.8631 4.16831 72.4213 4.16831 74.3369V93.7896C4.16831 95.7052 5.72653 97.2634 7.64208 97.2634H61.1369V77.1161C61.1369 75.965 62.0696 75.0319 63.221 75.0319C64.3724 75.0319 65.3052 75.9652 65.3052 77.1161V97.2634H82.6735C84.5891 97.2634 86.1473 95.7052 86.1473 93.7896V74.3369C86.1473 72.4213 84.5893 70.8631 82.6738 70.8631ZM94.2416 58.3579C93.2982 54.3794 89.7154 51.4106 85.4525 51.4106C80.4723 51.4106 76.4208 55.4624 76.4208 60.4423C76.4208 62.7802 77.3293 65.0195 78.9355 66.6951H81.5134C83.481 61.7141 88.3178 58.3582 93.7894 58.3582L94.2416 58.3579ZM79.2 39.6C79.2 44.5799 75.1485 48.6317 70.1683 48.6317C65.1881 48.6317 61.1366 44.5799 61.1366 39.6C61.1366 34.6201 65.1881 30.5683 70.1683 30.5683C75.1485 30.5683 79.2 34.6201 79.2 39.6ZM75.0317 39.6C75.0317 36.9185 72.8498 34.7369 70.1686 34.7369C67.4871 34.7369 65.3055 36.9188 65.3055 39.6C65.3055 42.2812 67.4873 44.4631 70.1686 44.4631C72.8498 44.4631 75.0317 42.2815 75.0317 39.6ZM51.4106 22.9262C51.4106 26.4106 53.1424 29.6502 56.0441 31.5923C56.6218 31.9796 56.9686 32.629 56.9686 33.3246C56.9686 34.0199 56.6218 34.6696 56.0438 35.0563C53.6402 36.6653 50.8373 37.5156 47.9371 37.5156C39.8926 37.5156 33.3478 30.971 33.3478 22.9262C33.3478 14.8815 39.8929 8.33688 47.9371 8.33688C50.8373 8.33688 53.6405 9.18741 56.0438 10.7964C56.6218 11.1831 56.9686 11.8331 56.9686 12.5281C56.9686 13.2232 56.6218 13.8731 56.0438 14.2599C53.1424 16.2025 51.4106 19.4422 51.4106 22.9262ZM47.2421 22.9262C47.2421 19.2001 48.6564 15.6737 51.134 13.0051C50.1092 12.6748 49.0328 12.5052 47.9369 12.5052C42.1905 12.5052 37.5158 17.1799 37.5158 22.9262C37.5158 28.6726 42.1905 33.3473 47.9369 33.3473C49.0328 33.3473 50.1092 33.1774 51.134 32.8474C48.6567 30.1788 47.2421 26.6527 47.2421 22.9262Z" fill="white"/>
</g>
<defs>
<clipPath id="clip0_320_435">
<rect width="132" height="132" fill="white"/>
</clipPath>
</defs>
</svg>
