<svg width="189" height="189" viewBox="0 0 189 189" fill="none" xmlns="http://www.w3.org/2000/svg">
<path d="M189 94.5C189 146.691 146.691 189 94.5 189C42.3091 189 0 146.691 0 94.5C0 42.3091 42.3091 0 94.5 0C146.691 0 189 42.3091 189 94.5Z" fill="#0084DF"/>
<path d="M68.9183 139.482C73.7207 141.05 79.4235 142.082 86.0269 142.577V154H68.9183V139.482ZM105.537 154H122.645V139.37C117.543 140.947 111.84 141.993 105.537 142.507V154ZM94.8872 28C87.1465 28 80.8705 35.653 80.8705 45.0923C80.8705 54.5318 87.1465 62.1849 94.8872 62.1849C102.628 62.1849 108.904 54.5318 108.904 45.0923C108.904 35.653 102.628 28 94.8872 28ZM158 104.763C158 80.7066 138.526 60.2858 112.038 54.0396C111.217 56.1515 110.06 58.1349 108.607 59.9228C105.084 64.2218 100.083 66.6753 94.8903 66.6753C89.6979 66.6753 84.6853 64.2105 81.1736 59.9228C79.7308 58.1478 78.5804 56.1798 77.7609 54.0847C51.3688 60.3841 32 80.7656 32 104.763H41.305C41.291 98.5915 42.8532 92.5068 45.8611 87.0173C45.247 89.7322 44.9372 92.4999 44.9368 95.2751C44.9368 119.106 53.6982 138.415 95.0047 138.415C138.856 138.415 145.073 119.092 145.073 95.2612C145.072 92.4896 144.762 89.7257 144.148 87.0146C147.154 92.5055 148.713 98.5912 148.695 104.763H158Z" fill="white"/>
</svg>
