<svg width="189" height="189" viewBox="0 0 189 189" fill="none" xmlns="http://www.w3.org/2000/svg">
<path d="M189 94.5C189 146.691 146.691 189 94.5 189C42.3091 189 0 146.691 0 94.5C0 42.3091 42.3091 0 94.5 0C146.691 0 189 42.3091 189 94.5Z" fill="#0084DF"/>
<path d="M126.25 118.312H76.7299L66.56 126.994L56.3901 118.312H34.9688V124.266C34.9688 131.853 40.21 138.035 46.6914 138.156C47.2942 141.907 48.7527 145.295 50.9479 147.947C54.1949 151.868 58.9152 154.031 64.2383 154.031H96.9805C102.304 154.031 107.024 151.868 110.271 147.942C112.466 145.29 113.925 141.902 114.527 138.151C117.97 138.089 121.063 136.316 123.209 133.53C125.213 130.86 126.282 127.604 126.25 124.266V118.312ZM57.0449 110.375L66.5526 117.367L76.1445 110.375H126.25V108.391C126.247 106.104 125.456 103.889 124.01 102.117C122.564 100.346 120.552 99.1277 118.313 98.6672C118.109 91.3027 115.088 85.1387 109.504 80.8078C104.34 76.7795 97.4394 74.6562 89.5391 74.6562H71.6797C54.7579 74.6562 43.2957 84.273 42.9063 98.6672C40.6667 99.1277 38.6543 100.346 37.2084 102.117C35.7626 103.889 34.9715 106.104 34.9688 108.391V110.375H57.0449Z" fill="white"/>
<path d="M145.866 54.8125H127.364L129.576 45.9671L140.637 42.1621L138.156 34.9688L122.777 39.9297L119.183 54.8125H82.5938V62.75H87.2446L87.706 66.7187H89.5391C99.2129 66.7187 107.81 69.4225 114.374 74.5372C118.024 77.35 120.983 80.9601 123.025 85.0916C124.284 87.6547 125.179 90.3804 125.687 93.1903C129.383 95.466 132.124 99.01 133.397 103.16C134.67 107.309 134.389 111.781 132.605 115.738C133.65 118.46 134.186 121.35 134.188 124.266C134.188 129.807 132.302 135.088 128.879 139.136C126.761 141.66 124.048 143.616 120.984 144.829C119.94 147.804 118.384 150.574 116.388 153.014C116.095 153.366 115.795 153.711 115.487 154.044H134.188C138.156 154.044 139.893 152.059 140.389 148.339L149.418 62.7624H154.031V54.8125H145.866Z" fill="white"/>
</svg>
