<svg width="109" height="109" viewBox="0 0 109 109" fill="none" xmlns="http://www.w3.org/2000/svg">
<g clip-path="url(#clip0_256_4)">
<path d="M20.8923 59.2122C21.426 54.1742 21.6766 49.1101 21.6427 44.0438C21.1305 28.3974 25.2372 17.0518 31.7101 10.8426C35.6099 7.0992 44.3977 2.00092 54.2692 2.00424C59.1832 1.92855 64.0601 2.86782 68.5968 4.76364L69.8808 5.28627L72.484 6.70516C74.8061 7.97118 75.4261 8.93476 77.5595 11.001C82.493 15.7797 85.9214 24.3753 86.4644 32.0718C86.6212 34.292 86.9815 40.0691 86.6294 44.0675C86.8005 57.2801 89.226 64.6759 90.4803 68.3161C91.4652 70.9652 91.9794 73.767 91.9998 76.5943C92.0421 81.5391 85.5292 89.026 78.4864 86.4895C78.4864 86.4895 58.2268 84.4128 50.6499 83.9222C43.073 83.4315 31.1682 86.2953 31.1682 86.2953C23.2931 87.9686 17.9541 82.5425 18.0003 77.5982C18.1231 73.9015 18.6473 70.2293 19.5638 66.6466C20.1952 64.2062 20.6394 61.7208 20.8923 59.2122Z" fill="#404040"/>
<path d="M76.8689 83.9634C76.4026 83.8043 68.761 80.2293 68.602 80.1715C66.1873 79.3003 66.2813 77.746 65.9776 76.0109C65.738 74.7031 65.5762 73.3822 65.4929 72.0552C71.7681 69.3919 76.8216 60.9395 77.701 58.5516C77.8333 58.1507 78.1019 57.3948 78.3416 56.5009C78.6633 56.4441 78.8448 56.4163 78.8448 56.4163C79.9184 56.2372 80.9273 55.7826 81.7727 55.0969C82.8132 54.2122 83.6504 53.1134 84.2271 51.8754C85.4508 49.4262 85.9777 46.6876 85.75 43.9591C85.7185 43.2617 85.5407 42.5786 85.2281 41.9544C84.9584 41.502 84.5907 41.1158 84.1522 40.8243C83.7136 40.5327 83.2152 40.3431 82.6938 40.2695C82.1623 40.1917 81.6204 40.2294 81.1049 40.3802C80.5894 40.531 80.1126 40.7912 79.7069 41.1432C79.7069 41.1432 81.8457 20.4346 54.1057 20.4346C28.0201 20.4346 29.6066 41.1428 29.6066 41.1428C29.2009 40.7909 28.724 40.5307 28.2085 40.3799C27.6931 40.2292 27.1511 40.1914 26.6197 40.2692C26.0982 40.3428 25.5998 40.5323 25.1612 40.8239C24.7225 41.1155 24.3548 41.5016 24.085 41.954C23.7727 42.5784 23.595 43.2613 23.5634 43.9587C23.3358 46.6872 23.8626 49.4258 25.0863 51.8751C25.663 53.1131 26.5002 54.212 27.5408 55.0966C28.3861 55.7823 29.395 56.2369 30.4687 56.416C30.4687 56.416 30.8302 56.4713 31.4227 56.5605C32.3522 60.0163 34.0018 63.2364 36.2632 66.0099C38.4432 68.619 40.8771 70.6202 43.5238 71.8806C43.4463 73.2656 43.2811 74.6443 43.0293 76.0083C42.7246 77.746 42.82 79.2978 40.4043 80.1715C40.2445 80.2289 32.6036 83.8029 32.1384 83.9615C32.1384 83.9615 36.1891 97.274 54.3432 97.274C72.4972 97.274 76.8689 83.9634 76.8689 83.9634Z" fill="#FFDBCC"/>
<path d="M52.2147 107.914H43.9756C43.9756 103.821 43.9799 96.9855 44.015 92.8297C47.3729 94.1444 50.9636 94.7609 54.5677 94.6415C58.1718 94.5221 61.7138 93.6693 64.9774 92.1353C65.0189 96.1397 65.0189 103.542 65.0189 107.914H52.2147Z" fill="#FF00C7"/>
<path d="M43.7451 93.805C49.2133 95.9059 55.2061 96.2222 60.865 94.7087C62.4516 94.275 63.9984 93.7066 65.4883 93.0098C65.7185 92.8729 65.8856 92.651 65.9535 92.392C66.0215 92.1329 65.9849 91.8576 65.8516 91.6253C65.7117 91.3984 65.4896 91.2342 65.2317 91.1669C64.9737 91.0995 64.6998 91.1343 64.4668 91.2638C61.3134 92.7083 57.9021 93.5049 54.4351 93.6066C50.9681 93.7084 47.516 93.113 44.2834 91.8559C44.0246 91.7866 43.749 91.8219 43.5161 91.9541C43.2831 92.0864 43.1115 92.3049 43.0384 92.5626C42.973 92.8213 43.01 93.0952 43.1417 93.3272C43.2733 93.5592 43.4895 93.7314 43.7451 93.8079V93.805Z" fill="#211715"/>
<path d="M83.6442 24.6673C83.5499 24.1164 83.4533 23.6067 83.3597 23.1491C80.7636 10.4183 67.9417 0.313554 54.4958 1.05169C41.0489 0.313554 28.228 10.4183 25.6319 23.1484C24.9285 26.5824 25.0127 32.4561 25.6522 35.1971L26.9394 40.2394C27.9123 40.1784 28.87 40.503 29.6053 41.1431C34.919 37.456 43.9335 31.0532 48.6009 27.0397C48.217 29.4222 46.8528 33.474 48.5712 33.0575C55.7462 31.3948 62.6225 28.046 66.7806 22.8187C67.6568 25.905 69.1053 30.0743 70.1694 31.8965C71.675 34.4749 76.038 40.2759 79.7056 41.1431C80.1112 40.7911 80.5881 40.5308 81.1036 40.38C81.6191 40.2293 82.161 40.1915 82.6924 40.2694C82.8497 40.2928 83.0053 40.3267 83.158 40.3709C85.0265 36.043 84.3975 29.0546 83.6442 24.6673Z" fill="#404040"/>
<path d="M65.9113 23.4619C66.4347 25.2531 67.0171 27.0286 67.6793 28.7735C68.17 30.1763 68.7935 31.529 69.5413 32.8133C71.0727 35.3368 72.9663 37.6217 75.1615 39.595C76.3985 40.6794 77.814 41.7176 79.4374 42.1188C80.7026 42.4315 81.2415 40.4799 79.9756 40.1669C79.4348 40.0428 78.9193 39.8263 78.452 39.5271C77.8757 39.1892 77.3313 38.7997 76.8254 38.3635C75.6853 37.3767 74.6351 36.2906 73.687 35.1181C72.8694 34.1302 72.1146 33.0919 71.4271 32.0094C70.7712 30.9393 70.2213 29.8077 69.7853 28.6307C69.0569 26.7601 68.4275 24.8489 67.8647 22.9226C67.5004 21.6748 65.5462 22.2055 65.9128 23.4605L65.9113 23.4619Z" fill="#211715"/>
<path d="M66.1375 22.0115C63.7402 25.04 60.5729 27.3053 57.1284 29.005C55.3049 29.8956 53.4132 30.6392 51.4713 31.2288C50.5211 31.5216 49.5616 31.7831 48.5929 32.0132C48.4736 32.0414 48.3546 32.0714 48.2343 32.0956C48.4638 32.0494 48.394 32.07 48.3192 32.0747C48.4747 32.0649 48.4537 32.0631 48.5849 32.1469C48.7844 32.2764 48.7378 32.2738 48.6771 32.2167C48.8578 32.3862 48.7888 32.3364 48.7219 32.2507C48.8018 32.353 48.8123 32.4314 48.7646 32.328C48.7367 32.268 48.7284 32.0483 48.7526 32.3338C48.7465 32.2579 48.74 32.1827 48.7378 32.1065C48.7389 31.3753 48.8381 30.6475 49.0328 29.9427C49.2171 29.065 49.4304 28.1924 49.5772 27.3071C49.6287 27.0934 49.6099 26.8688 49.5235 26.6666C49.4372 26.4644 49.2879 26.2955 49.0979 26.1849C48.9079 26.0743 48.6873 26.028 48.4689 26.0528C48.2505 26.0775 48.0458 26.1721 47.8854 26.3225C43.1949 30.3486 38.0981 33.9265 33.0559 37.4921C31.7387 38.4245 30.4183 39.35 29.0948 40.2686C28.8682 40.4088 28.7042 40.6307 28.6365 40.8884C28.5689 41.1462 28.6029 41.42 28.7315 41.6534C28.869 41.8831 29.0911 42.0496 29.3501 42.1172C29.609 42.1848 29.8842 42.1481 30.1163 42.0149C35.37 38.3698 40.5901 34.6617 45.6385 30.7368C46.8845 29.7677 48.119 28.7823 49.3169 27.7539L47.6252 26.7693C47.3465 28.4592 46.7685 30.1357 46.7146 31.8567C46.694 32.5196 46.8003 33.2455 47.3179 33.7114C48.1132 34.4268 49.2515 33.9449 50.1443 33.7114C54.4499 32.5836 58.6914 30.8503 62.3449 28.281C64.3101 26.9281 66.0696 25.2985 67.5689 23.4426C67.7512 23.2488 67.8526 22.9929 67.8526 22.7269C67.8526 22.4609 67.7512 22.2049 67.5689 22.0111C67.2169 21.6591 66.4784 21.5803 66.1375 22.0111V22.0115Z" fill="#211715"/>
<path d="M80.4216 41.859C80.8465 41.509 81.3683 41.2971 81.917 41.2519C82.4657 41.2067 83.0151 41.3302 83.4916 41.606C84.6921 42.3087 84.7705 43.7351 84.7889 44.9934C84.8309 47.8187 84.0194 50.9013 82.2615 53.1577C81.3682 54.3605 80.0494 55.1768 78.5744 55.44C78.3167 55.5131 78.0982 55.6847 77.9659 55.9177C77.8337 56.1506 77.7984 56.4262 77.8678 56.685C77.9444 56.9404 78.1165 57.1564 78.3484 57.2881C78.5803 57.4198 78.8541 57.457 79.1127 57.392C82.8124 56.7717 85.0221 53.3005 86.0754 49.9817C86.6279 48.2421 86.8733 46.4196 86.8006 44.5957C86.7199 42.7045 86.2471 40.8783 84.5117 39.8604C83.6465 39.3683 82.6493 39.1586 81.6592 39.2605C80.669 39.3624 79.7355 39.7709 78.9887 40.429C78.801 40.62 78.6959 40.877 78.6959 41.1447C78.6959 41.4125 78.801 41.6695 78.9887 41.8605C79.181 42.0455 79.4375 42.1488 79.7044 42.1488C79.9713 42.1488 80.2278 42.0455 80.4201 41.8605L80.4216 41.859Z" fill="#211715"/>
<path d="M77.7941 53.637C77.7316 54.7469 77.5235 55.8439 77.1753 56.8997C77.0563 57.294 76.9258 57.6844 76.795 58.0748C76.7628 58.171 76.7314 58.2671 76.6952 58.364C76.6793 58.4063 76.6591 58.4479 76.645 58.4909C76.5871 58.6611 76.7567 58.244 76.6594 58.4565C76.1639 59.5222 75.5983 60.5538 74.9663 61.5446C73.1607 64.409 71.0153 67.0774 68.2949 69.205C66.8576 70.3779 65.1812 71.222 63.3831 71.6783C62.1136 71.9674 62.6508 73.9194 63.921 73.6302C67.641 72.7815 70.7554 70.0878 73.2052 67.2831C75.2698 64.9981 76.9956 62.4284 78.3295 59.6527C79.2099 57.7631 79.7156 55.7208 79.8184 53.6388C79.8582 52.3357 77.8339 52.3375 77.7941 53.6388V53.637Z" fill="#211715"/>
<path d="M30.3211 40.4271C29.6618 39.8439 28.8539 39.4547 27.9869 39.3029C27.12 39.151 26.2279 39.2424 25.4097 39.5668C24.5953 39.894 23.8925 40.4489 23.3854 41.1652C22.8789 41.983 22.5933 42.9183 22.5565 43.8795C22.2131 47.3982 23.1711 51.3292 25.3002 54.1798C26.5031 55.7909 28.1761 57.0536 30.1956 57.3923C30.4542 57.4556 30.7271 57.4176 30.9586 57.2861C31.19 57.1547 31.3625 56.9397 31.4406 56.6852C31.5098 56.4264 31.4744 56.1508 31.3421 55.9179C31.2098 55.6849 30.9912 55.5134 30.7335 55.4403C27.8988 54.965 26.2328 52.4382 25.3377 49.9007C24.8471 48.5283 24.5729 47.0879 24.5251 45.6313C24.489 44.3914 24.4257 42.7235 25.469 41.8473C25.9528 41.4546 26.5574 41.2412 27.1806 41.2432C27.8037 41.2453 28.407 41.4626 28.8882 41.8585C29.0811 42.0424 29.3374 42.145 29.6039 42.145C29.8704 42.145 30.1267 42.0424 30.3196 41.8585C30.5073 41.6676 30.6124 41.4105 30.6124 41.1428C30.6124 40.8751 30.5073 40.6181 30.3196 40.4271H30.3211Z" fill="#211715"/>
<path d="M29.6404 53.2484C30.2302 56.9748 31.5192 60.5561 33.4395 63.8035C35.6149 67.3579 38.7731 70.5704 42.4941 72.4978C44.432 73.5044 46.5432 74.1342 48.7159 74.354C48.9838 74.3523 49.2402 74.2451 49.4297 74.0556C49.6191 73.8662 49.7263 73.6097 49.728 73.3418C49.7222 73.0752 49.6137 72.8211 49.4251 72.6326C49.2366 72.444 48.9825 72.3355 48.7159 72.3297C45.1944 71.9682 41.9624 70.197 39.3735 67.8199C36.4509 65.1361 34.2401 61.7689 32.9392 58.0203C32.345 56.29 31.8941 54.5137 31.5909 52.7095C31.5177 52.4517 31.3461 52.2331 31.1131 52.1008C30.8801 51.9686 30.6045 51.9332 30.3456 52.0024C30.0901 52.0789 29.874 52.251 29.7423 52.483C29.6107 52.7149 29.5736 52.9888 29.6389 53.2473L29.6404 53.2484Z" fill="#211715"/>
<path d="M42.5052 71.9573C42.4406 73.0596 42.3169 74.1577 42.1347 75.2467C42.0143 75.9715 41.9345 76.7143 41.7642 77.429C41.7281 77.5833 41.6829 77.7344 41.6326 77.8844C41.5379 78.1686 41.7234 77.7207 41.5925 77.9896C41.565 78.046 41.5365 78.102 41.5057 78.157C41.4594 78.2405 41.4086 78.3215 41.3536 78.3995C41.3792 78.3634 41.462 78.2741 41.329 78.4263C41.2208 78.5515 41.0997 78.6648 40.9675 78.7643C40.5681 79.0078 40.1468 79.2135 39.7092 79.3788C37.7934 80.2481 35.8895 81.15 33.9769 82.0302C33.4651 82.2654 32.9527 82.4995 32.4399 82.7326C32.2683 82.8099 32.0964 82.8867 31.9241 82.9628C31.8344 83.0026 31.5695 83.1255 31.9631 82.948C31.9313 82.9625 31.8984 82.9747 31.8659 82.9863C31.6107 83.0633 31.395 83.2356 31.2633 83.4673C31.1317 83.6991 31.0943 83.9726 31.1588 84.2312C31.2322 84.4888 31.4038 84.7072 31.6366 84.8395C31.8695 84.9717 32.145 85.0072 32.4038 84.9383C33.1484 84.6744 33.8674 84.2974 34.5842 83.9684C35.7573 83.4303 36.929 82.889 38.0992 82.3443C38.962 81.9445 39.8231 81.5408 40.6881 81.146C40.82 81.086 41.0582 80.9093 40.6653 81.1497C41.0825 80.8948 41.5766 80.795 41.989 80.5116C42.7087 80.0268 43.2559 79.3261 43.5521 78.5105C43.7855 77.7277 43.9456 76.9249 44.0303 76.1125C44.2739 74.7372 44.4403 73.3494 44.5288 71.9555C44.5288 71.6871 44.4221 71.4296 44.2323 71.2398C44.0425 71.05 43.7851 70.9434 43.5166 70.9434C43.2482 70.9434 42.9908 71.05 42.801 71.2398C42.6111 71.4296 42.5045 71.6871 42.5045 71.9555L42.5052 71.9573Z" fill="#211715"/>
<path d="M64.4805 72.0561C64.5616 73.3038 64.7069 74.5465 64.916 75.7793C65.0408 76.5362 65.1185 77.3177 65.3097 78.0617C65.4951 78.8485 65.9093 79.5629 66.5 80.1149C66.8528 80.4294 67.2514 80.6884 67.6821 80.883C67.9057 80.9584 68.1243 81.0479 68.3367 81.1508C68.036 80.9614 68.0714 81.0348 68.187 81.0894C70.1155 82.0072 72.0635 82.8874 74.0036 83.7802C74.8567 84.1728 75.7123 84.6268 76.599 84.9409C76.8578 85.0097 77.1332 84.9741 77.3661 84.8419C77.599 84.7097 77.7707 84.4913 77.8443 84.2339C77.9102 83.9752 77.8734 83.7011 77.7416 83.4689C77.6098 83.2368 77.3932 83.0648 77.1372 82.989C76.891 82.9018 77.3758 83.0974 77.1459 82.9947C76.9948 82.9275 76.8433 82.8614 76.6922 82.7934C76.274 82.6054 75.8569 82.4142 75.4397 82.223C74.3206 81.7094 73.2028 81.1929 72.0863 80.6733C71.2144 80.2688 70.3436 79.8625 69.4703 79.4613C69.2173 79.3449 68.961 79.2422 68.704 79.136C68.3753 79.0067 68.0737 78.8172 67.8147 78.5771C67.7544 78.5175 67.6965 78.4557 67.6419 78.3906C67.527 78.2532 67.7529 78.575 67.5957 78.3223C67.5537 78.2547 67.5125 78.1878 67.4749 78.1177C67.4543 78.0815 67.3304 77.7888 67.4026 77.9753C67.1813 77.248 67.0308 76.5009 66.9533 75.7446C66.738 74.5245 66.5884 73.2937 66.5051 72.0575C66.4992 71.791 66.3907 71.5369 66.2021 71.3484C66.0136 71.1598 65.7595 71.0513 65.493 71.0454C65.2253 71.0478 64.9692 71.1552 64.7799 71.3445C64.5906 71.5338 64.4832 71.7898 64.4808 72.0575L64.4805 72.0561Z" fill="#211715"/>
<path d="M104.072 107.995C103.151 106.09 102.368 104.116 101.31 102.278C100.373 100.651 98.6465 96.7473 95.1305 93.6303C93.2678 91.9787 88.6907 88.6314 81.7146 85.3828C80.1172 84.6389 78.2636 83.7439 76.4504 82.9346C75.7513 84.9841 73.8543 86.7612 71.7874 87.7277C69.8918 88.6191 67.8054 89.062 65.7189 89.4538C65.5046 89.487 65.3091 89.5956 65.1678 89.7602C65.0265 89.9248 64.9486 90.1344 64.9482 90.3513C65.0166 93.4051 65.0166 102.762 65.0166 107.914" fill="#FF85F3"/>
<path d="M43.9758 107.914C43.9758 102.781 43.9823 93.3358 44.0506 90.2632C44.0494 90.0459 43.9714 89.836 43.8304 89.6706C43.6893 89.5052 43.4944 89.395 43.2799 89.3595C41.1935 88.9738 39.107 88.531 37.2115 87.6396C35.1738 86.6861 33.2996 84.943 32.577 82.9224C30.7577 83.7346 28.8924 84.6354 27.286 85.3833C20.3095 88.6319 15.7329 91.9792 13.8706 93.6307C10.3541 96.7485 8.62915 100.651 7.69111 102.278C6.63307 104.117 5.84758 106.09 4.92871 107.996" fill="#FF85F3"/>
<path d="M75.4914 82.6213C74.8209 84.5545 73.0797 86.003 71.2788 86.8539C70.1411 87.3616 68.9532 87.748 67.7345 88.0066C67.1399 88.1458 66.5416 88.268 65.9419 88.3833C65.305 88.5062 64.7429 88.6584 64.3301 89.2006C64.0244 89.6464 63.8879 90.1867 63.9455 90.7242C63.9564 91.2939 63.9629 91.8639 63.9683 92.434C63.9765 93.3124 63.9826 94.1908 63.9867 95.0692C63.9971 97.1462 64.0029 99.2231 64.0041 101.3C64.007 103.505 64.0079 105.71 64.007 107.915C64.007 109.216 66.0312 109.22 66.0312 107.915C66.0312 103.891 66.0257 99.865 66.0146 95.8384C66.0105 94.9511 66.0053 94.0639 65.9991 93.1768C65.9959 92.771 65.9922 92.3653 65.9879 91.9597C65.9847 91.6653 65.9807 91.3707 65.9759 91.0759C65.9742 90.9588 65.9722 90.8419 65.9698 90.7253C65.9698 90.6664 65.9741 90.3179 65.9532 90.3902C65.9224 90.4986 65.7601 90.4397 65.9893 90.4296C66.3206 90.3906 66.6487 90.3273 66.9707 90.2402C67.569 90.1202 68.1654 89.9911 68.7571 89.8426C70.0224 89.5371 71.2525 89.101 72.4276 88.5413C74.6687 87.4463 76.6167 85.5432 77.4434 83.16C77.5148 82.9011 77.4804 82.6245 77.3478 82.391C77.2153 82.1575 76.9954 81.9862 76.7365 81.9148C76.4777 81.8435 76.2011 81.8778 75.9676 82.0104C75.7341 82.143 75.5628 82.3629 75.4914 82.6217V82.6213Z" fill="#211715"/>
<path d="M31.5572 83.0673C32.3651 85.4089 34.2571 87.289 36.4465 88.3915C37.7039 89.0044 39.0265 89.4735 40.3892 89.7897C40.9852 89.9361 41.5857 90.0626 42.1875 90.1804C42.4963 90.2696 42.8122 90.3323 43.1317 90.3677C43.0044 90.3677 43.0623 90.1725 43.0355 90.385C42.9893 91.0426 42.9801 91.7022 43.0081 92.3608C42.9994 93.2493 42.9929 94.1379 42.9885 95.0264C42.9772 97.1049 42.9705 99.1833 42.9683 101.262C42.9644 103.479 42.9628 105.697 42.9632 107.916C42.9632 109.217 44.9875 109.22 44.9875 107.916C44.9875 103.817 44.995 99.7185 45.0099 95.6195C45.0179 93.9839 45.0251 92.3482 45.0537 90.7125C45.0982 90.2704 45.0318 89.8241 44.8606 89.4141C44.6961 89.1128 44.4607 88.856 44.1748 88.6659C43.8889 88.4759 43.561 88.3582 43.2195 88.3231C41.8492 88.0862 40.4965 87.7563 39.171 87.3356C36.8091 86.5465 34.3634 85.0001 33.5106 82.528C33.4339 82.2726 33.2616 82.0567 33.0298 81.9251C32.7979 81.7935 32.5243 81.7563 32.2657 81.8213C32.0083 81.8948 31.7899 82.0664 31.6577 82.2992C31.5255 82.532 31.4899 82.8074 31.5587 83.0662L31.5572 83.0673Z" fill="#211715"/>
<path d="M36.1068 80.4026C33.078 81.4657 30.1898 82.908 27.2867 84.2704C24.3265 85.6322 21.4533 87.1758 18.6836 88.8922C16.8735 90.0093 15.1438 91.2517 13.5073 92.6104C11.3934 94.467 9.61696 96.6757 8.25681 99.1386C7.70339 100.102 7.19226 101.089 6.65258 102.059C5.67659 103.814 4.92364 105.678 4.05465 107.485C3.92615 107.719 3.89219 107.992 3.9598 108.25C4.0274 108.508 4.19141 108.73 4.41793 108.87C4.65005 109.003 4.92527 109.04 5.1843 108.973C5.44332 108.905 5.66542 108.738 5.80275 108.508C6.551 106.954 7.21251 105.354 8.00559 103.82C8.49322 102.876 9.01772 101.947 9.52813 101.014C10.8504 98.5921 12.4066 96.3148 14.467 94.455C14.7435 94.2056 15.028 93.9648 15.3168 93.7295C15.4679 93.6061 15.6205 93.4844 15.7744 93.3644C15.8178 93.3302 15.8614 93.2961 15.9053 93.2621C15.7506 93.3807 15.8749 93.2856 15.9053 93.2621C16.0004 93.1898 16.0951 93.1175 16.1905 93.0452C17.0758 92.3812 17.9867 91.7515 18.9135 91.1475C21.5062 89.4688 24.2058 87.9613 26.995 86.6348C30.1569 85.1198 33.331 83.5171 36.6436 82.3545C36.8988 82.2776 37.1146 82.1054 37.2462 81.8736C37.3777 81.6418 37.415 81.3682 37.3503 81.1096C37.2769 80.8521 37.1053 80.6336 36.8725 80.5014C36.6396 80.3691 36.3641 80.3336 36.1053 80.4026H36.1068Z" fill="#211715"/>
<path d="M72.3556 82.3544C75.2648 83.3756 78.0308 84.772 80.8203 86.0776C83.7176 87.4118 86.5298 88.9234 89.2409 90.604C90.2458 91.2359 91.2337 91.8952 92.1956 92.5921C92.3901 92.7324 92.5829 92.8744 92.774 93.0183C92.8582 93.0812 92.9421 93.1452 93.027 93.2085L93.1658 93.3147C93.0035 93.1904 93.1615 93.3118 93.1947 93.3375C93.4962 93.575 93.7955 93.815 94.0883 94.0637C96.092 95.8234 97.7723 97.9201 99.0532 100.259C99.6124 101.239 100.14 102.238 100.682 103.228C101.619 104.939 102.354 106.75 103.199 108.505C103.336 108.735 103.558 108.902 103.817 108.969C104.076 109.037 104.351 109 104.583 108.867C104.811 108.728 104.976 108.506 105.044 108.248C105.111 107.989 105.077 107.715 104.947 107.482C102.494 102.382 100.222 96.8254 95.9062 92.9659C94.4156 91.6698 92.8294 90.4879 91.1611 89.4303C88.5031 87.7064 85.7325 86.1626 82.8681 84.8092C79.5971 83.2505 76.3185 81.6022 72.8946 80.3992C72.7664 80.3639 72.6325 80.3541 72.5006 80.3705C72.3687 80.387 72.2413 80.4292 72.1257 80.4949C72.0101 80.5605 71.9085 80.6483 71.8269 80.7532C71.7452 80.8581 71.685 80.978 71.6497 81.1062C71.6143 81.2344 71.6046 81.3683 71.621 81.5002C71.6375 81.6321 71.6797 81.7595 71.7453 81.8751C71.811 81.9907 71.8988 82.0923 72.0037 82.1739C72.1086 82.2556 72.2285 82.3158 72.3567 82.3511L72.3556 82.3544Z" fill="#211715"/>
<path d="M50.3602 61.0897C51.8113 61.8385 53.427 62.2113 55.0594 62.1741C56.719 62.1633 58.4212 61.8488 59.755 60.8095C60.1866 60.473 60.1078 59.7309 59.755 59.3781C59.562 59.1943 59.3058 59.0918 59.0393 59.0918C58.7728 59.0918 58.5165 59.1943 58.3236 59.3781C58.6153 59.1507 58.3366 59.3607 58.2621 59.4088C58.1657 59.4707 58.0663 59.5282 57.9639 59.5812C57.9046 59.6123 57.5735 59.7594 57.7973 59.6687C57.6621 59.7237 57.5249 59.7735 57.3859 59.8184C56.5829 60.0659 55.7442 60.1779 54.9044 60.1498C54.1031 60.1644 53.3044 60.0568 52.5356 59.8307C52.3849 59.7858 52.2381 59.7323 52.0895 59.681C52.0411 59.664 51.9938 59.6427 51.945 59.625C52.1915 59.7164 51.9728 59.6373 51.9265 59.6156C51.7418 59.5292 51.5603 59.4381 51.38 59.343C51.1471 59.2131 50.873 59.1782 50.6149 59.2455C50.3569 59.3129 50.1348 59.4773 49.9951 59.7045C49.8624 59.9368 49.826 60.2118 49.8935 60.4706C49.9611 60.7294 50.1273 60.9515 50.3566 61.0893L50.3602 61.0897Z" fill="#211715"/>
<path d="M54.6558 49.8755C54.8779 50.6771 55.0556 51.4904 55.1882 52.3115L55.1521 52.0426C55.1679 52.1539 55.171 52.2667 55.1611 52.3788L55.1973 52.1098C55.1902 52.1612 55.178 52.2118 55.1611 52.2609L55.2631 52.0191C55.2483 52.0531 55.2305 52.0858 55.2099 52.1167L55.3679 51.9117C55.3443 51.9407 55.3177 51.967 55.2884 51.9902L55.4933 51.8318C55.4314 51.8703 55.3669 51.9044 55.3003 51.9341L55.5421 51.8318C55.4379 51.8766 55.3287 51.9085 55.2168 51.9269L55.4861 51.8908C55.3846 51.9027 55.2821 51.9027 55.1807 51.8908L55.4496 51.9269C55.3346 51.911 55.2215 51.8828 55.1066 51.8676C54.8428 51.8059 54.5656 51.8421 54.3265 51.9696C54.0949 52.1053 53.9268 52.3274 53.859 52.5871C53.7912 52.8468 53.8293 53.1228 53.965 53.3544C54.0291 53.4688 54.1157 53.5691 54.2197 53.649C54.3236 53.729 54.4427 53.787 54.5698 53.8196C54.8109 53.8518 55.0447 53.914 55.2895 53.9248C55.6485 53.9274 56.0031 53.8444 56.3236 53.6826C56.5226 53.595 56.6991 53.4635 56.84 53.298C56.9809 53.1325 57.0826 52.9372 57.1373 52.7269C57.2091 52.378 57.2051 52.0178 57.1258 51.6706C56.9931 50.8859 56.8116 50.108 56.6099 49.338C56.5386 49.0792 56.3673 48.8593 56.1338 48.7267C55.9003 48.5942 55.6237 48.5598 55.3648 48.6312C55.106 48.7025 54.8861 48.8738 54.7535 49.1073C54.621 49.3408 54.5866 49.6174 54.658 49.8763L54.6558 49.8755Z" fill="#211715"/>
<path d="M41.5459 43.0394C41.1388 44.3614 41.4042 47.4028 43.9088 47.6616C47.2192 47.6418 47.3953 43.9648 46.2808 42.2359C45.3685 40.8203 42.6856 40.2326 41.5459 43.0394Z" fill="#211715"/>
<path d="M68.0553 43.0394C68.4623 44.3617 68.197 47.4028 65.6923 47.6616C62.3819 47.6418 62.2055 43.9645 63.32 42.2359C64.2323 40.8203 66.9152 40.2326 68.0553 43.0394Z" fill="#211715"/>
<path d="M69.0496 3.83291C64.0766 1.76729 58.7307 0.811945 53.3687 1.03059C47.8264 1.32718 42.4271 2.93887 37.5966 5.73857C34.0142 7.7056 30.8911 10.4456 28.4428 13.7695C25.9173 17.412 24.066 21.4985 22.9809 25.8259C21.4282 31.9884 20.7823 38.3538 21.0644 44.7118C21.1187 46.4255 23.7248 46.4333 23.6705 44.7118C23.3778 35.1367 24.5299 24.7846 29.7187 16.5624C31.6874 13.4797 34.3027 10.886 37.374 8.9703C41.645 6.19885 46.4692 4.446 51.4902 3.84125C57.2325 3.2703 63.0239 4.15096 68.3569 6.40605C68.6901 6.49778 69.0453 6.45131 69.3453 6.27672C69.6454 6.10213 69.8663 5.81347 69.9601 5.47324C70.0434 5.13212 69.9952 4.77126 69.8257 4.46553C69.6562 4.1598 69.3783 3.93266 69.0496 3.83124V3.83291Z" fill="#211715"/>
<path d="M20.6872 44.2755C20.6833 48.6198 20.5508 52.9707 20.1486 57.2974C19.9254 60.1922 19.4675 63.0646 18.7794 65.887C17.8291 69.4178 17.2418 73.0344 17.0264 76.6817C16.9163 78.196 17.1514 79.7154 17.7146 81.1279C18.2778 82.5404 19.1547 83.81 20.2806 84.8432C23.4607 87.7638 27.8562 88.5172 32.0183 87.6785C32.3602 87.5853 32.6506 87.3619 32.8257 87.0572C33.0007 86.7525 33.0462 86.3916 32.9519 86.0539C32.8576 85.7161 32.6315 85.4292 32.3231 85.2562C32.0147 85.0833 31.6494 85.0384 31.3076 85.1315C28.2322 85.7507 24.8293 85.2658 22.4163 83.1933C21.4472 82.3755 20.6779 81.3519 20.1659 80.1989C19.7008 78.9893 19.5461 77.6847 19.7158 76.4016C19.9531 73.0464 20.5127 69.721 21.3869 66.4703C22.0474 63.7093 22.5013 60.9041 22.7449 58.0772C23.2095 53.4935 23.3576 48.8806 23.3576 44.276C23.3576 42.576 20.6839 42.5733 20.6839 44.276L20.6872 44.2755Z" fill="#211715"/>
<path d="M86.0348 44.2665C86.1354 51.3232 86.855 58.4508 88.8327 65.2484C89.6042 67.9015 90.6809 70.4678 91.126 73.2071C91.2964 74.2717 91.3782 75.3485 91.3704 76.4266C91.3766 77.0117 91.2842 77.5937 91.097 78.1482C90.6715 79.4961 89.9701 80.7411 89.0372 81.8043C86.6729 84.5474 83.1772 86.1844 79.599 84.9468C77.9996 84.3935 77.3129 86.9227 78.9013 87.4722C82.614 88.7568 86.4728 87.589 89.3997 85.1318C91.8521 83.073 93.8938 79.8977 93.9928 76.6231C94.1022 72.9506 92.9457 69.556 91.8428 66.1171C91.0349 63.5849 90.3923 61.0032 89.9192 58.3881C89.1091 53.7232 88.6884 48.9992 88.6616 44.2648C88.6381 42.5809 86.0135 42.5759 86.037 44.2648L86.0348 44.2665Z" fill="#211715"/>
<path d="M65.0614 23.5911C66.1723 27.2377 67.0774 31.0374 69.0119 34.3722C70.7215 37.4746 72.8675 40.3292 75.3877 42.8531C76.7543 44.2729 78.4643 45.3365 80.3614 45.9466C82.0051 46.3932 82.7067 43.9043 81.0652 43.4588C78.182 42.6752 75.8069 39.7064 74.0777 37.3421C72.2473 34.9782 70.7755 32.3699 69.7074 29.5976C68.9286 27.3941 68.2954 25.1406 67.6141 22.9053C67.1304 21.3172 64.5743 21.9917 65.0614 23.5911Z" fill="#211715"/>
<path d="M64.7528 21.4015C62.0995 25.0111 58.8189 28.0835 55.0772 30.4628C53.236 31.6076 51.2856 32.5552 49.2564 33.2906C48.7434 33.476 48.226 33.649 47.7045 33.8094C47.5612 33.8407 47.4204 33.883 47.2832 33.9357C47.1754 33.9925 47.0836 33.8862 47.4104 33.9226C47.5555 33.9312 47.6971 33.9722 47.8253 34.0427C47.9535 34.1133 48.0653 34.2116 48.1529 34.331C48.3597 34.5944 48.1573 34.4613 48.1623 34.2605C48.1556 34.554 48.1689 34.2855 48.1678 34.1405C48.1663 33.7779 48.1848 33.4155 48.2231 33.0551C48.3016 32.303 48.5134 31.2148 48.682 30.3246C48.8694 29.3302 49.053 28.337 49.1746 27.3307C49.3239 26.0974 47.658 25.611 46.9078 26.3636C40.9515 32.3685 34.5142 37.8471 28.4131 43.6916C27.1603 44.8913 29.0401 46.8203 30.2896 45.6223C36.3907 39.7778 42.828 34.302 48.7843 28.2949L46.5174 27.3278C46.5462 27.0935 46.4715 27.6378 46.4572 27.726C46.424 27.9323 46.389 28.1382 46.3521 28.3438C46.262 28.8484 46.1652 29.3507 46.0707 29.8541C45.8761 30.8906 45.6903 31.9287 45.5731 32.9783C45.3967 34.5739 45.6898 37.0502 47.8648 36.5945C49.0293 36.3048 50.1671 35.9112 51.2651 35.4181C52.4252 34.9475 53.561 34.4159 54.6681 33.8253C56.8759 32.6264 58.953 31.1885 60.8643 29.5361C62.9986 27.6872 64.9314 25.6053 66.6287 23.327C66.8672 23.0655 67 22.7203 67 22.3617C67 22.0031 66.8672 21.6579 66.6287 21.3963C66.3788 21.1424 66.0417 21 65.6905 21C65.3392 21 65.0021 21.1424 64.7522 21.3963L64.7528 21.4015Z" fill="#211715"/>
<path d="M88.8428 44.6789C89.0407 41.8177 89.0518 38.9467 88.8759 36.0841C88.8012 33.5187 88.5489 30.9617 88.1208 28.4312C87.0333 22.6209 84.643 16.8024 80.8158 12.2525C79.7979 11.0423 78.632 9.95464 77.5109 8.84104C76.4681 7.79227 75.2831 6.89522 73.9906 6.17623C72.4963 5.35233 71.1582 7.63914 72.6536 8.46358C74.838 9.66714 76.6116 11.5621 78.2892 13.3826C80.1004 15.4192 81.5925 17.7183 82.7148 20.2017C83.9307 22.8092 84.8365 25.5504 85.4136 28.3689C85.8605 30.727 86.1229 33.1163 86.1986 35.5151C86.4026 38.5653 86.4008 41.6257 86.1931 44.6756C86.196 45.026 86.3365 45.3612 86.5843 45.6089C86.8322 45.8567 87.1675 45.9971 87.5179 46C87.8672 45.9932 88.2003 45.8515 88.4473 45.6046C88.6943 45.3577 88.836 45.0247 88.8428 44.6756V44.6789Z" fill="#211715"/>
</g>
<defs>
<clipPath id="clip0_256_4">
<rect width="109" height="109" fill="white"/>
</clipPath>
</defs>
</svg>
