<?xml version="1.0" encoding="utf-8"?>
<!-- Generator: Adobe Illustrator 23.0.0, SVG Export Plug-In . SVG Version: 6.00 Build 0)  -->
<svg version="1.1" id="Layer_1" xmlns="http://www.w3.org/2000/svg" xmlns:xlink="http://www.w3.org/1999/xlink" x="0px" y="0px"
	 viewBox="0 0 500 500" style="enable-background:new 0 0 500 500;" xml:space="preserve">
<style type="text/css">
	.st0{fill:#83E1E5;}
	.st1{fill:#AAB1BA;}
	.st2{fill:#FDDF7F;}
	.st3{fill:#ECF4F7;}
	.st4{fill:#1C1D21;}
</style>
<g>
	<g>
		<path class="st2" d="M357.395,160.35h-61.374l-30.471,27.947c-1.873,1.717-4.295,2.63-6.761,2.631
			c-1.043,0-2.093-0.163-3.113-0.498c-3.435-1.125-5.995-4.017-6.696-7.563l-7.972-40.32l-12.4,15.183
			c-1.899,2.325-4.743,3.674-7.745,3.674h-66.239c-0.36,3.493-0.547,7.038-0.547,10.626c0,56.449,45.664,102.209,101.992,102.209
			s101.992-45.76,101.992-102.209C358.062,168.08,357.83,164.184,357.395,160.35z"/>
	</g>
</g>
<g>
	<g>
		<path class="st3" d="M370.143,140.35h-78.014c-2.503,0-4.915,0.938-6.76,2.63l-20.222,18.547l-8.639-43.695
			c-0.752-3.799-3.629-6.823-7.387-7.762c-3.751-0.939-7.718,0.376-10.169,3.376l-22.835,27.958h-74.122c-5.522,0-10,4.477-10,10
			s4.478,10,10,10h78.866c3.002,0,5.846-1.349,7.745-3.674l12.4-15.183l7.972,40.32c0.701,3.546,3.262,6.438,6.696,7.563
			c1.021,0.334,2.07,0.498,3.113,0.498c2.466,0,4.888-0.913,6.761-2.631l30.471-27.947h74.122c5.522,0,10-4.477,10-10
			S375.665,140.35,370.143,140.35z"/>
	</g>
</g>
<g>
	<g>
		<path class="st2" d="M256.069,69.821c-45.681,0-84.346,30.097-97.332,71.583h57.38l22.835-27.958
			c2.451-3,6.418-4.315,10.169-3.376c3.758,0.939,6.635,3.963,7.387,7.762l8.639,43.695l20.222-18.547
			c1.845-1.692,4.257-2.63,6.76-2.63h60.93C339.752,99.411,301.362,69.821,256.069,69.821z"/>
	</g>
</g>
<g>
	<g>
		<rect x="136.118" y="414.403" class="st0" width="239.902" height="80.597"/>
	</g>
</g>
<g>
	<g>
		<path class="st0" d="M342.896,257.94h-31.602c-15.919,10.299-34.868,16.3-55.226,16.3s-39.306-6.001-55.226-16.3h-31.602
			c-33.463,0-60.591,27.185-60.591,60.72v75.634c0,11.106,9.002,20.109,20.106,20.109h4.436h245.752h4.436
			c11.104,0,20.106-9.003,20.106-20.109V318.66C403.487,285.125,376.36,257.94,342.896,257.94z"/>
	</g>
</g>
<g>
	<g>
		<path class="st2" d="M346.199,341.33v22.391H165.711V341.33h-57.06v52.963c0,11.106,9.002,20.109,20.106,20.109h254.624
			c11.104,0,20.106-9.003,20.106-20.109V341.33H346.199z"/>
	</g>
</g>
<path class="st1" d="M311.902,296.639h-21.421c-19.005,0-34.412,15.406-34.412,34.411c0-19.005-15.406-34.411-34.412-34.411h-21.421
	c-19.005,0-34.411,15.406-34.411,34.411v32.671h180.488V331.05C346.313,312.046,330.907,296.639,311.902,296.639z"/>
<rect x="165.825" y="414.403" class="st1" width="180.488" height="80.597"/>
<g>
	<g>
		<polygon class="st2" points="256.069,457.447 165.825,457.447 165.825,495 256.069,495 346.313,495 346.313,457.447 		"/>
	</g>
</g>
<path class="st4" d="M251.069,10.39V5c0-2.761,2.238-5,5-5s5,2.239,5,5v5.39c0,2.761-2.238,5-5,5S251.069,13.152,251.069,10.39z
	 M256.069,55.187c2.762,0,5-2.239,5-5V29.442c0-2.761-2.238-5-5-5s-5,2.239-5,5v20.745
	C251.069,52.948,253.308,55.187,256.069,55.187z M223.281,15.39c2.762,0,5-2.239,5-5V5c0-2.761-2.238-5-5-5s-5,2.239-5,5v5.39
	C218.281,13.152,220.52,15.39,223.281,15.39z M223.281,61.231c2.762,0,5-2.239,5-5V29.442c0-2.761-2.238-5-5-5s-5,2.239-5,5v26.789
	C218.281,58.993,220.52,61.231,223.281,61.231z M190.492,15.39c2.762,0,5-2.239,5-5V5c0-2.761-2.238-5-5-5s-5,2.239-5,5v5.39
	C185.492,13.152,187.73,15.39,190.492,15.39z M190.492,74.821c2.762,0,5-2.239,5-5V29.442c0-2.761-2.238-5-5-5s-5,2.239-5,5v40.379
	C185.492,72.583,187.73,74.821,190.492,74.821z M321.646,15.39c2.762,0,5-2.239,5-5V5c0-2.761-2.238-5-5-5s-5,2.239-5,5v5.39
	C316.646,13.152,318.885,15.39,321.646,15.39z M321.646,74.821c2.762,0,5-2.239,5-5V29.442c0-2.761-2.238-5-5-5s-5,2.239-5,5v40.379
	C316.646,72.583,318.885,74.821,321.646,74.821z M288.857,15.39c2.762,0,5-2.239,5-5V5c0-2.761-2.238-5-5-5s-5,2.239-5,5v5.39
	C283.857,13.152,286.096,15.39,288.857,15.39z M288.857,61.231c2.762,0,5-2.239,5-5V29.442c0-2.761-2.238-5-5-5s-5,2.239-5,5v26.789
	C283.857,58.993,286.096,61.231,288.857,61.231z M114.557,91.818h6.534v6.534c0,2.761,2.238,5,5,5s5-2.239,5-5v-6.534h6.535
	c2.762,0,5-2.239,5-5s-2.238-5-5-5h-6.535v-6.535c0-2.761-2.238-5-5-5s-5,2.239-5,5v6.535h-6.534c-2.762,0-5,2.239-5,5
	S111.795,91.818,114.557,91.818z M374.513,91.818h6.535v6.534c0,2.761,2.238,5,5,5s5-2.239,5-5v-6.534h6.534c2.762,0,5-2.239,5-5
	s-2.238-5-5-5h-6.534v-6.535c0-2.761-2.238-5-5-5s-5,2.239-5,5v6.535h-6.535c-2.762,0-5,2.239-5,5S371.751,91.818,374.513,91.818z
	 M103.651,394.293V318.66c0-36.238,29.424-65.72,65.591-65.72h16.66c-21.05-18.332-34.928-44.793-36.64-74.675
	c-0.157-2.757,1.949-5.12,4.706-5.278c2.758-0.16,5.12,1.948,5.278,4.706c1.832,31.999,19.05,59.675,44.197,75.985
	c0.038,0.023,0.079,0.04,0.116,0.064c10.741,6.948,22.649,11.65,35.093,13.922c0.067,0.012,0.133,0.025,0.2,0.037
	c2.148,0.388,4.313,0.7,6.49,0.941c0.171,0.019,0.342,0.039,0.513,0.057c1.065,0.113,2.132,0.211,3.202,0.288
	c0.059,0.004,0.118,0.007,0.176,0.011c0.973,0.069,1.949,0.118,2.926,0.157c0.264,0.01,0.529,0.021,0.793,0.029
	c1.023,0.033,2.048,0.055,3.074,0.055c0.014,0,0.029,0.001,0.043,0.001s0.029-0.001,0.043-0.001c1.027,0,2.051-0.022,3.074-0.055
	c0.265-0.008,0.529-0.019,0.793-0.029c0.977-0.039,1.953-0.089,2.926-0.157c0.059-0.004,0.118-0.007,0.176-0.011
	c1.07-0.077,2.137-0.175,3.202-0.288c0.171-0.018,0.342-0.038,0.513-0.057c2.177-0.242,4.342-0.554,6.49-0.941
	c0.067-0.012,0.133-0.025,0.2-0.037c12.443-2.272,24.352-6.974,35.093-13.922c0.037-0.024,0.079-0.041,0.116-0.064
	c25.147-16.31,42.365-43.986,44.197-75.985c0.157-2.757,2.517-4.865,5.278-4.706c2.757,0.158,4.863,2.521,4.706,5.278
	c-1.712,29.882-15.59,56.343-36.64,74.675h16.66c36.167,0,65.591,29.482,65.591,65.72v75.637c0,13.844-11.263,25.106-25.106,25.106
	h-2.36v60.694c0,2.761-2.238,5-5,5s-5-2.239-5-5v-60.694h-19.707v60.141c0,2.761-2.238,5-5,5s-5-2.239-5-5v-17.096h-80.244v17.096
	c0,2.761-2.238,5-5,5s-5-2.239-5-5v-17.096h-80.244v17.096c0,2.761-2.238,5-5,5s-5-2.239-5-5v-60.141h-19.707v60.141
	c0,2.761-2.238,5-5,5s-5-2.239-5-5v-60.141h-2.357C114.915,419.403,103.651,408.139,103.651,394.293z M251.069,452.447v-33.044
	h-80.244v33.044H251.069z M341.313,419.403h-80.244v33.044h80.244V419.403z M398.487,394.297V346.33h-47.174v17.391
	c0,2.761-2.238,5-5,5h-0.114h-90.13h-90.244h-0.114c-2.762,0-5-2.239-5-5V346.33h-47.06v47.963c0,8.331,6.778,15.109,15.109,15.109
	h7.357h29.707h90.244h90.244h29.707h7.36C391.711,409.403,398.487,402.626,398.487,394.297z M261.069,358.721h80.13v-30.178
	c-1.277-15.047-13.924-26.904-29.297-26.904H290.48c-16.218,0-29.411,13.194-29.411,29.411V358.721z M251.069,331.05
	c0-16.217-13.193-29.411-29.411-29.411h-21.422c-16.218,0-29.411,13.194-29.411,29.411v27.671h80.244V331.05z M113.651,318.66
	v17.671h47.06v-46.755c0-2.761,2.238-5,5-5s5,2.239,5,5v15.411c7.227-8.177,17.781-13.347,29.525-13.347h21.422
	c14.771,0,27.664,8.173,34.411,20.23c6.748-12.057,19.64-20.23,34.411-20.23h21.422c11.619,0,22.077,5.057,29.297,13.083v-15.147
	c0-2.761,2.238-5,5-5s5,2.239,5,5v38.626c0.068,0.942,0.114,1.89,0.114,2.849v5.28h47.174V318.66
	c0-30.724-24.938-55.72-55.591-55.72h-30.138c-8.365,5.248-17.497,9.366-27.178,12.149c-0.003,0.001-0.006,0.002-0.009,0.003
	c-2.353,0.676-4.738,1.274-7.152,1.79c-0.05,0.011-0.099,0.021-0.148,0.031c-2.355,0.499-4.736,0.923-7.144,1.264
	c-0.108,0.015-0.216,0.029-0.323,0.044c-1.053,0.146-2.112,0.276-3.174,0.391c-0.167,0.018-0.333,0.038-0.5,0.055
	c-1.142,0.118-2.288,0.22-3.44,0.302c-0.147,0.01-0.294,0.017-0.441,0.027c-0.973,0.065-1.95,0.115-2.93,0.154
	c-0.295,0.012-0.59,0.023-0.885,0.032c-1.102,0.034-2.207,0.058-3.317,0.058c-0.016,0-0.031,0.001-0.046,0.001
	s-0.031-0.001-0.046-0.001c-1.11,0-2.215-0.024-3.317-0.058c-0.295-0.009-0.59-0.021-0.885-0.032
	c-0.98-0.039-1.957-0.089-2.93-0.154c-0.147-0.01-0.294-0.017-0.441-0.027c-1.152-0.082-2.298-0.184-3.44-0.302
	c-0.167-0.017-0.333-0.037-0.5-0.055c-1.063-0.115-2.121-0.245-3.175-0.391c-0.107-0.015-0.215-0.028-0.322-0.043
	c-2.407-0.341-4.789-0.764-7.144-1.264c-0.049-0.01-0.099-0.021-0.148-0.031c-2.415-0.516-4.799-1.113-7.152-1.79
	c-0.003-0.001-0.006-0.002-0.009-0.003c-9.682-2.784-18.813-6.902-27.178-12.149h-30.138
	C138.589,262.94,113.651,287.936,113.651,318.66z M446.904,490h-3.813c-2.762,0-5,2.239-5,5s2.238,5,5,5h3.813c2.762,0,5-2.239,5-5
	S449.666,490,446.904,490z M425.932,490H86.207c-2.762,0-5,2.239-5,5s2.238,5,5,5h339.725c2.762,0,5-2.239,5-5
	S428.693,490,425.932,490z M69.047,490h-3.813c-2.762,0-5,2.239-5,5s2.238,5,5,5h3.813c2.762,0,5-2.239,5-5S71.809,490,69.047,490z
	 M256.069,224.707c-8.971,0-17.313,4.04-22.885,11.084c-1.714,2.166-1.347,5.31,0.818,7.024c2.167,1.713,5.311,1.347,7.023-0.819
	c3.665-4.632,9.147-7.288,15.043-7.288s11.378,2.656,15.043,7.288c0.986,1.247,2.448,1.898,3.924,1.898
	c1.087,0,2.182-0.353,3.1-1.079c2.165-1.713,2.532-4.858,0.818-7.024C273.382,228.747,265.04,224.707,256.069,224.707z
	 M297.966,165.35l-29.036,26.632c-2.775,2.544-6.376,3.945-10.14,3.946c-0.001,0-0.001,0-0.001,0c-1.588,0-3.16-0.251-4.671-0.746
	c-5.145-1.686-8.993-6.033-10.044-11.344l-5.912-29.902l-5.683,6.958c-2.86,3.503-7.095,5.511-11.617,5.511h-78.866
	c-8.271,0-15-6.729-15-15s6.729-15,15-15h71.75l21.335-26.121c3.661-4.48,9.653-6.467,15.256-5.063
	c5.605,1.4,9.954,5.97,11.077,11.641l6.912,34.965l13.663-12.531c2.774-2.544,6.375-3.946,10.14-3.946h78.014
	c8.271,0,15,6.729,15,15s-6.729,15-15,15H297.966z M296.021,155.35h74.122c2.757,0,5-2.243,5-5s-2.243-5-5-5h-78.014
	c-1.255,0-2.455,0.467-3.38,1.315l-20.222,18.547c-1.332,1.221-3.221,1.63-4.937,1.067c-1.718-0.563-2.998-2.009-3.349-3.782
	l-8.639-43.695c-0.374-1.89-1.823-3.414-3.693-3.881c-1.868-0.468-3.865,0.194-5.085,1.688l-22.835,27.957
	c-0.949,1.163-2.371,1.837-3.872,1.837h-74.122c-2.757,0-5,2.243-5,5c0,2.757,2.243,5,5,5h78.866c1.508,0,2.919-0.67,3.873-1.837
	l12.4-15.182c0.962-1.179,2.392-1.837,3.872-1.837c0.403,0,0.81,0.049,1.212,0.149c1.879,0.469,3.317,1.981,3.693,3.881l7.972,40.32
	c0.35,1.77,1.633,3.219,3.348,3.781c1.699,0.557,3.622,0.139,4.938-1.067l30.47-27.947
	C293.563,155.819,294.77,155.35,296.021,155.35z M164.046,127.661c2.43,1.318,5.463,0.418,6.78-2.009
	c17.02-31.354,49.683-50.831,85.243-50.831c35.558,0,68.22,19.477,85.239,50.831c0.906,1.669,2.625,2.616,4.399,2.616
	c0.805,0,1.623-0.195,2.381-0.607c2.427-1.317,3.326-4.353,2.009-6.78c-18.771-34.579-54.8-56.06-94.028-56.06
	c-39.23,0-75.262,21.481-94.032,56.06C160.72,123.308,161.619,126.344,164.046,127.661z"/>
</svg>
