<?xml version="1.0" encoding="utf-8"?>
<!-- Generator: Adobe Illustrator 23.0.0, SVG Export Plug-In . SVG Version: 6.00 Build 0)  -->
<svg version="1.1" id="Layer_1" xmlns="http://www.w3.org/2000/svg" xmlns:xlink="http://www.w3.org/1999/xlink" x="0px" y="0px"
	 viewBox="0 0 500 500" style="enable-background:new 0 0 500 500;" xml:space="preserve">
<style type="text/css">
	.st0{fill:#83E1E5;}
	.st1{fill:#AAB1BA;}
	.st2{fill:#FDDF7F;}
	.st3{fill:#ECF4F7;}
	.st4{fill:#1C1D21;}
</style>
<g>
	<g>
		<path class="st1" d="M298.918,41.448c-2.404,0-4.758,0.212-7.052,0.598C289.328,21.173,271.558,5,250,5
			c-21.559,0-39.328,16.173-41.867,37.047c-2.294-0.387-4.648-0.598-7.052-0.598c-23.301,0-42.19,18.889-42.19,42.19
			c0,23.301,18.889,42.19,42.19,42.19h97.837c23.301,0,42.19-18.889,42.19-42.19C341.108,60.337,322.219,41.448,298.918,41.448z"/>
	</g>
</g>
<g>
	<g>
		<path class="st0" d="M351.134,472.293l-38.14-116.454c-16.919,14.55-38.929,23.346-62.994,23.346s-46.074-8.796-62.994-23.346
			l-38.14,116.454C144.43,485.839,131.79,495,117.536,495h264.928C368.21,495,355.57,485.839,351.134,472.293z"/>
	</g>
</g>
<g>
	<g>
		<path class="st2" d="M380.77,375.292l-16.829-38.793c-2.206-5.085-3.345-10.57-3.345-16.113V290.81
			c0-8.296-1.676-16.506-4.928-24.137l-15.184-35.637c-2.182-5.12-7.21-8.443-12.776-8.443l-1.853,0
			c-17.705-22.381-45.102-36.744-75.855-36.744s-58.15,14.363-75.855,36.744l-1.853,0c-5.566,0-10.594,3.323-12.776,8.443
			l-15.184,35.637c-3.252,7.632-4.928,15.842-4.928,24.137v29.575c0,5.543-1.138,11.028-3.345,16.113l-16.829,38.793H84.532v87.644
			l0.021-0.038C85.002,479.93,98.856,495,117.536,495h0c14.254,0,26.894-9.161,31.33-22.707l38.14-116.454
			c16.919,14.55,38.929,23.346,62.994,23.346s46.074-8.796,62.994-23.346l38.14,116.454C355.57,485.839,368.21,495,382.464,495h0
			c18.68,0,32.534-15.07,32.983-32.102l0.021,0.038v-87.644H380.77z"/>
	</g>
</g>
<g>
	<g>
		<path class="st0" d="M139.404,299.226h-6.64c-26.638,0-48.232,21.594-48.232,48.232v27.834h34.697l16.829-38.793
			c0.552-1.271,1.036-2.568,1.453-3.884c0.417-1.316,0.766-2.651,1.046-4.001c0.56-2.7,0.845-5.457,0.845-8.229L139.404,299.226
			L139.404,299.226z"/>
	</g>
</g>
<g>
	<g>
		<path class="st0" d="M367.236,299.226h-6.64h0v21.159c0,2.772,0.285,5.529,0.845,8.229c0.28,1.35,0.629,2.685,1.046,4.001
			c0.417,1.316,0.902,2.612,1.453,3.884l16.829,38.793h34.697v-27.834C415.468,320.82,393.874,299.226,367.236,299.226z"/>
	</g>
</g>
<path class="st4" d="M227.115,352.529c5.572-7.044,13.914-11.084,22.885-11.084s17.313,4.04,22.885,11.084
	c1.713,2.166,1.346,5.31-0.819,7.023c-0.918,0.726-2.012,1.079-3.099,1.079c-1.476,0-2.938-0.651-3.925-1.898
	c-3.664-4.632-9.147-7.288-15.042-7.288s-11.378,2.656-15.042,7.288c-1.713,2.166-4.856,2.533-7.023,0.819
	C225.769,357.839,225.401,354.695,227.115,352.529z M52.15,490h-3.813c-2.761,0-5,2.239-5,5s2.239,5,5,5h3.813c2.761,0,5-2.239,5-5
	S54.912,490,52.15,490z M435.69,495c0,2.761-2.239,5-5,5h-90.144c-2.761,0-5-2.239-5-5s2.239-5,5-5h16.213
	c-4.673-4.298-8.298-9.801-10.377-16.15l-35.907-109.636c-17.437,12.913-38.634,19.971-60.475,19.971
	c-21.841,0-43.039-7.059-60.475-19.971L153.618,473.85c-2.079,6.349-5.704,11.852-10.377,16.15h16.213c2.761,0,5,2.239,5,5
	s-2.239,5-5,5H69.31c-2.761,0-5-2.239-5-5s2.239-5,5-5h22.423c-7.149-6.583-11.74-15.905-12.161-26.428
	c-0.027-0.208-0.041-0.421-0.041-0.636v-87.644c0-0.071,0.018-0.136,0.021-0.207l-0.021-27.624
	c0-29.355,23.879-53.235,53.231-53.235h1.64v-3.416c0-9.019,1.792-17.799,5.328-26.097l15.185-35.637
	c2.906-6.819,9.491-11.268,16.869-11.465c8.083-9.738,17.752-17.811,28.816-23.974c2.411-1.344,5.457-0.477,6.801,1.935
	c1.344,2.412,0.478,5.458-1.935,6.801c-7.448,4.149-14.207,9.246-20.188,15.219h9.267c7.253,0,13.972,3.613,17.971,9.664
	c4,6.052,4.689,13.648,1.847,20.321l-8.972,21.055c-3.004,7.051-4.528,14.513-4.528,22.177v23.516c0,10.127-1.598,20.14-4.75,29.763
	l-3.299,10.073c16.195,12.935,36.372,20.023,57.184,20.023c20.812,0,40.988-7.088,57.183-20.023l-3.299-10.073
	c-3.151-9.622-4.75-19.636-4.75-29.763V290.81c0-7.665-1.523-15.126-4.528-22.177l-8.971-21.055
	c-2.843-6.673-2.153-14.27,1.846-20.321c4-6.051,10.718-9.664,17.971-9.664h9.267c-5.981-5.972-12.74-11.071-20.189-15.219
	c-2.412-1.344-3.279-4.389-1.935-6.801c1.344-2.413,4.389-3.277,6.801-1.935c11.065,6.163,20.735,14.236,28.817,23.975
	c7.378,0.196,13.964,4.645,16.87,11.465l15.184,35.637c3.536,8.298,5.328,17.078,5.328,26.097v3.416h1.64
	c29.352,0,53.231,23.88,53.231,53.231v27.834v87.644c0,0.216-0.014,0.43-0.041,0.64c-0.422,10.521-5.012,19.842-12.16,26.424h22.424
	C433.451,490,435.69,492.239,435.69,495z M89.532,347.458l0.017,22.834h26.399l15.523-35.783c1.945-4.484,2.932-9.236,2.932-14.124
	v-16.159h-1.64C108.926,304.226,89.532,323.62,89.532,347.458z M182.253,354.289c0.001-0.002,0.001-0.004,0.001-0.006l4.358-13.306
	c2.822-8.616,4.252-17.583,4.252-26.65V290.81c0-9.02,1.793-17.8,5.329-26.097l8.971-21.055c1.546-3.629,1.185-7.597-0.99-10.888
	c-2.175-3.291-5.684-5.178-9.628-5.178h-20.402c-0.001,0-0.002,0-0.003,0l-1.849,0c-3.569,0-6.778,2.121-8.176,5.403l-15.185,35.637
	c-3.004,7.051-4.527,14.513-4.527,22.177v29.575c0,6.264-1.264,12.355-3.758,18.103l-16.829,38.793c0,0-0.001,0.001-0.001,0.002
	l-15.595,35.948c-0.818,1.885-2.658,3.011-4.589,3.011c-0.664,0-1.339-0.133-1.987-0.414c-2.534-1.099-3.696-4.043-2.597-6.577
	l12.564-28.96H89.532v82.148c0.01,0.108,0.017,0.217,0.019,0.327C89.954,478.038,102.246,490,117.536,490
	c12.124,0,22.805-7.741,26.579-19.263L182.253,354.289z M365.596,304.226v16.159c0,4.887,0.986,9.639,2.932,14.124l15.523,35.783
	h26.417v-22.834c0-23.838-19.394-43.231-43.231-43.231H365.596z M382.464,490c15.291,0,27.583-11.962,27.985-27.233
	c0.002-0.11,0.009-0.219,0.019-0.328v-82.147h-22.073l12.564,28.96c1.099,2.533-0.063,5.478-2.597,6.577
	c-0.648,0.281-1.323,0.414-1.987,0.414c-1.932,0-3.771-1.126-4.589-3.011l-15.571-35.893c-0.009-0.02-0.021-0.037-0.03-0.057
	l-16.829-38.793c-2.494-5.749-3.758-11.839-3.758-18.104V290.81c0-7.664-1.523-15.126-4.528-22.177l-15.184-35.637
	c-1.399-3.282-4.608-5.403-8.176-5.403l-1.85,0c-0.001,0-0.002,0-0.003,0h-20.402c-3.944,0-7.454,1.887-9.628,5.178
	c-2.175,3.291-2.536,7.259-0.989,10.888l8.971,21.055c3.536,8.297,5.329,17.078,5.329,26.097v23.516
	c0,9.068,1.431,18.034,4.252,26.65l4.358,13.306l38.14,116.455C359.659,482.259,370.34,490,382.464,490z M451.663,490h-3.813
	c-2.761,0-5,2.239-5,5s2.239,5,5,5h3.813c2.761,0,5-2.239,5-5S454.424,490,451.663,490z M129.512,179.314h6.535v6.534
	c0,2.761,2.239,5,5,5s5-2.239,5-5v-6.534h6.534c2.761,0,5-2.239,5-5s-2.239-5-5-5h-6.534v-6.535c0-2.761-2.239-5-5-5s-5,2.239-5,5
	v6.535h-6.535c-2.761,0-5,2.239-5,5S126.75,179.314,129.512,179.314z M342.419,174.314c0,2.761,2.239,5,5,5h6.534v6.534
	c0,2.761,2.239,5,5,5s5-2.239,5-5v-6.534h6.535c2.761,0,5-2.239,5-5s-2.239-5-5-5h-6.535v-6.535c0-2.761-2.239-5-5-5s-5,2.239-5,5
	v6.535h-6.534C344.658,169.314,342.419,171.552,342.419,174.314z M153.892,83.638c0-26.021,21.169-47.19,47.19-47.19
	c0.976,0,1.96,0.032,2.947,0.095C208.897,15.397,227.854,0,250,0s41.103,15.397,45.971,36.543c0.987-0.063,1.971-0.095,2.947-0.095
	c26.021,0,47.19,21.169,47.19,47.19c0,26.021-21.169,47.19-47.19,47.19h-97.837C175.061,130.828,153.892,109.659,153.892,83.638z
	 M163.892,83.638c0,20.507,16.683,37.19,37.19,37.19h97.837c20.507,0,37.19-16.683,37.19-37.19s-16.683-37.19-37.19-37.19
	c-2.044,0-4.137,0.178-6.222,0.529c-1.348,0.226-2.728-0.107-3.822-0.925c-1.094-0.817-1.806-2.047-1.971-3.402
	C284.64,24.037,268.774,10,250,10s-34.64,14.037-36.903,32.65c-0.165,1.356-0.877,2.585-1.971,3.402s-2.474,1.151-3.822,0.925
	c-2.084-0.351-4.178-0.529-6.222-0.529C180.575,46.448,163.892,63.132,163.892,83.638z M250,179.677c-2.761,0-5,2.239-5,5v5.39
	c0,2.761,2.239,5,5,5s5-2.239,5-5v-5.39C255,181.915,252.761,179.677,250,179.677z M249.999,137.995c-2.761,0-5,2.239-5,5v22.629
	c0,2.761,2.239,5,5,5s5-2.239,5-5v-22.629C254.999,140.234,252.76,137.995,249.999,137.995z M221.619,195.067c2.761,0,5-2.239,5-5
	v-5.39c0-2.761-2.239-5-5-5s-5,2.239-5,5v5.39C216.619,192.828,218.858,195.067,221.619,195.067z M221.618,170.625
	c2.761,0,5-2.239,5-5v-22.629c0-2.761-2.239-5-5-5s-5,2.239-5,5v22.629C216.618,168.386,218.857,170.625,221.618,170.625z
	 M278.381,195.067c2.761,0,5-2.239,5-5v-5.39c0-2.761-2.239-5-5-5s-5,2.239-5,5v5.39
	C273.381,192.828,275.62,195.067,278.381,195.067z M278.38,170.625c2.761,0,5-2.239,5-5v-22.629c0-2.761-2.239-5-5-5s-5,2.239-5,5
	v22.629C273.38,168.386,275.619,170.625,278.38,170.625z"/>
</svg>
