<?xml version="1.0" encoding="utf-8"?>
<!-- Generator: Adobe Illustrator 23.0.0, SVG Export Plug-In . SVG Version: 6.00 Build 0)  -->
<svg version="1.1" id="Layer_1" xmlns="http://www.w3.org/2000/svg" xmlns:xlink="http://www.w3.org/1999/xlink" x="0px" y="0px"
	 viewBox="0 0 500 500" style="enable-background:new 0 0 500 500;" xml:space="preserve">
<style type="text/css">
	.st0{fill:#83E1E5;}
	.st1{fill:#AAB1BA;}
	.st2{fill:#FDDF7F;}
	.st3{fill:#ECF4F7;}
	.st4{fill:#1C1D21;}
</style>
<g>
	<path class="st0" d="M348.98,338.923h-7.126c-4.068,3.841-9.549,6.2-15.585,6.2h-11.416h-7.535v63.107H192.682v-63.107h-7.535
		H173.72c-6.035,0-11.516-2.358-15.584-6.198h-7.128c-30.129,4.517-53.244,30.53-53.244,61.981V495h94.917h114.636h94.917v-94.093
		C402.235,369.452,379.115,343.436,348.98,338.923z"/>
</g>
<g>
	<path class="st2" d="M250,143.936c-58.284,0-105.533,47.249-105.533,105.534c0,12.887,2.313,25.232,6.542,36.648v36.293
		c0,12.544,10.168,22.712,22.711,22.712h11.427h7.535v63.107H250h57.318v-63.107h7.535h11.416c12.543,0,22.712-10.169,22.712-22.712
		v-36.264c4.235-11.425,6.553-23.78,6.553-36.678C355.533,191.185,308.284,143.936,250,143.936z"/>
</g>
<g>
	<path class="st3" d="M77.581,257.775l31.19-12.476l-31.19-12.476c-8.826-3.53-18.427,2.97-18.427,12.476v0
		C59.154,254.805,68.755,261.305,77.581,257.775z"/>
</g>
<g>
	<path class="st3" d="M95.538,317.805l13.233-30.876l-30.876,13.233c-8.738,3.745-10.93,15.13-4.208,21.852l0,0
		C80.408,328.735,91.793,326.543,95.538,317.805z"/>
</g>
<g>
	<path class="st3" d="M422.419,257.775l-31.19-12.476l31.19-12.476c8.826-3.53,18.427,2.97,18.427,12.476v0
		C440.846,254.805,431.245,261.305,422.419,257.775z"/>
</g>
<g>
	<path class="st3" d="M404.462,317.805l-13.233-30.876l30.876,13.233c8.738,3.745,10.93,15.13,4.208,21.852l0,0
		C419.592,328.735,408.207,326.543,404.462,317.805z"/>
</g>
<path class="st4" d="M358.777,165.156c0-2.762,2.239-5,5-5h6.535v-6.534c0-2.762,2.239-5,5-5s5,2.238,5,5v6.534h6.535
	c2.761,0,5,2.238,5,5s-2.239,5-5,5h-6.535v6.534c0,2.762-2.239,5-5,5s-5-2.238-5-5v-6.534h-6.535
	C361.016,170.156,358.777,167.918,358.777,165.156z M113.153,170.156h6.535v6.534c0,2.762,2.239,5,5,5s5-2.238,5-5v-6.534h6.535
	c2.761,0,5-2.238,5-5s-2.239-5-5-5h-6.535v-6.534c0-2.762-2.239-5-5-5s-5,2.238-5,5v6.534h-6.535c-2.761,0-5,2.238-5,5
	S110.392,170.156,113.153,170.156z M440.835,490h-3.813c-2.761,0-5,2.238-5,5s2.239,5,5,5h3.813c2.761,0,5-2.238,5-5
	S443.597,490,440.835,490z M419.862,490H80.138c-2.761,0-5,2.238-5,5s2.239,5,5,5h339.725c2.761,0,5-2.238,5-5
	S422.624,490,419.862,490z M62.978,490h-3.813c-2.761,0-5,2.238-5,5s2.239,5,5,5h3.813c2.761,0,5-2.238,5-5S65.739,490,62.978,490z
	 M131.52,339.682c-23.543,11.131-38.755,35.163-38.755,61.226v75.751c0,2.762,2.239,5,5,5s5-2.238,5-5v-75.751
	c0-22.215,12.965-42.699,33.03-52.185c2.496-1.181,3.563-4.161,2.383-6.657C136.998,339.568,134.018,338.503,131.52,339.682z
	 M402.235,481.658c2.761,0,5-2.238,5-5v-75.751c0-26.069-15.219-50.104-38.772-61.233c-2.498-1.181-5.477-0.112-6.657,2.385
	c-1.18,2.496-0.112,5.477,2.385,6.656c20.074,9.485,33.044,29.972,33.044,52.192v75.751
	C397.235,479.42,399.474,481.658,402.235,481.658z M326.269,350.123h-13.951l0,58.105c0,0.001,0,0.002,0,0.003s0,0.002,0,0.003
	l0,68.424h-10v-63.427H255v63.427c0,2.762-2.239,5-5,5s-5-2.238-5-5v-63.427h-47.318l0,63.427c0,2.762-2.239,5-5,5s-5-2.238-5-5
	V350.123H173.72c-15.28,0-27.711-12.431-27.711-27.711v-47.217c0-7.486,6.091-13.577,13.577-13.577h9.922v-21.522
	c0-8.623,7.016-15.639,15.639-15.639h54.215c4.111,0,7.844,1.606,10.639,4.209c2.794-2.603,6.528-4.209,10.639-4.209h54.215
	c8.623,0,15.639,7.016,15.639,15.639v21.522h9.911c7.486,0,13.577,6.091,13.577,13.577v47.217
	C353.98,337.692,341.549,350.123,326.269,350.123z M245,350.124h-47.317l0,53.107H245V350.124z M245,240.096
	c0-3.109-2.529-5.639-5.639-5.639h-54.215c-3.109,0-5.639,2.529-5.639,5.639v26.25v0.272v27.622c0,2.762-2.239,5-5,5s-5-2.238-5-5
	v-22.622h-9.922c-1.973,0-3.577,1.604-3.577,3.577v47.217c0,9.766,7.945,17.711,17.711,17.711h18.963
	c0.003,0,0.007,0.001,0.01,0.001H245V240.096z M302.318,350.124H255v53.107h47.318V350.124z M326.269,340.123
	c9.766,0,17.711-7.945,17.711-17.711v-47.217c0-1.973-1.604-3.577-3.577-3.577h-9.911v22.622c0,2.762-2.239,5-5,5s-5-2.238-5-5
	v-27.622v-0.272v-26.25c0-3.109-2.529-5.639-5.639-5.639h-54.215c-3.109,0-5.639,2.529-5.639,5.639v100.028h52.318L326.269,340.123z
	 M310.875,15.391c2.761,0,5-2.238,5-5V5c0-2.762-2.239-5-5-5s-5,2.238-5,5v5.391C305.875,13.152,308.113,15.391,310.875,15.391z
	 M310.875,135.012c2.761,0,5-2.238,5-5V29.442c0-2.762-2.239-5-5-5s-5,2.238-5,5v100.569
	C305.875,132.773,308.113,135.012,310.875,135.012z M250,15.391c2.761,0,5-2.238,5-5V5c0-2.762-2.239-5-5-5s-5,2.238-5,5v5.391
	C245,13.152,247.239,15.391,250,15.391z M250,116.44c2.761,0,5-2.238,5-5V29.442c0-2.762-2.239-5-5-5s-5,2.238-5,5v81.998
	C245,114.202,247.239,116.44,250,116.44z M280.438,15.391c2.761,0,5-2.238,5-5V5c0-2.762-2.239-5-5-5s-5,2.238-5,5v5.391
	C275.438,13.152,277.676,15.391,280.438,15.391z M280.438,122.229c2.761,0,5-2.238,5-5V29.442c0-2.762-2.239-5-5-5s-5,2.238-5,5
	v87.786C275.438,119.99,277.676,122.229,280.438,122.229z M189.125,15.391c2.761,0,5-2.238,5-5V5c0-2.762-2.239-5-5-5s-5,2.238-5,5
	v5.391C184.125,13.152,186.364,15.391,189.125,15.391z M189.125,135.012c2.761,0,5-2.238,5-5V29.442c0-2.762-2.239-5-5-5
	s-5,2.238-5,5v100.569C184.125,132.773,186.364,135.012,189.125,135.012z M219.563,15.391c2.761,0,5-2.238,5-5V5
	c0-2.762-2.239-5-5-5s-5,2.238-5,5v5.391C214.563,13.152,216.801,15.391,219.563,15.391z M219.563,122.229c2.761,0,5-2.238,5-5
	V29.442c0-2.762-2.239-5-5-5s-5,2.238-5,5v87.786C214.563,119.99,216.801,122.229,219.563,122.229z M139.711,256.453
	c0.182,2.756,2.556,4.813,5.319,4.659c2.755-0.183,4.841-2.563,4.659-5.319c-0.15-2.264-0.223-4.332-0.223-6.322
	c0-55.435,45.099-100.534,100.533-100.534s100.533,45.1,100.533,100.534c0,1.99-0.073,4.059-0.223,6.322
	c-0.182,2.756,1.904,5.137,4.659,5.319c0.112,0.007,0.224,0.011,0.335,0.011c2.611,0,4.81-2.027,4.984-4.67
	c0.164-2.485,0.244-4.77,0.244-6.982c0-60.949-49.585-110.534-110.533-110.534s-110.533,49.585-110.533,110.534
	C139.467,251.684,139.547,253.968,139.711,256.453z M54.153,245.299c0-6.125,3.028-11.832,8.1-15.267
	c5.072-3.433,11.496-4.125,17.185-1.852l31.19,12.476c1.898,0.76,3.143,2.598,3.143,4.643s-1.245,3.883-3.143,4.643l-31.19,12.476h0
	c-2.213,0.885-4.539,1.321-6.852,1.321c-3.631,0-7.234-1.074-10.333-3.172C57.182,257.132,54.153,251.425,54.153,245.299z
	 M64.153,245.299c0,2.845,1.351,5.392,3.707,6.986c2.357,1.596,5.223,1.906,7.863,0.847c0,0,0,0,0,0l19.583-7.833l-19.583-7.833
	c-1.034-0.414-2.102-0.618-3.161-0.618c-1.646,0-3.27,0.494-4.704,1.466C65.504,239.908,64.153,242.454,64.153,245.299z
	 M83.179,330.95c-4.841,0-9.535-1.907-13.028-5.4c-4.332-4.333-6.226-10.51-5.067-16.524c1.158-6.016,5.211-11.047,10.841-13.46
	l30.876-13.232c1.88-0.806,4.059-0.386,5.505,1.061c1.446,1.445,1.865,3.626,1.06,5.505l-13.233,30.876
	c-2.413,5.63-7.444,9.684-13.459,10.842C85.511,330.841,84.34,330.95,83.179,330.95z M84.783,320.797
	c2.793-0.538,5.039-2.347,6.159-4.962l8.309-19.387l-19.387,8.309c-2.615,1.121-4.423,3.366-4.961,6.159
	c-0.538,2.794,0.307,5.55,2.319,7.563C79.233,320.489,81.99,321.336,84.783,320.797z M389.372,240.656l31.19-12.476
	c5.689-2.273,12.113-1.58,17.185,1.852c5.072,3.435,8.1,9.142,8.1,15.267c0,6.126-3.028,11.833-8.101,15.268
	c-3.098,2.098-6.702,3.172-10.333,3.172c-2.313,0-4.638-0.436-6.852-1.321l-31.189-12.476c-1.898-0.76-3.143-2.598-3.143-4.643
	S387.474,241.416,389.372,240.656z M404.692,245.299l19.583,7.833c0,0,0,0,0,0c2.641,1.059,5.507,0.748,7.863-0.847
	c2.356-1.595,3.707-4.142,3.707-6.986s-1.351-5.391-3.707-6.985c-2.356-1.597-5.223-1.906-7.864-0.848L404.692,245.299z
	 M429.85,325.549c-3.494,3.493-8.188,5.401-13.028,5.401c-1.162,0-2.332-0.109-3.496-0.334c-6.015-1.158-11.046-5.212-13.459-10.842
	l-13.233-30.876c-0.805-1.879-0.386-4.06,1.06-5.505c1.445-1.446,3.626-1.866,5.505-1.061l30.876,13.232
	c5.63,2.413,9.683,7.444,10.841,13.46C436.075,315.04,434.181,321.217,429.85,325.549z M425.097,310.916
	c-0.538-2.793-2.346-5.038-4.961-6.159l-19.387-8.309l8.309,19.387c1.121,2.615,3.366,4.424,6.159,4.962
	c2.794,0.543,5.55-0.306,7.562-2.319C424.79,316.466,425.635,313.71,425.097,310.916z"/>
</svg>
