<?xml version="1.0" encoding="utf-8"?>
<!-- Generator: Adobe Illustrator 23.0.0, SVG Export Plug-In . SVG Version: 6.00 Build 0)  -->
<svg version="1.1" id="Layer_1" xmlns="http://www.w3.org/2000/svg" xmlns:xlink="http://www.w3.org/1999/xlink" x="0px" y="0px"
	 viewBox="0 0 500 500" style="enable-background:new 0 0 500 500;" xml:space="preserve">
<style type="text/css">
	.st0{fill:#83E1E5;}
	.st1{fill:#AAB1BA;}
	.st2{fill:#FDDF7F;}
	.st3{fill:#ECF4F7;}
	.st4{fill:#1C1D21;}
</style>
<g>
	<ellipse class="st2" cx="250" cy="200.874" rx="105.703" ry="105.928"/>
</g>
<g>
	<g>
		<path class="st0" d="M324.495,291.611h-19.927c-15.929,9.641-34.601,15.191-54.567,15.191s-38.638-5.551-54.567-15.191h-19.927
			c-28.71,0-51.984,23.324-51.984,52.095v64.891c0,9.528,7.723,17.253,17.25,17.253h3.806h210.847h3.806
			c9.527,0,17.25-7.724,17.25-17.253v-64.891C376.479,314.935,353.205,291.611,324.495,291.611z"/>
	</g>
</g>
<g>
	<g>
		<rect x="144.297" y="425.851" class="st0" width="211.406" height="69.149"/>
	</g>
</g>
<g>
	<g>
		<path class="st2" d="M327.328,363.157v19.21H172.476v-19.21h-48.956v45.441c0,9.528,7.723,17.253,17.25,17.253h218.458
			c9.527,0,17.25-7.725,17.25-17.253v-45.441H327.328z"/>
	</g>
</g>
<path class="st1" d="M297.903,324.813h-18.379c-16.306,0-29.524,13.218-29.524,29.524c0-16.305-13.218-29.524-29.524-29.524h-18.379
	c-16.305,0-29.523,13.218-29.523,29.524v28.03h154.852v-28.03C327.426,338.032,314.208,324.813,297.903,324.813z"/>
<rect x="172.574" y="425.851" class="st1" width="154.852" height="69.149"/>
<g>
	<g>
		<polygon class="st2" points="250,462.781 172.574,462.781 172.574,495 250,495 327.426,495 327.426,462.781 		"/>
	</g>
</g>
<path class="st4" d="M95.452,250c0-2.761,2.238-5,5-5h6.534v-6.534c0-2.761,2.238-5,5-5s5,2.239,5,5V245h6.534c2.762,0,5,2.239,5,5
	s-2.238,5-5,5h-6.534v6.534c0,2.761-2.238,5-5,5s-5-2.239-5-5V255h-6.534C97.69,255,95.452,252.761,95.452,250z M376.479,245
	c-2.762,0-5,2.239-5,5s2.238,5,5,5h6.534v6.534c0,2.761,2.238,5,5,5s5-2.239,5-5V255h6.534c2.762,0,5-2.239,5-5s-2.238-5-5-5h-6.534
	v-6.534c0-2.761-2.238-5-5-5s-5,2.239-5,5V245H376.479z M227.712,198.545c1.713-2.166,1.346-5.31-0.82-7.023
	c-2.164-1.712-5.308-1.347-7.023,0.82c-2.09,2.643-5.218,4.158-8.581,4.158s-6.491-1.516-8.581-4.158
	c-1.715-2.167-4.86-2.532-7.023-0.82c-2.166,1.713-2.533,4.858-0.82,7.023c3.999,5.055,9.985,7.955,16.425,7.955
	S223.713,203.601,227.712,198.545z M285.351,206.5c6.439,0,12.426-2.899,16.425-7.955c1.713-2.166,1.346-5.31-0.82-7.023
	c-2.163-1.712-5.309-1.347-7.023,0.82c-2.09,2.643-5.218,4.158-8.581,4.158s-6.491-1.516-8.581-4.158
	c-1.716-2.167-4.859-2.532-7.023-0.82c-2.166,1.713-2.533,4.858-0.82,7.023C272.925,203.601,278.911,206.5,285.351,206.5z
	 M440.835,490h-3.813c-2.762,0-5,2.239-5,5s2.238,5,5,5h3.813c2.762,0,5-2.239,5-5S443.597,490,440.835,490z M419.862,490H80.138
	c-2.762,0-5,2.239-5,5s2.238,5,5,5h339.725c2.762,0,5-2.239,5-5S422.624,490,419.862,490z M62.978,490h-3.813c-2.762,0-5,2.239-5,5
	s2.238,5,5,5h3.813c2.762,0,5-2.239,5-5S65.739,490,62.978,490z M158.688,15.39c2.762,0,5-2.239,5-5V5c0-2.761-2.238-5-5-5
	s-5,2.239-5,5v5.39C153.688,13.152,155.927,15.39,158.688,15.39z M158.688,107.917c2.762,0,5-2.239,5-5V29.442c0-2.761-2.238-5-5-5
	s-5,2.239-5,5v73.475C153.688,105.678,155.927,107.917,158.688,107.917z M189.125,15.39c2.762,0,5-2.239,5-5V5c0-2.761-2.238-5-5-5
	s-5,2.239-5,5v5.39C184.125,13.152,186.363,15.39,189.125,15.39z M189.125,93.971c2.762,0,5-2.239,5-5v-59.53c0-2.761-2.238-5-5-5
	s-5,2.239-5,5v59.53C184.125,91.733,186.363,93.971,189.125,93.971z M128.251,15.39c2.762,0,5-2.239,5-5V5c0-2.761-2.238-5-5-5
	s-5,2.239-5,5v5.39C123.251,13.152,125.489,15.39,128.251,15.39z M128.251,129.47c2.762,0,5-2.239,5-5V29.442c0-2.761-2.238-5-5-5
	s-5,2.239-5,5v95.028C123.251,127.231,125.489,129.47,128.251,129.47z M371.749,15.39c2.762,0,5-2.239,5-5V5c0-2.761-2.238-5-5-5
	s-5,2.239-5,5v5.39C366.749,13.152,368.987,15.39,371.749,15.39z M371.749,129.47c2.762,0,5-2.239,5-5V29.442c0-2.761-2.238-5-5-5
	s-5,2.239-5,5v95.028C366.749,127.231,368.987,129.47,371.749,129.47z M310.875,15.39c2.762,0,5-2.239,5-5V5c0-2.761-2.238-5-5-5
	s-5,2.239-5,5v5.39C305.875,13.152,308.113,15.39,310.875,15.39z M310.875,93.971c2.762,0,5-2.239,5-5v-59.53c0-2.761-2.238-5-5-5
	s-5,2.239-5,5v59.53C305.875,91.733,308.113,93.971,310.875,93.971z M341.312,15.39c2.762,0,5-2.239,5-5V5c0-2.761-2.238-5-5-5
	s-5,2.239-5,5v5.39C336.312,13.152,338.55,15.39,341.312,15.39z M341.312,107.917c2.762,0,5-2.239,5-5V29.442c0-2.761-2.238-5-5-5
	s-5,2.239-5,5v73.475C336.312,105.678,338.55,107.917,341.312,107.917z M175.506,286.611h4.329
	c-24.734-20.361-40.538-51.233-40.538-85.737c0-27.798,10.309-54.392,29.028-74.881c18.573-20.33,43.815-32.95,71.087-35.545
	l0.408-0.059c0.089-0.013,0.179-0.023,0.269-0.031c4.887-0.433,9.411-2.849,12.412-6.629c4.974-6.265,5.124-15.131,0.367-21.562
	l-3.436-4.644c-1.643-2.22-1.174-5.351,1.046-6.993c2.22-1.642,5.351-1.174,6.993,1.046l3.436,4.644
	c7.441,10.059,7.205,23.927-0.574,33.726c-4.669,5.882-11.668,9.652-19.222,10.359l-0.399,0.057c-0.08,0.011-0.16,0.021-0.241,0.029
	c-51.978,4.886-91.174,48.084-91.174,100.482c0,43.402,27.478,80.491,65.913,94.717c0.101,0.037,0.202,0.076,0.303,0.113
	c0.636,0.233,1.275,0.458,1.917,0.678c0.352,0.12,0.705,0.237,1.059,0.354c0.524,0.173,1.046,0.348,1.574,0.513
	c0.873,0.272,1.749,0.532,2.628,0.78c0.31,0.087,0.622,0.169,0.933,0.253c0.732,0.199,1.465,0.391,2.202,0.573
	c0.262,0.065,0.525,0.13,0.788,0.193c2.049,0.489,4.114,0.916,6.194,1.276c0.14,0.024,0.281,0.046,0.421,0.07
	c0.934,0.157,1.871,0.302,2.811,0.433c0.159,0.022,0.318,0.046,0.477,0.067c2.106,0.284,4.223,0.5,6.349,0.651
	c0.243,0.017,0.488,0.031,0.731,0.047c0.812,0.052,1.625,0.093,2.439,0.125c0.282,0.011,0.563,0.024,0.846,0.032
	c1.038,0.032,2.078,0.053,3.119,0.053s2.081-0.021,3.119-0.053c0.282-0.009,0.564-0.021,0.846-0.032
	c0.814-0.032,1.627-0.073,2.439-0.125c0.244-0.015,0.488-0.03,0.732-0.047c2.126-0.15,4.244-0.367,6.349-0.651
	c0.159-0.021,0.318-0.045,0.477-0.067c0.939-0.131,1.876-0.275,2.811-0.433c0.14-0.024,0.281-0.046,0.421-0.07
	c2.079-0.36,4.144-0.787,6.194-1.276c0.263-0.063,0.526-0.128,0.788-0.193c0.736-0.182,1.47-0.374,2.202-0.573
	c0.311-0.084,0.623-0.166,0.933-0.253c0.88-0.248,1.756-0.508,2.628-0.78c0.528-0.165,1.051-0.34,1.575-0.514
	c0.353-0.116,0.706-0.233,1.057-0.353c0.642-0.221,1.282-0.445,1.919-0.679c0.1-0.037,0.2-0.075,0.301-0.112
	c38.436-14.225,65.914-51.315,65.914-94.718c0-44.702-29.894-84.579-72.694-96.974c-2.652-0.768-4.18-3.541-3.412-6.194
	c0.769-2.652,3.538-4.18,6.193-3.412c22.589,6.542,42.927,20.514,57.267,39.343c14.815,19.454,22.646,42.703,22.646,67.236
	c0,34.503-15.804,65.376-40.538,85.737h4.329c31.422,0,56.985,25.613,56.985,57.095V408.6c0,11.773-9.193,21.434-20.776,22.196
	v51.418c0,2.761-2.238,5-5,5s-5-2.239-5-5v-51.363h-18.277v48.04c0,2.761-2.238,5-5,5s-5-2.239-5-5v-11.109H255v11.109
	c0,2.761-2.238,5-5,5s-5-2.239-5-5v-11.109h-67.426v11.109c0,2.761-2.238,5-5,5s-5-2.239-5-5v-48.04h-18.277v48.04
	c0,2.761-2.238,5-5,5s-5-2.239-5-5v-48.095c-11.584-0.763-20.776-10.424-20.776-22.198v-64.891
	C118.521,312.224,144.084,286.611,175.506,286.611z M245,457.781v-26.931h-67.426v26.931H245z M322.426,430.851H255v26.931h67.426
	V430.851z M371.479,408.6v-40.443h-39.054v14.21c0,2.761-2.238,5-5,5h-0.098H250h-77.426h-0.099c-2.762,0-5-2.239-5-5v-14.21
	h-38.955v40.441c0,6.756,5.497,12.253,12.253,12.253h218.456C365.984,420.85,371.479,415.355,371.479,408.6z M255,377.367h67.328
	v-25.152c-1.08-12.532-11.618-22.402-24.426-22.402h-18.379c-13.522,0-24.523,11.001-24.523,24.524V377.367z M245,354.337
	c0-13.522-11.001-24.524-24.523-24.524h-18.379c-13.522,0-24.523,11.001-24.523,24.524v23.03H245V354.337z M211.748,304.973
	c-6.114-2.254-12.04-5.039-17.693-8.362h-18.549c-25.908,0-46.985,21.127-46.985,47.095v14.451h38.955v-39.404c0-2.761,2.238-5,5-5
	s5,2.239,5,5v11.417c6.269-6.385,14.989-10.356,24.622-10.356h18.379c12.496,0,23.463,6.674,29.523,16.645
	c6.061-9.971,17.027-16.645,29.523-16.645h18.379c9.531,0,18.172,3.883,24.426,10.15v-11.211c0-2.761,2.238-5,5-5s5,2.239,5,5v33.12
	c0.058,0.815,0.098,1.635,0.098,2.464v3.82h39.054v-14.451c0-25.969-21.077-47.095-46.985-47.095h-18.549
	c-5.654,3.323-11.579,6.109-17.693,8.362c-0.23,0.085-0.462,0.168-0.693,0.251c-0.685,0.247-1.37,0.495-2.06,0.729
	c-0.886,0.301-1.778,0.591-2.674,0.871c-0.378,0.117-0.759,0.227-1.138,0.34c-0.716,0.215-1.435,0.424-2.157,0.624
	c-0.336,0.093-0.672,0.184-1.009,0.274c-0.893,0.239-1.791,0.467-2.693,0.684c-0.156,0.037-0.31,0.078-0.466,0.114
	c-1.142,0.269-2.29,0.521-3.445,0.754c-0.017,0.003-0.034,0.006-0.051,0.01c-1.1,0.222-2.207,0.423-3.318,0.612
	c-0.172,0.029-0.344,0.058-0.517,0.086c-1.045,0.172-2.095,0.331-3.149,0.474c-0.095,0.013-0.19,0.028-0.286,0.04
	c-1.181,0.156-2.368,0.297-3.56,0.416c-0.004,0-0.008,0-0.012,0.001c-1.095,0.109-2.196,0.198-3.3,0.275
	c-0.285,0.02-0.569,0.037-0.854,0.054c-0.858,0.053-1.718,0.096-2.581,0.129c-0.308,0.012-0.616,0.026-0.924,0.035
	c-1.119,0.034-2.24,0.056-3.367,0.056s-2.248-0.022-3.367-0.056c-0.308-0.009-0.616-0.023-0.924-0.035
	c-0.863-0.033-1.723-0.076-2.581-0.129c-0.285-0.018-0.569-0.035-0.854-0.054c-1.104-0.077-2.205-0.166-3.3-0.275
	c-0.004,0-0.008,0-0.012-0.001c-1.192-0.119-2.379-0.259-3.56-0.416c-0.095-0.013-0.19-0.027-0.286-0.04
	c-1.054-0.143-2.104-0.302-3.149-0.474c-0.172-0.028-0.344-0.057-0.517-0.086c-1.111-0.189-2.218-0.39-3.318-0.612
	c-0.017-0.003-0.034-0.006-0.051-0.01c-1.155-0.233-2.303-0.485-3.445-0.754c-0.156-0.037-0.31-0.077-0.466-0.114
	c-0.902-0.217-1.8-0.445-2.693-0.684c-0.337-0.09-0.673-0.181-1.009-0.274c-0.722-0.2-1.441-0.409-2.157-0.624
	c-0.38-0.114-0.76-0.223-1.138-0.34c-0.896-0.28-1.788-0.57-2.674-0.871c-0.69-0.234-1.375-0.481-2.06-0.729
	C212.21,305.141,211.979,305.058,211.748,304.973z M223.799,275.384c1.397,0,2.787-0.583,3.775-1.72
	c5.638-6.487,13.789-10.242,22.292-10.305c8.575,0.063,16.726,3.818,22.362,10.305c1.813,2.085,4.971,2.305,7.054,0.494
	c2.085-1.812,2.306-4.969,0.495-7.054c-7.519-8.652-18.395-13.662-29.911-13.745c-11.443,0.083-22.319,5.093-29.839,13.744
	c-1.812,2.084-1.591,5.242,0.493,7.054C221.468,274.98,222.636,275.384,223.799,275.384z M216.287,218.971c0-2.761-2.238-5-5-5
	s-5,2.239-5,5v4.532c0,2.761,2.238,5,5,5s5-2.239,5-5V218.971z M211.287,233.87c-2.762,0-5,2.239-5,5v4.532c0,2.761,2.238,5,5,5
	s5-2.239,5-5v-4.532C216.287,236.109,214.049,233.87,211.287,233.87z M290.351,218.971c0-2.761-2.238-5-5-5s-5,2.239-5,5v4.532
	c0,2.761,2.238,5,5,5s5-2.239,5-5V218.971z M285.351,248.402c2.762,0,5-2.239,5-5v-4.532c0-2.761-2.238-5-5-5s-5,2.239-5,5v4.532
	C280.351,246.164,282.589,248.402,285.351,248.402z"/>
</svg>
