<svg width="132" height="132" viewBox="0 0 132 132" fill="none" xmlns="http://www.w3.org/2000/svg">
<path d="M84.392 5.5H47.608C24.3524 5.5 5.5 24.3524 5.5 47.608V84.392C5.5 107.648 24.3524 126.5 47.608 126.5H84.392C107.648 126.5 126.5 107.648 126.5 84.392V47.608C126.5 24.3524 107.648 5.5 84.392 5.5Z" fill="#0084DF"/>
<path d="M38.8021 40.2217C36.901 40.2195 35.042 40.7813 33.4604 41.836C31.8787 42.8908 30.6454 44.391 29.9167 46.1468C29.1879 47.9027 28.9964 49.8352 29.3663 51.7C29.7363 53.5647 30.6511 55.2778 31.9949 56.6225C33.3388 57.9671 35.0514 58.8829 36.9159 59.2539C38.7804 59.6249 40.7131 59.4345 42.4694 58.7067C44.2257 57.979 45.7266 56.7466 46.7822 55.1655C47.8378 53.5844 48.4007 51.7258 48.3996 49.8247C48.3982 47.2792 47.3867 44.8383 45.5873 43.0379C43.7879 41.2374 41.3476 40.2246 38.8021 40.2217Z" fill="white"/>
<path d="M93.2688 40.2217C91.367 40.2163 89.5064 40.7753 87.9226 41.828C86.3387 42.8808 85.1029 44.3798 84.3716 46.1354C83.6403 47.8909 83.4464 49.824 83.8145 51.6899C84.1826 53.5557 85.0961 55.2703 86.4393 56.6166C87.7825 57.9629 89.495 58.8803 91.36 59.2527C93.225 59.6251 95.1585 59.4356 96.9158 58.7083C98.673 57.9811 100.175 56.7487 101.231 55.1673C102.288 53.5858 102.851 51.7265 102.85 49.8247C102.848 47.2821 101.839 44.8437 100.043 43.0437C98.2475 41.2438 95.8114 40.229 93.2688 40.2217Z" fill="white"/>
<path d="M76.9997 61.6388C76.7685 61.6438 76.5406 61.6943 76.329 61.7874C76.1174 61.8805 75.9262 62.0144 75.7663 62.1814C75.6064 62.3484 75.4811 62.5453 75.3973 62.7608C75.3135 62.9763 75.2731 63.2062 75.2782 63.4373C75.2393 66.1211 74.267 68.7076 72.5282 70.7523C71.6613 71.5765 70.6348 72.2144 69.5121 72.6269C68.3893 73.0393 67.1939 73.2174 65.9997 73.1503C64.808 73.2195 63.6146 73.0455 62.4923 72.639C61.37 72.2324 60.3421 71.6017 59.4712 70.7853C57.7227 68.7377 56.7494 66.1407 56.7212 63.4483C56.7255 63.2172 56.6843 62.9875 56.5998 62.7723C56.5154 62.5571 56.3894 62.3606 56.229 62.1941C56.0686 62.0276 55.8771 61.8944 55.6652 61.8019C55.4533 61.7095 55.2253 61.6597 54.9942 61.6553C54.763 61.651 54.5333 61.6922 54.3181 61.7767C54.1029 61.8611 53.9065 61.9871 53.74 62.1475C53.5735 62.3078 53.4402 62.4994 53.3478 62.7113C53.2553 62.9232 53.2055 63.1512 53.2012 63.3823C53.2065 67.0107 54.5342 70.5128 56.9357 73.2328C58.131 74.3947 59.5524 75.2984 61.1116 75.8879C62.6709 76.4773 64.3347 76.7399 65.9997 76.6593C67.6649 76.737 69.3284 76.4714 70.8867 75.8791C72.445 75.2868 73.8649 74.3805 75.0582 73.2163C77.457 70.4947 78.7844 66.9937 78.7927 63.3658C78.7811 62.9 78.5864 62.4574 78.2508 62.1341C77.9152 61.8109 77.4656 61.6329 76.9997 61.6388Z" fill="white"/>
<path d="M126.5 76.6592C119.022 87.8588 108.862 97.0114 96.9456 103.285C85.029 109.558 71.7332 112.753 58.2673 112.58C27.7863 112.58 22.1708 107.08 7.98633 98.6702C10.9273 106.82 16.3097 113.866 23.4 118.846C30.4903 123.826 38.9438 126.499 47.6083 126.5H84.3923C95.5601 126.5 106.27 122.064 114.167 114.167C122.064 106.27 126.5 95.5599 126.5 84.3922V76.6592Z" fill="#0480D6"/>
</svg>
