<svg width="250" height="250" viewBox="0 0 250 250" fill="none" xmlns="http://www.w3.org/2000/svg">
<path d="M159.834 10.417H90.167C46.1223 10.417 10.417 46.1223 10.417 90.167V159.834C10.417 203.878 46.1223 239.584 90.167 239.584H159.834C203.878 239.584 239.584 203.878 239.584 159.834V90.167C239.584 46.1223 203.878 10.417 159.834 10.417Z" fill="#F8DE40"/>
<path d="M92.7813 102.542C92.7716 102.941 92.6361 103.327 92.3943 103.644C92.1524 103.962 91.8165 104.195 91.4343 104.311C91.0522 104.426 90.6434 104.418 90.2661 104.287C89.8889 104.157 89.5625 103.911 89.3334 103.584C87.7739 101.237 85.7582 99.2286 83.4063 97.6773C80.4502 95.7146 76.9807 94.6676 73.4324 94.6676C69.884 94.6676 66.4145 95.7146 63.4584 97.6773C61.097 99.2325 59.0739 101.248 57.5105 103.604C57.2814 103.931 56.955 104.178 56.5778 104.308C56.2005 104.439 55.7917 104.447 55.4096 104.331C55.0274 104.216 54.6915 103.983 54.4496 103.665C54.2077 103.348 54.0723 102.962 54.0626 102.563C54.0198 98.7046 55.2909 94.9466 57.6667 91.9065C59.5455 89.5246 61.9397 87.5995 64.6695 86.2759C67.3992 84.9523 70.3934 84.2646 73.4271 84.2646C76.4609 84.2646 79.4551 84.9523 82.1848 86.2759C84.9146 87.5995 87.3088 89.5246 89.1876 91.9065C91.5494 94.9456 92.8157 98.6932 92.7813 102.542Z" fill="#864E20"/>
<path d="M195.938 102.542C195.928 102.941 195.792 103.327 195.551 103.644C195.309 103.962 194.973 104.195 194.591 104.311C194.208 104.426 193.8 104.418 193.422 104.287C193.045 104.157 192.719 103.911 192.49 103.584C190.931 101.24 188.919 99.2318 186.573 97.6773C183.615 95.7137 180.144 94.6662 176.594 94.6662C173.044 94.6662 169.572 95.7137 166.615 97.6773C164.253 99.2325 162.23 101.248 160.667 103.604C160.438 103.931 160.111 104.178 159.734 104.308C159.357 104.439 158.948 104.447 158.566 104.331C158.184 104.216 157.848 103.983 157.606 103.665C157.364 103.348 157.229 102.962 157.219 102.563C157.176 98.7046 158.447 94.9466 160.823 91.9065C162.702 89.5246 165.096 87.5995 167.826 86.2759C170.555 84.9523 173.55 84.2646 176.583 84.2646C179.617 84.2646 182.611 84.9523 185.341 86.2759C188.071 87.5995 190.465 89.5246 192.344 91.9065C194.706 94.9456 195.972 98.6932 195.938 102.542Z" fill="#864E20"/>
<path d="M239.583 145.188C225.419 166.399 206.178 183.733 183.608 195.615C161.039 207.496 135.858 213.548 110.354 213.219C52.625 213.219 41.9896 202.802 15.125 186.875C20.695 202.311 30.8889 215.654 44.3176 225.086C57.7462 234.518 73.7565 239.581 90.1667 239.583H159.833C180.984 239.583 201.269 231.181 216.225 216.225C231.181 201.269 239.583 180.984 239.583 159.833V145.188Z" fill="#E7C930"/>
<path d="M74.2396 125H175.76C181.112 125 186.244 127.126 190.028 130.91C193.812 134.694 195.938 139.826 195.938 145.177C195.938 150.529 193.812 155.663 190.028 159.448C186.245 163.234 181.113 165.362 175.76 165.365H74.2396C68.8883 165.365 63.7562 163.239 59.9722 159.455C56.1883 155.671 54.0625 150.539 54.0625 145.187C54.0611 142.537 54.582 139.912 55.5954 137.463C56.6088 135.014 58.0948 132.788 59.9685 130.913C61.8423 129.039 64.0671 127.552 66.5157 126.537C68.9644 125.522 71.589 125 74.2396 125Z" fill="white"/>
<path d="M125 147.791C160.6 147.791 189.459 146.625 189.459 145.187C189.459 143.749 160.6 142.583 125 142.583C89.401 142.583 60.542 143.749 60.542 145.187C60.542 146.625 89.401 147.791 125 147.791Z" fill="#E6E7E8"/>
<path d="M75.5934 160.166C76.79 160.166 77.7601 153.46 77.7601 145.187C77.7601 136.914 76.79 130.208 75.5934 130.208C74.3968 130.208 73.4268 136.914 73.4268 145.187C73.4268 153.46 74.3968 160.166 75.5934 160.166Z" fill="#E6E7E8"/>
<path d="M100.292 160.166C101.488 160.166 102.458 153.46 102.458 145.187C102.458 136.914 101.488 130.208 100.292 130.208C99.0951 130.208 98.125 136.914 98.125 145.187C98.125 153.46 99.0951 160.166 100.292 160.166Z" fill="#E6E7E8"/>
<path d="M125 160.166C126.196 160.166 127.166 153.46 127.166 145.187C127.166 136.914 126.196 130.208 125 130.208C123.803 130.208 122.833 136.914 122.833 145.187C122.833 153.46 123.803 160.166 125 160.166Z" fill="#E6E7E8"/>
<path d="M149.709 160.166C150.905 160.166 151.875 153.46 151.875 145.187C151.875 136.914 150.905 130.208 149.709 130.208C148.512 130.208 147.542 136.914 147.542 145.187C147.542 153.46 148.512 160.166 149.709 160.166Z" fill="#E6E7E8"/>
<path d="M174.406 160.166C175.603 160.166 176.573 153.46 176.573 145.187C176.573 136.914 175.603 130.208 174.406 130.208C173.209 130.208 172.239 136.914 172.239 145.187C172.239 153.46 173.209 160.166 174.406 160.166Z" fill="#E6E7E8"/>
</svg>
