<svg width="250" height="250" viewBox="0 0 250 250" fill="none" xmlns="http://www.w3.org/2000/svg">
<path d="M159.834 10.417H90.167C46.1223 10.417 10.417 46.1223 10.417 90.167V159.834C10.417 203.878 46.1223 239.584 90.167 239.584H159.834C203.878 239.584 239.584 203.878 239.584 159.834V90.167C239.584 46.1223 203.878 10.417 159.834 10.417Z" fill="#F8DE40"/>
<path d="M145.834 116.74C145.396 116.749 144.964 116.845 144.563 117.021C144.163 117.197 143.801 117.451 143.498 117.767C143.195 118.083 142.957 118.456 142.799 118.865C142.64 119.273 142.564 119.708 142.573 120.146C142.5 125.229 140.658 130.127 137.365 134C135.723 135.561 133.779 136.769 131.653 137.55C129.526 138.331 127.262 138.669 125 138.542C122.743 138.673 120.483 138.343 118.358 137.573C116.232 136.803 114.285 135.609 112.636 134.062C109.324 130.184 107.481 125.266 107.427 120.167C107.436 119.729 107.358 119.294 107.198 118.886C107.038 118.479 106.799 118.107 106.495 117.791C106.192 117.476 105.829 117.224 105.427 117.048C105.026 116.873 104.594 116.779 104.157 116.771C103.719 116.763 103.284 116.841 102.876 117.001C102.469 117.161 102.097 117.399 101.781 117.703C101.466 118.007 101.213 118.369 101.038 118.771C100.863 119.172 100.769 119.604 100.761 120.042C100.771 126.914 103.285 133.546 107.834 138.698C110.097 140.898 112.79 142.61 115.743 143.726C118.696 144.843 121.847 145.34 125 145.187C128.154 145.335 131.305 144.832 134.256 143.71C137.207 142.588 139.897 140.871 142.157 138.667C146.7 133.512 149.214 126.881 149.229 120.01C149.208 119.128 148.839 118.29 148.203 117.678C147.568 117.065 146.716 116.728 145.834 116.74Z" fill="#864E20"/>
<path d="M239.583 145.188C225.419 166.399 206.178 183.733 183.608 195.615C161.039 207.496 135.858 213.548 110.354 213.219C52.625 213.219 41.9896 202.802 15.125 186.875C20.695 202.311 30.8889 215.654 44.3176 225.086C57.7462 234.518 73.7565 239.581 90.1667 239.583H159.833C180.984 239.583 201.269 231.181 216.225 216.225C231.181 201.269 239.583 180.984 239.583 159.833V145.188Z" fill="#E7C930"/>
<path d="M100 92.0106L93.9688 89.5835C90.3229 88.0835 86.6771 86.6356 82.9479 85.2918C79.2188 83.9481 75.4896 82.6772 71.6979 81.521C67.9063 80.3647 64.0834 79.3126 60.2396 78.396H60.1146C59.5246 78.2606 58.9057 78.3384 58.3676 78.6157C57.8295 78.8931 57.407 79.3519 57.1748 79.911C56.9427 80.4701 56.916 81.0933 57.0995 81.6701C57.2829 82.247 57.6647 82.7403 58.1771 83.0626L58.2813 83.1251C61.6667 85.2085 65.1146 87.2085 68.6042 89.0939C70.5556 90.1356 72.5139 91.146 74.4792 92.1251C74.9051 92.3363 75.2636 92.6623 75.5142 93.0663C75.7648 93.4702 75.8976 93.9362 75.8976 94.4116C75.8976 94.887 75.7648 95.353 75.5142 95.7569C75.2636 96.1609 74.9051 96.4869 74.4792 96.6981C72.5 97.6772 70.5417 98.6911 68.6042 99.7397C65.1146 101.615 61.6563 103.583 58.2709 105.708L58.1042 105.813C57.5971 106.138 57.2209 106.632 57.0417 107.207C56.8625 107.782 56.8918 108.402 57.1243 108.958C57.3568 109.514 57.7778 109.97 58.3132 110.246C58.8487 110.523 59.4644 110.601 60.0521 110.469H60.2396C64.1354 109.552 67.9584 108.49 71.75 107.344C75.5417 106.198 79.2813 104.906 82.9896 103.573C84.8542 102.906 86.6875 102.177 88.5313 101.49L94.0104 99.271L99.9792 96.8543C100.484 96.6824 100.922 96.3574 101.233 95.9246C101.544 95.4918 101.713 94.9728 101.715 94.4399C101.717 93.9069 101.553 93.3864 101.246 92.951C100.939 92.5156 100.503 92.1869 100 92.0106Z" fill="#864E20"/>
<path d="M195.938 102.542C195.928 102.941 195.792 103.327 195.551 103.644C195.309 103.962 194.973 104.195 194.591 104.311C194.208 104.426 193.8 104.418 193.422 104.287C193.045 104.157 192.719 103.911 192.49 103.584C190.931 101.24 188.919 99.2318 186.573 97.6773C183.615 95.7137 180.144 94.6662 176.594 94.6662C173.044 94.6662 169.572 95.7137 166.615 97.6773C164.253 99.2325 162.23 101.248 160.667 103.604C160.438 103.931 160.111 104.178 159.734 104.308C159.357 104.439 158.948 104.447 158.566 104.331C158.184 104.216 157.848 103.983 157.606 103.665C157.364 103.348 157.229 102.962 157.219 102.563C157.176 98.7046 158.447 94.9466 160.823 91.9065C162.702 89.5246 165.096 87.5995 167.826 86.2759C170.555 84.9523 173.55 84.2646 176.583 84.2646C179.617 84.2646 182.611 84.9523 185.341 86.2759C188.071 87.5995 190.465 89.5246 192.344 91.9065C194.706 94.9456 195.972 98.6932 195.938 102.542Z" fill="#864E20"/>
</svg>
