<svg width="250" height="250" viewBox="0 0 250 250" fill="none" xmlns="http://www.w3.org/2000/svg">
<path d="M159.834 10.417H90.167C46.1223 10.417 10.417 46.1223 10.417 90.167V159.834C10.417 203.878 46.1223 239.584 90.167 239.584H159.834C203.878 239.584 239.584 203.878 239.584 159.834V90.167C239.584 46.1223 203.878 10.417 159.834 10.417Z" fill="#F8DE40"/>
<path d="M92.7813 102.542C92.7716 102.941 92.6361 103.327 92.3943 103.644C92.1524 103.962 91.8165 104.195 91.4343 104.311C91.0522 104.426 90.6434 104.418 90.2661 104.287C89.8889 104.157 89.5625 103.911 89.3334 103.584C87.7739 101.237 85.7582 99.2286 83.4063 97.6773C80.4502 95.7146 76.9807 94.6676 73.4324 94.6676C69.884 94.6676 66.4145 95.7146 63.4584 97.6773C61.097 99.2325 59.0739 101.248 57.5105 103.604C57.2814 103.931 56.955 104.178 56.5778 104.308C56.2005 104.439 55.7917 104.447 55.4096 104.331C55.0274 104.216 54.6915 103.983 54.4496 103.665C54.2077 103.348 54.0723 102.962 54.0626 102.563C54.0198 98.7046 55.2909 94.9466 57.6667 91.9065C59.5455 89.5246 61.9397 87.5995 64.6695 86.2759C67.3992 84.9523 70.3934 84.2646 73.4271 84.2646C76.4609 84.2646 79.4551 84.9523 82.1848 86.2759C84.9146 87.5995 87.3088 89.5246 89.1876 91.9065C91.5494 94.9456 92.8157 98.6932 92.7813 102.542Z" fill="#864E20"/>
<path d="M195.938 102.542C195.928 102.941 195.792 103.327 195.551 103.644C195.309 103.962 194.973 104.195 194.591 104.311C194.208 104.426 193.8 104.418 193.422 104.287C193.045 104.157 192.719 103.911 192.49 103.584C190.931 101.24 188.919 99.2318 186.573 97.6773C183.615 95.7137 180.144 94.6662 176.594 94.6662C173.044 94.6662 169.572 95.7137 166.615 97.6773C164.253 99.2325 162.23 101.248 160.667 103.604C160.438 103.931 160.111 104.178 159.734 104.308C159.357 104.439 158.948 104.447 158.566 104.331C158.184 104.216 157.848 103.983 157.606 103.665C157.364 103.348 157.229 102.962 157.219 102.563C157.176 98.7046 158.447 94.9466 160.823 91.9065C162.702 89.5246 165.096 87.5995 167.826 86.2759C170.555 84.9523 173.55 84.2646 176.583 84.2646C179.617 84.2646 182.611 84.9523 185.341 86.2759C188.071 87.5995 190.465 89.5246 192.344 91.9065C194.706 94.9456 195.972 98.6932 195.938 102.542Z" fill="#864E20"/>
<path d="M239.583 145.188C225.419 166.399 206.178 183.733 183.608 195.615C161.039 207.496 135.858 213.548 110.354 213.219C52.625 213.219 41.9896 202.802 15.125 186.875C20.695 202.311 30.8889 215.654 44.3176 225.086C57.7462 234.518 73.7565 239.581 90.1667 239.583H159.833C180.984 239.583 201.269 231.181 216.225 216.225C231.181 201.269 239.583 180.984 239.583 159.833V145.188Z" fill="#E7C930"/>
<path d="M162.843 135.343C151.405 142.244 138.355 146.019 125 146.291C111.644 146.019 98.5941 142.244 87.1559 135.343C83.3747 132.833 82.1768 133.104 82.1768 134C82.1768 145 103.583 151.791 125 151.791C146.416 151.791 167.823 145 167.823 134C167.823 133.104 166.666 132.833 162.843 135.343Z" fill="#864E20"/>
<path d="M136.834 158.156C133.239 160.244 129.157 161.343 125 161.343C120.844 161.343 116.761 160.244 113.167 158.156C110.375 156.073 110.542 162.125 116.719 163.74C119.394 164.744 122.202 165.347 125.052 165.531C127.903 165.347 130.711 164.744 133.386 163.74C139.459 162.125 139.584 156.042 136.834 158.156Z" fill="#E7C930"/>
</svg>
