<svg width="250" height="250" viewBox="0 0 250 250" fill="none" xmlns="http://www.w3.org/2000/svg">
<path d="M159.834 10.417H90.167C46.1223 10.417 10.417 46.1223 10.417 90.167V159.834C10.417 203.878 46.1223 239.584 90.167 239.584H159.834C203.878 239.584 239.584 203.878 239.584 159.834V90.167C239.584 46.1223 203.878 10.417 159.834 10.417Z" fill="#F9DF41"/>
<path d="M73.4893 76.1768C69.8887 76.1726 66.3679 77.2367 63.3723 79.2343C60.3767 81.2318 58.041 84.0731 56.6607 87.3986C55.2805 90.7241 54.9177 94.3843 55.6184 97.916C56.3191 101.448 58.0516 104.692 60.5969 107.239C63.1421 109.786 66.3856 111.52 69.9169 112.223C73.4482 112.925 77.1086 112.565 80.4349 111.186C83.7611 109.808 86.6038 107.474 88.6031 104.479C90.6023 101.485 91.6684 97.9648 91.6663 94.3643C91.6636 89.5433 89.748 84.9204 86.34 81.5105C82.932 78.1006 78.3102 76.1823 73.4893 76.1768Z" fill="#864E20"/>
<path d="M176.646 76.1768C173.044 76.1665 169.52 77.2253 166.52 79.2191C163.52 81.2129 161.18 84.052 159.795 87.3769C158.41 90.7019 158.042 94.363 158.74 97.8968C159.437 101.431 161.167 104.678 163.711 107.228C166.255 109.778 169.498 111.515 173.03 112.22C176.563 112.926 180.225 112.567 183.553 111.189C186.881 109.812 189.725 107.478 191.726 104.483C193.727 101.488 194.793 97.9662 194.791 94.3643C194.789 89.5488 192.877 84.9306 189.476 81.5216C186.075 78.1125 181.461 76.1906 176.646 76.1768Z" fill="#864E20"/>
<path d="M239.583 145.188C225.419 166.399 206.178 183.733 183.608 195.615C161.039 207.496 135.858 213.548 110.354 213.219C52.625 213.219 41.9896 202.802 15.125 186.875C20.695 202.311 30.8889 215.654 44.3176 225.086C57.7462 234.518 73.7565 239.581 90.1667 239.583H159.833C180.984 239.583 201.269 231.181 216.225 216.225C231.181 201.269 239.583 180.984 239.583 159.833V145.188Z" fill="#E7C930"/>
<path d="M172.916 144.282C158.507 135.451 141.899 130.865 125 131.053C108.101 130.865 91.492 135.451 77.083 144.282C77.083 144.282 72.3851 147.136 75.3226 141.438C78.2601 135.74 94.7705 131.75 94.9268 129.636C103.644 123.189 114.199 119.71 125.041 119.71C135.883 119.71 146.439 123.189 155.156 129.636C155.312 131.719 171.823 135.74 174.76 141.438C177.698 147.136 172.916 144.282 172.916 144.282Z" fill="#864E20"/>
<path d="M150.23 155.782C142.577 151.3 133.869 148.938 125 148.938C116.132 148.938 107.424 151.3 99.7713 155.782C95.3546 158.157 94.8129 154.073 103.438 148.938C109.879 144.76 117.329 142.399 125 142.104C132.672 142.399 140.122 144.76 146.563 148.938C155.209 154.073 154.646 158.157 150.23 155.782Z" fill="#E7C930"/>
</svg>
