<svg width="250" height="250" viewBox="0 0 250 250" fill="none" xmlns="http://www.w3.org/2000/svg">
<path d="M159.834 10.417H90.167C46.1223 10.417 10.417 46.1223 10.417 90.167V159.834C10.417 203.878 46.1223 239.584 90.167 239.584H159.834C203.878 239.584 239.584 203.878 239.584 159.834V90.167C239.584 46.1223 203.878 10.417 159.834 10.417Z" fill="#F8DE40"/>
<path d="M239.583 145.188C225.419 166.399 206.178 183.733 183.608 195.615C161.039 207.496 135.858 213.548 110.354 213.219C52.625 213.219 41.9896 202.802 15.125 186.875C20.695 202.311 30.8889 215.654 44.3176 225.086C57.7462 234.518 73.7565 239.581 90.1667 239.583H159.833C180.984 239.583 201.269 231.181 216.225 216.225C231.181 201.269 239.583 180.984 239.583 159.833V145.188Z" fill="#E7C930"/>
<path d="M73.4893 76.1768C69.8887 76.1726 66.3679 77.2367 63.3723 79.2343C60.3767 81.2318 58.041 84.0731 56.6607 87.3986C55.2805 90.7241 54.9177 94.3843 55.6184 97.916C56.3191 101.448 58.0516 104.692 60.5969 107.239C63.1421 109.786 66.3856 111.52 69.9169 112.223C73.4482 112.925 77.1086 112.565 80.4349 111.186C83.7611 109.808 86.6038 107.474 88.6031 104.479C90.6023 101.485 91.6684 97.9648 91.6663 94.3643C91.6636 89.5433 89.748 84.9204 86.34 81.5105C82.932 78.1006 78.3102 76.1823 73.4893 76.1768Z" fill="#864E20"/>
<path d="M176.646 76.1768C173.044 76.1665 169.52 77.2253 166.52 79.2191C163.52 81.2129 161.18 84.052 159.795 87.3769C158.41 90.7019 158.042 94.363 158.74 97.8968C159.437 101.431 161.167 104.678 163.711 107.228C166.255 109.778 169.498 111.515 173.03 112.22C176.563 112.926 180.225 112.567 183.553 111.189C186.881 109.812 189.725 107.478 191.726 104.483C193.727 101.488 194.793 97.9662 194.791 94.3643C194.789 89.5488 192.877 84.9306 189.476 81.5216C186.075 78.1125 181.461 76.1906 176.646 76.1768Z" fill="#864E20"/>
<path d="M87.7079 145.011C86.2528 134.78 81.2097 125.399 73.4788 118.542C65.7524 125.401 60.7133 134.782 59.26 145.011C58.1038 160.386 69.0204 163.365 73.4788 163.365C77.9371 163.365 88.8642 160.417 87.7079 145.011Z" fill="#26A9E0"/>
<path d="M151.167 139.229C142.973 135.408 134.042 133.427 125 133.427C115.959 133.427 107.027 135.408 98.8336 139.229C92.6669 143.073 93.0315 132 106.677 129.083C112.629 127.252 118.782 126.154 125 125.812C131.218 126.154 137.371 127.252 143.323 129.083C156.969 132 157.292 143.073 151.167 139.229Z" fill="#864E20"/>
<path d="M136.187 148.635C132.684 147.002 128.865 146.156 125 146.156C121.134 146.156 117.316 147.002 113.812 148.635C111.177 150.281 111.333 145.51 117.167 144.302C119.711 143.52 122.342 143.051 125 142.906C127.658 143.051 130.288 143.52 132.833 144.302C138.667 145.552 138.823 150.281 136.187 148.635Z" fill="#E7C930"/>
</svg>
