<svg width="189" height="189" viewBox="0 0 189 189" fill="none" xmlns="http://www.w3.org/2000/svg">
<path d="M189 94.5C189 146.691 146.691 189 94.5 189C42.3091 189 0 146.691 0 94.5C0 42.3091 42.3091 0 94.5 0C146.691 0 189 42.3091 189 94.5Z" fill="#0084DF"/>
<path d="M113.392 34.5H76.608C53.3524 34.5 34.5 53.3524 34.5 76.608V113.392C34.5 136.648 53.3524 155.5 76.608 155.5H113.392C136.648 155.5 155.5 136.648 155.5 113.392V76.608C155.5 53.3524 136.648 34.5 113.392 34.5Z" fill="white"/>
<path d="M67.8021 69.2217C65.901 69.2195 64.042 69.7813 62.4604 70.836C60.8787 71.8908 59.6454 73.391 58.9167 75.1468C58.1879 76.9027 57.9964 78.8352 58.3663 80.7C58.7363 82.5647 59.6511 84.2778 60.9949 85.6225C62.3388 86.9671 64.0514 87.8829 65.9159 88.2539C67.7804 88.6249 69.7131 88.4345 71.4694 87.7067C73.2257 86.979 74.7266 85.7466 75.7822 84.1655C76.8378 82.5844 77.4007 80.7258 77.3996 78.8247C77.3982 76.2792 76.3867 73.8383 74.5873 72.0379C72.7879 70.2374 70.3476 69.2246 67.8021 69.2217Z" fill="#0084DF"/>
<path d="M122.269 69.2217C120.367 69.2163 118.506 69.7753 116.923 70.828C115.339 71.8808 114.103 73.3798 113.372 75.1354C112.64 76.8909 112.446 78.824 112.815 80.6899C113.183 82.5557 114.096 84.2703 115.439 85.6166C116.783 86.9629 118.495 87.8803 120.36 88.2527C122.225 88.6251 124.159 88.4356 125.916 87.7083C127.673 86.9811 129.175 85.7487 130.231 84.1673C131.288 82.5858 131.851 80.7265 131.85 78.8247C131.848 76.2821 130.839 73.8437 129.043 72.0437C127.248 70.2438 124.811 69.229 122.269 69.2217Z" fill="#0084DF"/>
<path d="M106 90.6388C105.768 90.6438 105.541 90.6943 105.329 90.7874C105.117 90.8805 104.926 91.0144 104.766 91.1814C104.606 91.3484 104.481 91.5453 104.397 91.7608C104.313 91.9763 104.273 92.2062 104.278 92.4373C104.239 95.1211 103.267 97.7076 101.528 99.7523C100.661 100.577 99.6348 101.214 98.5121 101.627C97.3893 102.039 96.1939 102.217 94.9997 102.15C93.808 102.22 92.6146 102.046 91.4923 101.639C90.37 101.232 89.3421 100.602 88.4712 99.7853C86.7227 97.7377 85.7494 95.1407 85.7212 92.4483C85.7255 92.2172 85.6843 91.9875 85.5998 91.7723C85.5154 91.5571 85.3894 91.3606 85.229 91.1941C85.0686 91.0276 84.8771 90.8944 84.6652 90.8019C84.4533 90.7095 84.2253 90.6597 83.9942 90.6553C83.763 90.651 83.5333 90.6922 83.3181 90.7767C83.1029 90.8611 82.9065 90.9871 82.74 91.1475C82.5735 91.3078 82.4402 91.4994 82.3478 91.7113C82.2553 91.9232 82.2055 92.1512 82.2012 92.3823C82.2065 96.0107 83.5342 99.5128 85.9357 102.233C87.131 103.395 88.5524 104.298 90.1116 104.888C91.6709 105.477 93.3347 105.74 94.9997 105.659C96.6649 105.737 98.3284 105.471 99.8867 104.879C101.445 104.287 102.865 103.381 104.058 102.216C106.457 99.4947 107.784 95.9937 107.793 92.3658C107.781 91.9 107.586 91.4574 107.251 91.1341C106.915 90.8109 106.466 90.6329 106 90.6388Z" fill="#0084DF"/>
<path d="M155.5 105.659C148.022 116.859 137.862 126.011 125.946 132.285C114.029 138.558 100.733 141.753 87.2673 141.58C56.7863 141.58 51.1708 136.08 36.9863 127.67C39.9273 135.82 45.3097 142.866 52.4 147.846C59.4903 152.826 67.9438 155.499 76.6083 155.5H113.392C124.56 155.5 135.27 151.064 143.167 143.167C151.064 135.27 155.5 124.56 155.5 113.392V105.659Z" fill="#F3F3F3"/>
</svg>
