<svg width="120" height="120" viewBox="0 0 120 120" fill="none" xmlns="http://www.w3.org/2000/svg">
<path d="M49.1252 110C46.5418 110 44.2919 109.145 42.3752 107.435C40.4585 105.725 39.3752 103.58 39.1252 101L35.2502 57.75C35.1669 56.9167 35.3135 56.1467 35.6902 55.44C36.0668 54.7333 36.6285 54.17 37.3752 53.75C38.0418 53.3333 38.6252 52.8333 39.1252 52.25C39.6252 51.6667 39.8752 50.9583 39.8752 50.125C39.8752 49.375 39.7085 48.6867 39.3752 48.06C39.0418 47.4333 38.5418 46.9133 37.8752 46.5C37.0418 46.0833 36.4168 45.4367 36.0002 44.56C35.5835 43.6833 35.5002 42.7883 35.7502 41.875L39.0002 28.75C39.2502 27.5833 39.8335 26.6667 40.7502 26C41.6668 25.3333 42.7085 25 43.8752 25H57.5002V20H50.0002V10H75.0002V20H67.5002V25H81.1252C82.2919 25 83.3135 25.3333 84.1902 26C85.0668 26.6667 85.6285 27.5833 85.8752 28.75L89.2502 41.875C89.5002 42.7917 89.4168 43.6867 89.0002 44.56C88.5835 45.4333 87.9585 46.08 87.1252 46.5C86.4585 46.8333 85.9368 47.2917 85.5602 47.875C85.1835 48.4583 84.9968 49.125 85.0002 49.875C85.0002 50.7917 85.2302 51.5633 85.6902 52.19C86.1502 52.8167 86.7535 53.3367 87.5002 53.75C88.2502 54.1667 88.8335 54.73 89.2502 55.44C89.6669 56.15 89.8335 56.92 89.7502 57.75L85.8752 100.875C85.6252 103.458 84.5418 105.625 82.6252 107.375C80.7085 109.125 78.4585 110 75.8752 110H49.1252Z" fill="white"/>
</svg>
