<svg width="120" height="120" viewBox="0 0 120 120" fill="none" xmlns="http://www.w3.org/2000/svg">
<path opacity="0.3" d="M65 85C73.25 85 80 78.25 80 70V55H50V70C50 78.25 56.75 85 65 85Z" fill="white"/>
<path d="M45 25H85C87.75 25 90 22.75 90 20V10H100V0H30C24.5 0 20 4.5 20 10V90C20 95.5 24.5 100 30 100H100V90H79.85C82.9924 87.6965 85.5485 84.6857 87.3118 81.2113C89.0751 77.7369 89.996 73.8963 90 70V45H40V70C40 78.2 44.05 85.45 50.15 90H30V10H40V20C40 22.75 42.25 25 45 25ZM50 70V55H80V70C80 78.25 73.25 85 65 85C56.75 85 50 78.25 50 70Z" fill="white"/>
<path d="M65 40C67.7614 40 70 37.7614 70 35C70 32.2386 67.7614 30 65 30C62.2386 30 60 32.2386 60 35C60 37.7614 62.2386 40 65 40Z" fill="white"/>
</svg>
