<svg width="189" height="189" viewBox="0 0 189 189" fill="none" xmlns="http://www.w3.org/2000/svg">
<path d="M189 94.5C189 146.691 146.691 189 94.5 189C42.3091 189 0 146.691 0 94.5C0 42.3091 42.3091 0 94.5 0C146.691 0 189 42.3091 189 94.5Z" fill="#0084DF"/>
<path d="M49 76.96L57.1691 150.805C57.359 152.516 58.1776 154.095 59.467 155.239C60.7564 156.383 62.4252 157.01 64.1513 157H123.081C124.807 157.01 126.476 156.383 127.765 155.239C129.054 154.095 129.873 152.516 130.063 150.805L139 70C95.0124 70.348 92.5687 76.5424 49 76.96Z" fill="#0290FF"/>
<path d="M50 77C93.5687 76.58 96.0124 70.35 140 70" stroke="white" stroke-width="14" stroke-linecap="round" stroke-linejoin="round"/>
<path d="M136.035 32.0001C137.012 31.9942 137.979 32.1957 138.873 32.5914C139.767 32.9872 140.567 33.5682 141.221 34.2963C141.874 35.0244 142.367 35.883 142.667 36.8158C142.966 37.7486 143.065 38.7344 142.958 39.7084L130.705 150.819C130.517 152.526 129.705 154.102 128.427 155.243C127.148 156.384 125.494 157.01 123.782 157H65.2868C63.5754 157.01 61.9209 156.384 60.6425 155.243C59.3641 154.102 58.5524 152.526 58.3642 150.819L46.042 39.7084C45.9345 38.7344 46.0338 37.7486 46.3332 36.8158C46.6327 35.883 47.1255 35.0244 47.7794 34.2963C48.4332 33.5682 49.2333 32.9872 50.127 32.5914C51.0207 32.1957 51.9877 31.9942 52.9646 32.0001H136.035Z" stroke="white" stroke-width="14" stroke-linecap="round" stroke-linejoin="round"/>
</svg>
