<svg width="189" height="189" viewBox="0 0 189 189" fill="none" xmlns="http://www.w3.org/2000/svg">
<path d="M189 94.5C189 146.691 146.691 189 94.5 189C42.3091 189 0 146.691 0 94.5C0 42.3091 42.3091 0 94.5 0C146.691 0 189 42.3091 189 94.5Z" fill="#0084DF"/>
<path d="M140.5 49.5H134V43C134 41.2761 133.315 39.6228 132.096 38.4038C130.877 37.1848 129.224 36.5 127.5 36.5H49.5C47.7761 36.5 46.1228 37.1848 44.9038 38.4038C43.6848 39.6228 43 41.2761 43 43V101.5C43 108.396 45.7393 115.009 50.6152 119.885C55.4912 124.761 62.1044 127.5 69 127.5H108C120.077 127.5 130.172 119.187 133.077 108H140.5C145.672 108 150.632 105.945 154.289 102.289C157.946 98.6316 160 93.6717 160 88.5V69C160 63.8283 157.946 58.8684 154.289 55.2114C150.632 51.5545 145.672 49.5 140.5 49.5ZM147 88.5C147 90.2239 146.315 91.8772 145.096 93.0962C143.877 94.3152 142.224 95 140.5 95H134V62.5H140.5C142.224 62.5 143.877 63.1848 145.096 64.4038C146.315 65.6228 147 67.2761 147 69V88.5ZM134 140.5H36.5C36.5 151.251 45.249 160 56 160H127.5C138.251 160 147 151.251 147 140.5H134Z" fill="white"/>
</svg>
