<svg width="156" height="156" viewBox="0 0 156 156" fill="none" xmlns="http://www.w3.org/2000/svg">
<path d="M123.5 32.5H117V26C117 24.2761 116.315 22.6228 115.096 21.4038C113.877 20.1848 112.224 19.5 110.5 19.5H32.5C30.7761 19.5 29.1228 20.1848 27.9038 21.4038C26.6848 22.6228 26 24.2761 26 26V84.5C26 91.3956 28.7393 98.0088 33.6152 102.885C38.4912 107.761 45.1044 110.5 52 110.5H91C103.077 110.5 113.172 102.187 116.077 91H123.5C128.672 91 133.632 88.9455 137.289 85.2886C140.946 81.6316 143 76.6717 143 71.5V52C143 46.8283 140.946 41.8684 137.289 38.2114C133.632 34.5545 128.672 32.5 123.5 32.5ZM130 71.5C130 73.2239 129.315 74.8772 128.096 76.0962C126.877 77.3152 125.224 78 123.5 78H117V45.5H123.5C125.224 45.5 126.877 46.1848 128.096 47.4038C129.315 48.6228 130 50.2761 130 52V71.5ZM117 123.5H19.5C19.5 134.251 28.249 143 39 143H110.5C121.251 143 130 134.251 130 123.5H117Z" fill="#008BFF"/>
</svg>
