<svg width="72" height="72" viewBox="0 0 72 72" fill="none" xmlns="http://www.w3.org/2000/svg">
<g clip-path="url(#clip0_308_672)">
<path d="M72 66.7053V26.47C72 25.8855 71.5257 25.4111 70.9412 25.4111C70.3567 25.4111 69.8824 25.8855 69.8824 26.47V66.7053C69.8824 67.2897 69.408 67.7641 68.8235 67.7641H3.17647C2.592 67.7641 2.11765 67.2897 2.11765 66.7053V26.47C2.11765 25.8855 1.64329 25.4111 1.05882 25.4111C0.474353 25.4111 0 25.8855 0 26.47V66.7053C0 68.4565 1.42518 69.8817 3.17647 69.8817H68.8235C70.5748 69.8817 72 68.4565 72 66.7053Z" fill="white"/>
<path d="M9.52953 50.8234C8.94506 50.8234 8.4707 51.2978 8.4707 51.8822C8.4707 52.4667 8.94506 52.9411 9.52953 52.9411H12.706V60.3528C12.706 60.9373 13.1803 61.4116 13.7648 61.4116C14.3493 61.4116 14.8236 60.9373 14.8236 60.3528V52.9411H27.5295V60.3528C27.5295 60.9373 28.0039 61.4116 28.5883 61.4116C29.1728 61.4116 29.6472 60.9373 29.6472 60.3528V52.9411H42.3531V60.3528C42.3531 60.9373 42.8274 61.4116 43.4119 61.4116C43.9963 61.4116 44.4707 60.9373 44.4707 60.3528V52.9411H57.1766V60.3528C57.1766 60.9373 57.6509 61.4116 58.2354 61.4116C58.8199 61.4116 59.2942 60.9373 59.2942 60.3528V52.9411H62.4707C63.0552 52.9411 63.5295 52.4667 63.5295 51.8822C63.5295 51.2978 63.0552 50.8234 62.4707 50.8234H59.2942V40.2352H62.4707C63.0552 40.2352 63.5295 39.7608 63.5295 39.1764C63.5295 38.5919 63.0552 38.1175 62.4707 38.1175H59.2942V28.5881C59.2942 28.0036 58.8199 27.5293 58.2354 27.5293C57.6509 27.5293 57.1766 28.0036 57.1766 28.5881V38.1175H44.4707V28.5881C44.4707 28.0036 43.9963 27.5293 43.4119 27.5293C42.8274 27.5293 42.3531 28.0036 42.3531 28.5881V38.1175H29.6472V28.5881C29.6472 28.0036 29.1728 27.5293 28.5883 27.5293C28.0039 27.5293 27.5295 28.0036 27.5295 28.5881V38.1175H14.8236V28.5881C14.8236 28.0036 14.3493 27.5293 13.7648 27.5293C13.1803 27.5293 12.706 28.0036 12.706 28.5881V38.1175H9.52953C8.94506 38.1175 8.4707 38.5919 8.4707 39.1764C8.4707 39.7608 8.94506 40.2352 9.52953 40.2352H12.706V50.8234H9.52953ZM57.1766 40.2352V50.8234H44.4707V40.2352H57.1766ZM42.3531 40.2352V50.8234H29.6472V40.2352H42.3531ZM14.8236 40.2352H27.5295V50.8234H14.8236V40.2352Z" fill="white"/>
<path d="M60.3529 8.47019H69.3529C69.5372 8.47019 69.8824 8.47019 69.8824 9.52901V19.0584H2.11765V9.52901C2.11765 8.94454 2.592 8.47019 3.17647 8.47019H11.6471C12.2315 8.47019 12.7059 7.99583 12.7059 7.41136C12.7059 6.82689 12.2315 6.35254 11.6471 6.35254H3.17647C1.42518 6.35254 0 7.77772 0 9.52901V20.1172C0 20.7017 0.474353 21.1761 1.05882 21.1761H70.9412C71.5257 21.1761 72 20.7017 72 20.1172V9.52901C72 7.18689 70.632 6.35254 69.3529 6.35254H60.3529C59.7685 6.35254 59.2941 6.82689 59.2941 7.41136C59.2941 7.99583 59.7685 8.47019 60.3529 8.47019Z" fill="white"/>
<path d="M47.6469 8.47019C48.2314 8.47019 48.7057 7.99583 48.7057 7.41136C48.7057 6.82689 48.2314 6.35254 47.6469 6.35254H24.3528C23.7683 6.35254 23.2939 6.82689 23.2939 7.41136C23.2939 7.99583 23.7683 8.47019 24.3528 8.47019H47.6469Z" fill="white"/>
<path d="M19.0591 11.6466V3.17601C19.0591 2.59154 18.5847 2.11719 18.0002 2.11719C17.4158 2.11719 16.9414 2.59154 16.9414 3.17601V11.6466C16.9414 12.2311 17.4158 12.7054 18.0002 12.7054C18.5847 12.7054 19.0591 12.2311 19.0591 11.6466Z" fill="white"/>
<path d="M54.0002 12.7054C54.5847 12.7054 55.0591 12.2311 55.0591 11.6466V3.17601C55.0591 2.59154 54.5847 2.11719 54.0002 2.11719C53.4158 2.11719 52.9414 2.59154 52.9414 3.17601V11.6466C52.9414 12.2311 53.4158 12.7054 54.0002 12.7054Z" fill="white"/>
</g>
<defs>
<clipPath id="clip0_308_672">
<rect width="72" height="72" fill="white"/>
</clipPath>
</defs>
</svg>
