<svg width="189" height="189" viewBox="0 0 189 189" fill="none" xmlns="http://www.w3.org/2000/svg">
<path d="M189 94.5C189 146.691 146.691 189 94.5 189C42.3091 189 0 146.691 0 94.5C0 42.3091 42.3091 0 94.5 0C146.691 0 189 42.3091 189 94.5Z" fill="#0084DF"/>
<path d="M144.222 33H47.7778C40.2 33 34 39.2 34 46.7778V143.222C34 150.8 40.2 157 47.7778 157H144.222C151.8 157 158 150.8 158 143.222V46.7778C158 39.2 151.8 33 144.222 33ZM102.889 61.2444L110.467 53.6667L120.111 63.3111L129.756 53.6667L137.333 61.2444L127.689 70.8889L137.333 80.5333L129.756 88.1111L120.111 78.4667L110.467 88.1111L102.889 80.5333L112.533 70.8889L102.889 61.2444ZM56.0444 65.3778H90.4889V75.7111H56.0444V65.3778ZM92.5556 122.556H78.7778V136.333H68.4444V122.556H54.6667V112.222H68.4444V98.4444H78.7778V112.222H92.5556V122.556ZM137.333 130.822H102.889V120.489H137.333V130.822ZM137.333 114.289H102.889V103.956H137.333V114.289Z" fill="white"/>
</svg>
