<svg width="189" height="189" viewBox="0 0 189 189" fill="none" xmlns="http://www.w3.org/2000/svg">
<path d="M189 94.5C189 146.691 146.691 189 94.5 189C42.3091 189 0 146.691 0 94.5C0 42.3091 42.3091 0 94.5 0C146.691 0 189 42.3091 189 94.5Z" fill="#0084DF"/>
<g clip-path="url(#clip0_444_8)">
<path d="M146.82 136.823C146.345 137.88 145.305 138.506 144.217 138.506C143.826 138.506 143.429 138.426 143.049 138.255L140.683 137.191C139.246 136.545 138.605 134.857 139.251 133.421C139.897 131.984 141.585 131.345 143.021 131.989L145.388 133.053C146.825 133.699 147.466 135.387 146.82 136.823ZM64.9556 57.1491C59.7693 57.1491 55.5497 61.5953 55.5497 67.0601C55.5497 68.6351 56.8262 69.9116 58.4012 69.9116C59.9762 69.9116 61.2527 68.6351 61.2527 67.0601C61.2527 64.7399 62.9139 62.8522 64.9556 62.8522C66.5306 62.8522 67.8071 61.5757 67.8071 60.0007C67.8071 58.4257 66.5303 57.1491 64.9556 57.1491ZM142.49 116.142C142.827 116.142 143.169 116.083 143.502 115.956L145.928 115.035C147.4 114.476 148.141 112.829 147.582 111.357C147.023 109.885 145.377 109.143 143.904 109.703L141.478 110.624C140.006 111.183 139.265 112.83 139.824 114.302C140.256 115.441 141.34 116.142 142.49 116.142ZM47.937 126.385V134.743C47.937 139.352 51.6865 143.102 56.2955 143.102H89.0611C90.6361 143.102 91.9127 144.379 91.9127 145.954C91.9127 147.529 90.6361 148.805 89.0611 148.805H56.2955C48.5419 148.805 42.234 142.497 42.234 134.743V123.653C42.2324 123.613 42.2314 123.573 42.2314 123.533C42.2314 123.493 42.2321 123.453 42.234 123.413V78.8119C42.2324 78.7723 42.2314 78.7323 42.2314 78.6921C42.2314 78.6519 42.2321 78.6119 42.234 78.5723V59.4395C42.234 52.6624 47.0531 46.9901 53.444 45.6683V33.8515C53.444 32.2765 54.7205 31 56.2955 31H101.137C102.712 31 103.988 32.2765 103.988 33.8515V45.6683C110.379 46.9901 115.198 52.6624 115.198 59.4395V98.1161C115.198 99.6911 113.922 100.968 112.347 100.968C110.772 100.968 109.495 99.6911 109.495 98.1161V81.5436H47.937V120.681H89.0611C90.6361 120.681 91.9127 121.958 91.9127 123.533C91.9127 125.108 90.6361 126.384 89.0611 126.384H47.937V126.385ZM59.147 45.3777H98.2852V36.7031H59.147V45.3777ZM47.937 75.8406H109.495V59.4395C109.495 54.8305 105.746 51.0808 101.137 51.0808H56.2955C51.6865 51.0808 47.937 54.8305 47.937 59.4395V75.8406ZM55.5503 89.9024V112.323C55.5503 113.898 56.8268 115.174 58.4018 115.174C59.9768 115.174 61.2533 113.898 61.2533 112.323V89.9024C61.2533 88.3274 59.9768 87.0509 58.4018 87.0509C56.8268 87.0509 55.5503 88.3277 55.5503 89.9024ZM127.229 122.518V144.939C127.229 152.693 120.921 159 113.168 159C105.413 159 99.1058 152.693 99.1058 144.939V133.787C99.1055 133.767 99.1052 133.748 99.1052 133.728C99.1052 133.708 99.1055 133.689 99.1058 133.669V122.518C99.1058 114.764 105.413 108.456 113.167 108.456H113.168C120.921 108.456 127.229 114.764 127.229 122.518ZM121.526 122.518C121.526 117.909 117.777 114.159 113.168 114.159H113.167C108.558 114.159 104.809 117.909 104.809 122.518V130.877H113.167C114.742 130.877 116.019 132.153 116.019 133.728C116.019 135.303 114.742 136.58 113.167 136.58H104.809V144.939C104.809 149.548 108.558 153.297 113.167 153.297C117.777 153.297 121.526 149.548 121.526 144.939V122.518ZM130.112 92.81C128.676 92.1643 126.988 92.805 126.342 94.2418L125.278 96.6089C124.632 98.0454 125.273 99.7332 126.71 100.379C127.089 100.549 127.486 100.63 127.878 100.63C128.966 100.63 130.005 100.004 130.48 98.9471L131.544 96.5801C132.19 95.1435 131.548 93.4557 130.112 92.81Z" fill="white"/>
</g>
<defs>
<clipPath id="clip0_444_8">
<rect width="128" height="128" fill="white" transform="translate(31 31)"/>
</clipPath>
</defs>
</svg>
