<svg width="54" height="54" viewBox="0 0 54 54" fill="none" xmlns="http://www.w3.org/2000/svg">
<path d="M4.5 49.5L36 18M36 18H40.5C42.8869 18 45.1761 17.0518 46.864 15.364C48.5518 13.6761 49.5 11.3869 49.5 9V4.5H45C42.6131 4.5 40.3239 5.44821 38.636 7.13604C36.9482 8.82387 36 11.1131 36 13.5V18ZM7.8075 28.1925L11.25 24.75L14.6925 28.1925C16.1627 29.6684 16.9881 31.6668 16.9881 33.75C16.9881 35.8332 16.1627 37.8316 14.6925 39.3075L11.25 42.75L7.8075 39.3075C6.33735 37.8316 5.51191 35.8332 5.51191 33.75C5.51191 31.6668 6.33735 29.6684 7.8075 28.1925ZM16.8075 19.1925L20.25 15.75L23.6925 19.1925C25.1627 20.6684 25.9881 22.6668 25.9881 24.75C25.9881 26.8332 25.1627 28.8316 23.6925 30.3075L20.25 33.75L16.8075 30.3075C15.3373 28.8316 14.5119 26.8332 14.5119 24.75C14.5119 22.6668 15.3373 20.6684 16.8075 19.1925ZM25.8075 10.1925L29.25 6.75L32.6925 10.1925C34.1627 11.6684 34.9881 13.6668 34.9881 15.75C34.9881 17.8332 34.1627 19.8316 32.6925 21.3075L29.25 24.75L25.8075 21.3075C24.3373 19.8316 23.5119 17.8332 23.5119 15.75C23.5119 13.6668 24.3373 11.6684 25.8075 10.1925Z" stroke="#0084DF" stroke-width="2" stroke-linecap="round" stroke-linejoin="round"/>
<path d="M25.8075 39.3073L29.25 42.7498L25.8075 46.1923C24.3316 47.6625 22.3332 48.4879 20.25 48.4879C18.1668 48.4879 16.1684 47.6625 14.6925 46.1923L11.25 42.7498L14.6925 39.3073C16.1684 37.8372 18.1668 37.0117 20.25 37.0117C22.3332 37.0117 24.3316 37.8372 25.8075 39.3073ZM34.8075 30.3073L38.25 33.7498L34.8075 37.1923C33.3316 38.6625 31.3332 39.4879 29.25 39.4879C27.1668 39.4879 25.1684 38.6625 23.6925 37.1923L20.25 33.7498L23.6925 30.3073C25.1684 28.8372 27.1668 28.0117 29.25 28.0117C31.3332 28.0117 33.3316 28.8372 34.8075 30.3073ZM43.8075 21.3073L47.25 24.7498L43.8075 28.1923C42.3316 29.6625 40.3332 30.4879 38.25 30.4879C36.1668 30.4879 34.1684 29.6625 32.6925 28.1923L29.25 24.7498L32.6925 21.3073C34.1684 19.8372 36.1668 19.0117 38.25 19.0117C40.3332 19.0117 42.3316 19.8372 43.8075 21.3073Z" stroke="#0084DF" stroke-width="2" stroke-linecap="round" stroke-linejoin="round"/>
</svg>
