<svg width="120" height="120" viewBox="0 0 120 120" fill="none" xmlns="http://www.w3.org/2000/svg">
<path d="M33.7501 7.5C33.7501 7.5 22.0571 16.2656 22.5001 22.5C22.8761 27.7898 32.9005 28.5152 33.7501 33.75C34.1978 36.5091 30.0001 41.25 30.0001 41.25C30.0001 41.25 41.2501 35.3032 41.2501 30C41.2501 24.6968 31.2189 23.9114 30.0001 18.75C29.0919 14.903 33.7501 7.5 33.7501 7.5ZM52.5001 7.5C52.5001 7.5 40.8071 16.2656 41.2501 22.5C41.6261 27.7898 51.6505 28.5152 52.5001 33.75C52.9478 36.5091 48.7501 41.25 48.7501 41.25C48.7501 41.25 60.0001 35.3032 60.0001 30C60.0001 24.6968 49.9689 23.9114 48.7501 18.75C47.8419 14.903 52.5001 7.5 52.5001 7.5ZM71.2501 7.5C71.2501 7.5 59.5571 16.2656 60.0001 22.5C60.3761 27.7898 70.4005 28.5152 71.2501 33.75C71.6978 36.5091 67.5001 41.25 67.5001 41.25C67.5001 41.25 78.7501 35.3032 78.7501 30C78.7501 24.6968 68.7189 23.9114 67.5001 18.75C66.5919 14.903 71.2501 7.5 71.2501 7.5ZM17.1782 47.1094C17.5133 62.0972 21.6179 89.1637 34.6876 102.891H70.3126C83.3823 89.1637 87.4871 62.0972 87.8221 47.1094H17.1782ZM92.0839 47.2137C92.0403 49.3587 91.9311 51.7259 91.7389 54.2583C98.2764 55.1161 103.359 60.7364 103.359 67.5C103.359 74.8533 97.3534 80.8594 90.0001 80.8594C88.9931 80.8587 87.9895 80.7435 87.0086 80.516C86.326 82.7707 85.5611 85.0078 84.7023 87.1981C86.4305 87.6591 88.2115 87.8919 90.0001 87.8906C101.286 87.8906 110.391 78.7863 110.391 67.5C110.391 56.9173 102.386 48.2531 92.0839 47.2137ZM10.0227 107.109C10.3759 108.326 10.926 109.734 11.6528 110.946C12.2708 111.976 12.9864 112.87 13.6281 113.426C14.2693 113.981 14.7657 114.141 15.0001 114.141H90.0001C90.2345 114.141 90.7309 113.982 91.3724 113.426C92.0141 112.87 92.7294 111.976 93.3477 110.946C94.0742 109.734 94.6246 108.326 94.9778 107.109H10.0227Z" fill="white"/>
</svg>
