<svg width="72" height="72" viewBox="0 0 72 72" fill="none" xmlns="http://www.w3.org/2000/svg">
<g clip-path="url(#clip0_308_589)">
<path d="M54.6457 10.7764H51.1226C50.093 10.7764 49.258 11.6114 49.258 12.641V12.9028C49.258 13.3272 49.1832 13.7337 49.052 14.1142V8.57713C49.052 7.5475 48.2172 6.71254 47.1874 6.71254H41.5936H35.9998H32.2706V1.86459C32.2706 0.834965 31.4356 0 30.406 0H24.8122C23.7826 0 22.9476 0.834965 22.9476 1.86459V14.1142C22.8166 13.7337 22.7418 13.3272 22.7418 12.9028V12.641C22.7418 11.6114 21.907 10.7764 20.8772 10.7764H17.3539C16.3242 10.7764 15.4893 11.6114 15.4893 12.641V66.0697C15.4893 69.3396 18.1493 72 21.4189 72H50.5807C53.8503 72 56.5103 69.3396 56.5103 66.0697V12.641C56.5103 11.6112 55.6756 10.7764 54.6457 10.7764ZM45.3228 16.1097H43.4582V10.4417H45.3228V16.1097ZM39.729 16.1097H37.8644V10.4417H39.729V16.1097ZM34.1352 10.4417V16.1097H32.2706V10.4417H34.1352ZM26.6768 3.72919H28.5414V8.57713V16.1097H26.6768V3.72919ZM26.471 20.3612H45.5288C49.041 20.3612 51.9939 17.9212 52.7811 14.6469V42.8592L37.2321 29.1703C36.5278 28.5501 35.4723 28.5505 34.768 29.1703L19.2183 42.8592V14.6471C20.0059 17.9212 22.9588 20.3612 26.471 20.3612ZM50.5809 68.2708H21.4189C20.2056 68.2708 19.2184 67.2833 19.2184 66.0697V47.8276L36.0002 33.0542L52.7811 47.8276V66.0697C52.7811 67.2833 51.794 68.2708 50.5809 68.2708Z" fill="white"/>
</g>
<defs>
<clipPath id="clip0_308_589">
<rect width="72" height="72" fill="white"/>
</clipPath>
</defs>
</svg>
