<svg width="66" height="66" viewBox="0 0 66 66" fill="none" xmlns="http://www.w3.org/2000/svg">
<path d="M9.625 44C13.75 50.875 20.625 55 27.5 56.375C34.375 57.75 42.361 56.573 48.125 52.25C56.375 46.0625 59.125 35.75 59.125 28.875C59.125 22 56.375 14.4375 55 12.375C53.625 10.3125 50.875 9.625 50.875 9.625" stroke="#0084DF" stroke-width="4" stroke-linecap="round" stroke-linejoin="round"/>
<path d="M28.8748 17.8751C22.8867 20.0806 16.4998 17.8751 10.9998 22.0001C4.54279 26.8442 2.74979 34.3751 6.87479 41.2501C10.1088 46.6401 15.1248 49.5001 23.3748 49.5001C31.6248 49.5001 36.8003 47.0732 42.6248 41.2501C50.8748 33.0001 53.6248 19.9376 53.6248 15.1251C53.6248 10.3126 50.1873 7.56255 45.3748 8.25005C40.5623 8.93755 36.5377 15.0522 28.8748 17.8751Z" stroke="#0084DF" stroke-width="4" stroke-linecap="round" stroke-linejoin="round"/>
<path d="M30.1738 27.6607C28.4922 28.3207 26.6992 27.6607 25.1551 28.8955C23.3401 30.3447 22.8368 32.5984 23.9959 34.6567C24.9034 36.2682 26.3128 37.1249 28.6297 37.1249C30.9466 37.1249 32.3999 36.3989 34.0348 34.6554C36.3517 32.1886 37.1244 28.2781 37.1244 26.8399C37.1244 25.4002 36.1592 24.5766 34.8076 24.7829C33.4559 24.9891 32.3257 26.8165 30.1738 27.6607Z" stroke="#0084DF" stroke-width="4" stroke-linecap="round" stroke-linejoin="round"/>
</svg>
