<svg width="72" height="66" viewBox="0 0 72 66" fill="none" xmlns="http://www.w3.org/2000/svg">
<path d="M18.9503 37.59L23.3903 23L30.4903 39.14H39.7303L43.1203 48.17L51.1603 30.47L56.2003 39.92H61.5703L35.9503 65.54L8.00031 37.59H18.9503Z" fill="#008BFF"/>
<path d="M65.2993 35.2658H58.5193L51.1393 21.4258L43.6593 37.8858L42.3793 34.4958H32.9993L22.9993 11.8158L16.5693 32.9358H4.82926C1.54793 29.125 -0.172341 24.215 0.0130997 19.1896C0.19854 14.1642 2.27599 9.39438 5.82926 5.83577C9.57818 2.09856 14.6558 0 19.9493 0C25.2427 0 30.3203 2.09856 34.0693 5.83577L36.1293 7.89577L38.1993 5.82577C42.0095 2.41973 46.9791 0.601572 52.0878 0.744545C57.1965 0.887518 62.0566 2.98078 65.6704 6.59458C69.2843 10.2084 71.3775 15.0685 71.5205 20.1772C71.6635 25.2859 69.8453 30.2555 66.4393 34.0658L65.2993 35.2658Z" fill="#008BFF"/>
</svg>
