<?xml version="1.0" encoding="iso-8859-1"?>
<!-- Generator: Adobe Illustrator 19.0.0, SVG Export Plug-In . SVG Version: 6.00 Build 0)  -->
<svg version="1.1" id="Layer_1" xmlns="http://www.w3.org/2000/svg" xmlns:xlink="http://www.w3.org/1999/xlink" x="0px" y="0px"
	 viewBox="0 0 512 512" style="enable-background:new 0 0 512 512;" xml:space="preserve">
<path style="fill:#C7E9F4;" d="M256,512C114.841,512,0,397.159,0,256S114.841,0,256,0s256,114.841,256,256S397.159,512,256,512z"/>
<path style="fill:#80D0E1;" d="M256,0v512c141.159,0,256-114.841,256-256S397.159,0,256,0z"/>
<path style="fill:#FF5E5B;" d="M256,427.176c-35.769,0-64.87-29.101-64.87-64.87V319.03h-43.276
	c-35.769,0-64.87-29.101-64.87-64.871s29.101-64.871,64.87-64.871h43.276v-43.275c0-35.769,29.101-64.87,64.87-64.87
	s64.87,29.101,64.87,64.87v43.276h43.276c35.77,0,64.87,29.101,64.87,64.871s-29.101,64.871-64.87,64.871H320.87v43.276
	C320.87,398.076,291.769,427.176,256,427.176z"/>
<path style="fill:#FF423D;" d="M364.146,189.288H320.87v-43.276c0-35.769-29.101-64.87-64.87-64.87v346.034
	c35.769,0,64.87-29.101,64.87-64.87V319.03h43.276c35.77,0,64.87-29.101,64.87-64.871
	C429.016,218.389,399.916,189.288,364.146,189.288z"/>
<g>
</g>
<g>
</g>
<g>
</g>
<g>
</g>
<g>
</g>
<g>
</g>
<g>
</g>
<g>
</g>
<g>
</g>
<g>
</g>
<g>
</g>
<g>
</g>
<g>
</g>
<g>
</g>
<g>
</g>
</svg>
