<svg width="106" height="111" viewBox="0 0 106 111" fill="none" xmlns="http://www.w3.org/2000/svg">
<path d="M1.0332 109.962C1.98074 108.004 2.78866 105.978 3.87953 104.09C4.84456 102.419 6.62235 98.4087 10.2461 95.2071C12.1642 93.5106 16.8784 90.0721 24.0637 86.7357C25.6684 85.9905 27.524 85.0975 29.3457 84.2851C36.2585 88.9885 44.4329 91.5037 52.8013 91.5023C61.1697 91.5009 69.3432 88.983 76.2544 84.2773C78.0814 85.0942 79.9437 85.989 81.5536 86.7364C88.7392 90.0728 93.453 93.5114 95.3716 95.2078C98.993 98.4098 100.77 102.419 101.736 104.09C102.826 105.979 103.635 108.005 104.581 109.963L1.0332 109.962Z" fill="white"/>
<path d="M79.064 42.7183C79.483 42.3557 79.9755 42.0877 80.5079 41.9323C81.0403 41.777 81.6001 41.7381 82.1489 41.8183C82.6875 41.894 83.2022 42.0893 83.6552 42.3896C84.1082 42.6899 84.4878 43.0877 84.7663 43.5537C85.0891 44.1966 85.2728 44.9001 85.3054 45.6184C85.5406 48.4287 84.9965 51.2493 83.7327 53.772C83.1369 55.047 82.2722 56.1787 81.1977 57.0899C80.325 57.7958 79.2836 58.2639 78.1752 58.4485C78.1752 58.4485 77.9891 58.477 77.6577 58.5287C77.4098 59.4543 77.1309 60.234 76.9943 60.648C76.1514 62.9296 71.5957 70.5893 65.7676 73.8719C65.8588 74.9298 66.0029 75.9883 66.186 77.0328C66.4865 78.7518 66.3949 80.2819 68.7785 81.1418C68.8957 81.1808 72.5526 82.9129 74.5962 83.8768C74.5962 83.8768 75.785 84.4014 76.6439 84.7831C74.8274 88.4051 67.1671 96.5312 53.5088 96.5312C38.4763 96.5312 30.2456 88.0794 29.157 84.7983C29.8878 84.4408 32.2747 83.3896 32.2747 83.3896C34.5146 82.3675 37.0742 81.1756 37.1654 81.1433C39.5553 80.2834 39.4574 78.7533 39.7642 77.0342C39.9697 75.8509 40.1212 74.7753 40.2109 73.5886C37.9229 72.187 35.8889 70.4098 34.1947 68.3323C31.8595 65.4751 30.1561 62.158 29.1961 58.5985C28.5825 58.5056 28.2109 58.4499 28.2109 58.4499C27.1026 58.2654 26.0612 57.7973 25.1885 57.0914C24.1141 56.1801 23.2494 55.0484 22.6534 53.7735C21.3897 51.2508 20.8456 48.4302 21.0808 45.6199C21.1134 44.9016 21.297 44.1981 21.6199 43.5552C21.8983 43.0892 22.278 42.6914 22.731 42.3911C23.1839 42.0908 23.6986 41.8955 24.2372 41.8198C24.7861 41.7396 25.3459 41.7785 25.8783 41.9338C26.4107 42.0891 26.9032 42.3572 27.3222 42.7198C27.3222 42.7198 27.3833 22.4424 53.4053 22.4424C80.1049 22.4409 79.064 42.7183 79.064 42.7183Z" fill="white"/>
<path d="M42.4961 1.9106C37.8962 2.93573 33.3566 5.02945 29.5296 8.87121L32.5003 10.4451C28.2597 12.7189 24.9077 17.6968 23.4129 22.0744C21.7435 26.9632 21.2479 33.9249 23.242 42.1501C23.5255 42.0296 23.8233 41.9458 24.1281 41.9006C24.7281 41.811 25.3408 41.8656 25.9153 42.0598C26.4899 42.254 27.0096 42.5822 27.4313 43.0171C34.8894 35.9009 41.3881 31.6786 47.9457 26.5425C47.9829 26.9777 49.3806 30.4604 49.7075 30.5929C50.1442 30.77 54.8521 27.8298 58.2442 25.7424C58.5573 25.7977 63.7946 27.0296 63.7946 27.0296C66.0958 27.8589 68.2248 29.1023 70.0759 30.698C73.8921 33.9728 76.9615 38.7146 78.8331 42.9336C79.2514 42.5259 79.7587 42.2205 80.3153 42.0413C80.8719 41.862 81.4626 41.8139 82.0409 41.9006C82.2697 41.9347 82.4948 41.9901 82.7133 42.0659C84.6296 37.1566 84.91 30.0427 82.4899 23.2929C80.7877 18.5471 76.5441 13.5744 73.5306 12.1891L69.1794 9.07023C65.4708 4.00469 59.8664 1.33621 51.9577 1.09412C48.7821 0.972088 45.6036 1.24637 42.4961 1.9106Z" fill="#404040"/>
<path d="M32.6904 84.3684C34.0307 83.756 35.3697 83.1401 36.7073 82.5205C36.9981 82.4097 37.2814 82.2801 37.5554 82.1325C37.2824 82.2439 37.2567 82.2571 37.4783 82.1722C37.6086 82.1202 37.7382 82.0665 37.867 82.0111C38.0376 81.9392 38.2042 81.8584 38.3663 81.769C38.6509 81.6061 38.9179 81.4142 39.163 81.1965C40.0004 80.4602 40.3414 79.4002 40.5101 78.3357C40.7532 76.8015 41.0142 75.2721 41.1404 73.7227C41.138 73.4477 41.0275 73.1846 40.8325 72.9902C40.6375 72.7957 40.3737 72.6854 40.0979 72.6831C39.8231 72.6883 39.5609 72.7995 39.3666 72.9934C39.1722 73.1872 39.0607 73.4486 39.0554 73.7227C38.9437 75.0876 38.7136 76.4332 38.4996 77.7828C38.4427 78.2099 38.3429 78.6302 38.2017 79.0374C38.2762 78.844 38.1246 79.1893 38.1038 79.2264C38.0559 79.3124 38.0029 79.3953 37.9448 79.4748C38.0498 79.3333 37.8354 79.5862 37.8063 79.6151C37.7773 79.6441 37.5613 79.8249 37.6284 79.7755C37.007 80.2344 36.1562 80.4932 35.4533 80.8178C34.1815 81.4041 32.9092 81.9893 31.6364 82.5732C31.3995 82.7141 31.2277 82.9423 31.1581 83.2084C31.0884 83.4745 31.1265 83.7573 31.2641 83.9956C31.4082 84.2286 31.6369 84.3972 31.9026 84.4664C32.1682 84.5355 32.4504 84.4999 32.6904 84.3669V84.3684Z" fill="#211715"/>
<path d="M64.6152 73.9641C64.7418 75.3805 64.9805 76.7773 65.1934 78.1819C65.285 79.1695 65.6573 80.1106 66.2664 80.8946C66.6372 81.314 67.0895 81.6539 67.596 81.8937C67.7847 81.9858 67.9802 82.0664 68.1753 82.1444C68.227 82.1652 68.5629 82.3033 68.2888 82.1841C68.042 82.0764 68.3335 82.2079 68.3976 82.2372C69.1533 82.5855 69.9047 82.9426 70.6571 83.298C71.7579 83.8178 72.8588 84.3376 73.9599 84.8574C74.2001 84.9893 74.4819 85.0243 74.7473 84.9552C75.0126 84.8861 75.2413 84.7183 75.3862 84.4861C75.5235 84.2477 75.5614 83.965 75.4918 83.699C75.4221 83.4329 75.2505 83.2048 75.0139 83.0637C73.0842 82.1536 71.1709 81.1927 69.2163 80.3369C68.6935 80.162 68.2141 79.8779 67.81 79.5037C67.73 79.4083 67.7203 79.3998 67.7817 79.477C67.7435 79.4235 67.707 79.3688 67.6723 79.3129C67.6042 79.2029 67.5442 79.0881 67.4928 78.9694C67.5759 79.1629 67.4441 78.8005 67.4333 78.7637C67.396 78.6382 67.3648 78.5109 67.3372 78.3828C67.0345 76.9245 66.8223 75.4488 66.702 73.9644C66.6952 73.6909 66.5831 73.4304 66.3891 73.2369C66.1951 73.0434 65.9339 72.9317 65.6596 72.9248C65.3837 72.9268 65.1198 73.037 64.9247 73.2316C64.7296 73.4261 64.6191 73.6893 64.6171 73.9644L64.6152 73.9641Z" fill="#211715"/>
<path d="M76.9828 55.669C76.9183 56.8125 76.7034 57.9426 76.3435 59.0303C76.2207 59.4365 76.0859 59.8382 75.9507 60.2403C75.9172 60.3394 75.8848 60.4386 75.848 60.5373C75.8312 60.5812 75.8107 60.6242 75.7959 60.6684C75.7363 60.8433 75.9109 60.4152 75.8104 60.6335C75.2981 61.731 74.7136 62.7935 74.0605 63.814C72.196 66.7639 69.9792 69.5137 67.1701 71.7043C65.6856 72.9128 63.9537 73.7826 62.0962 74.2525C60.7887 74.5495 61.3419 76.5545 62.6506 76.2575C66.4918 75.3835 69.7078 72.6088 72.2377 69.7227C74.3695 67.3695 76.1514 64.7231 77.529 61.8647C78.4383 59.919 78.9605 57.8159 79.0666 55.6719C79.1076 54.3353 77.0226 54.3353 76.9817 55.6719L76.9828 55.669Z" fill="#211715"/>
<path d="M27.2522 55.2684C27.8559 59.0644 29.1642 62.7149 31.1101 66.0325C33.3473 69.7202 36.6129 73.0525 40.4637 75.0609C42.4815 76.1159 44.6834 76.7757 46.9501 77.0046C47.226 77.0027 47.4901 76.8926 47.6852 76.698C47.8803 76.5035 47.9907 76.2401 47.9926 75.9649C47.9866 75.6911 47.8749 75.4301 47.6807 75.2364C47.4864 75.0427 47.2247 74.9313 46.9501 74.9253C43.284 74.5511 39.9279 72.7046 37.2439 70.2285C34.2393 67.4573 31.9689 63.9879 30.635 60.1293C30.0314 58.365 29.5724 56.5547 29.2627 54.7163C29.1871 54.4516 29.0103 54.2272 28.7704 54.0914C28.5305 53.9555 28.2467 53.9191 27.9801 53.99C27.7169 54.0686 27.4943 54.2455 27.3587 54.4838C27.223 54.7222 27.1849 55.0035 27.2522 55.2691V55.2684Z" fill="#211715"/>
<path d="M79.6913 43.536C80.1319 43.1743 80.673 42.956 81.2418 42.9103C81.8106 42.8646 82.3798 42.9938 82.8727 43.2806C84.034 43.9622 84.1624 45.2818 84.2015 46.5208C84.295 49.5038 83.464 52.7088 81.6426 55.1144C80.7204 56.3871 79.3382 57.2524 77.7881 57.5278C77.5227 57.6029 77.2975 57.7791 77.1613 58.0184C77.0251 58.2576 76.9888 58.5408 77.0602 58.8065C77.1391 59.0689 77.3165 59.2908 77.5553 59.4261C77.7941 59.5613 78.0761 59.5996 78.3424 59.5328C82.1881 58.8897 84.4819 55.2688 85.5564 51.824C86.1258 50.0032 86.3681 48.0964 86.2723 46.1915C86.1711 44.2998 85.6576 42.5012 83.9268 41.4842C83.0334 40.9754 82.0028 40.7577 80.9793 40.8618C79.9558 40.9659 78.9905 41.3864 78.2185 42.0646C78.0254 42.2608 77.9172 42.5248 77.9172 42.7997C77.9172 43.0747 78.0254 43.3386 78.2185 43.5349C78.4166 43.7249 78.6808 43.8311 78.9556 43.8311C79.2305 43.8311 79.4947 43.7249 79.6928 43.5349L79.6913 43.536Z" fill="#211715"/>
<path d="M27.9503 42.0673C27.2754 41.4713 26.449 41.0718 25.5616 40.9128C24.6743 40.7537 23.7601 40.8411 22.9193 41.1655C22.0803 41.4957 21.3532 42.0576 20.8232 42.7854C20.3154 43.5684 20.0187 44.4686 19.9616 45.3993C19.5353 49.0539 20.5182 53.1913 22.7246 56.1668C23.9766 57.8539 25.7079 59.1824 27.8252 59.5366C28.0915 59.6016 28.3727 59.5626 28.6111 59.4276C28.8495 59.2926 29.0271 59.0718 29.1075 58.8104C29.1788 58.5446 29.1424 58.2615 29.0061 58.0222C28.8698 57.783 28.6447 57.6068 28.3792 57.5317C25.4212 57.0371 23.6955 54.3876 22.7771 51.7462C22.2593 50.2778 21.9828 48.7356 21.958 47.1793C21.9431 45.9403 21.9237 44.3682 22.9546 43.5135C23.4551 43.1141 24.078 42.8986 24.7189 42.903C25.3598 42.9075 25.9797 43.1317 26.4745 43.538C26.6732 43.7268 26.9371 43.8321 27.2115 43.8321C27.4859 43.8321 27.7498 43.7268 27.9485 43.538C28.1417 43.3419 28.25 43.0779 28.25 42.8029C28.25 42.5279 28.1417 42.2639 27.9485 42.0677L27.9503 42.0673Z" fill="#211715"/>
<path d="M73.0024 13.0867C74.507 13.7922 75.6757 14.896 76.8142 16.1269C78.2088 17.6392 79.4062 19.3213 80.378 21.133C82.4938 25.065 83.3069 29.7648 83.1703 34.1951C83.1136 36.4537 82.7351 38.6929 82.0463 40.8453C81.63 42.1207 83.6428 42.6672 84.0568 41.3981C85.4879 37.0113 85.5698 32.2194 84.7493 27.706C84.336 25.2956 83.587 22.9546 82.524 20.7509C81.5246 18.7668 80.2782 16.9164 78.8142 15.2436C77.4881 13.7112 75.9143 12.1637 74.0553 11.2915C73.8151 11.1597 73.5333 11.1248 73.268 11.1938C73.0027 11.2629 72.774 11.4307 72.629 11.6628C72.4917 11.9012 72.4537 12.1839 72.5233 12.45C72.593 12.7161 72.7646 12.9442 73.0013 13.0852L73.0024 13.0867Z" fill="#211715"/>
<path d="M58.5718 24.3194C56.3413 25.6842 54.1301 27.0833 51.8668 28.3947C51.42 28.6546 50.9733 28.9082 50.5175 29.1503C50.3463 29.2412 50.1743 29.3307 49.9997 29.4154C49.9319 29.4484 49.8623 29.4785 49.7949 29.5119C49.5823 29.617 50.0145 29.4495 49.7725 29.5216C49.589 29.5761 49.4326 29.5587 49.7684 29.5587C49.9871 29.6089 50.1958 29.695 50.3861 29.8134C50.3433 29.7711 50.535 30.0662 50.4125 29.8331C50.2238 29.4725 50.0361 29.1165 49.8701 28.7441C49.817 28.6248 49.7647 28.5052 49.7134 28.3854C49.7774 28.5339 49.6262 28.1752 49.6058 28.1255C49.5026 27.8734 49.4021 27.6202 49.306 27.3655C49.2219 27.1427 49.1396 26.9218 49.0659 26.6971C49.0201 26.5583 48.927 26.0682 48.9855 26.5419C48.9778 26.3399 48.9121 26.1442 48.7962 25.9783C48.6804 25.8123 48.5193 25.6829 48.3319 25.6055C48.1446 25.5281 47.9389 25.506 47.7393 25.5416C47.5397 25.5773 47.3546 25.6693 47.2058 25.8068C42.1718 29.7466 36.917 33.3967 32.0192 37.5114C30.4456 38.8337 28.9078 40.1968 27.4059 41.6008C26.4248 42.5179 27.9014 43.986 28.8799 43.0711C33.7508 38.5176 39.0645 34.5351 44.3967 30.5448C45.835 29.4681 47.2658 28.3839 48.6802 27.2775L46.9005 26.5423C47.0204 27.5114 47.4962 28.4545 47.8738 29.3441C48.1869 30.0789 48.5741 31.3754 49.4598 31.6019C50.2763 31.8109 51.2503 31.1241 51.9264 30.7524C53.1129 30.1 54.2719 29.3961 55.4261 28.6921C56.8282 27.8381 58.2222 26.9711 59.6224 26.1142C60.7643 25.4158 59.7181 23.6165 58.5703 24.319L58.5718 24.3194Z" fill="#211715"/>
<path d="M63.5163 28.0324C66.0665 29.0086 68.3956 30.4829 70.3668 32.3687C72.373 34.3276 74.1174 36.5365 75.5569 38.9405C76.3642 40.2634 77.0938 41.632 77.742 43.0392C77.8833 43.2754 78.112 43.4467 78.3789 43.5162C78.6457 43.5857 78.9293 43.5477 79.1683 43.4105C79.4021 43.2669 79.5713 43.0388 79.6406 42.7738C79.71 42.5088 79.6742 42.2274 79.5406 41.9881C78.3364 39.3612 76.8431 36.876 75.0881 34.5782C73.2143 32.1377 71.0593 29.8784 68.4651 28.192C67.078 27.322 65.6048 26.5966 64.0688 26.0274C63.8022 25.9562 63.5182 25.9924 63.2782 26.1283C63.0382 26.2642 62.8615 26.4888 62.7862 26.7536C62.7191 27.0193 62.7574 27.3005 62.8931 27.5387C63.0287 27.7769 63.2513 27.9537 63.5144 28.0324H63.5163Z" fill="#211715"/>
<path d="M33.7048 8.77292C29.0949 10.4879 25.6729 14.6553 23.5809 18.9671C21.5332 23.1883 20.812 27.9078 20.9077 32.5683C20.995 35.8718 21.4356 39.1565 22.222 42.3667C22.5332 43.6662 24.5441 43.1171 24.2325 41.8139C22.0786 32.8104 22.2469 22.513 28.5282 15.122C30.0815 13.2941 32.006 11.6159 34.2592 10.7779C34.5218 10.6982 34.7436 10.5212 34.8791 10.2832C35.0146 10.0452 35.0534 9.76445 34.9875 9.4988C34.912 9.23413 34.7352 9.00967 34.4952 8.87387C34.2553 8.73806 33.9714 8.7018 33.7048 8.77292Z" fill="#211715"/>
<path d="M70.0762 8.54443C68.4807 6.33748 66.4408 4.48687 64.0872 3.11094C61.5702 1.70699 58.8099 0.790022 55.9514 0.408307C50.0272 -0.451977 43.6048 0.00508352 38 2.1816C34.5494 3.50739 31.4134 5.53538 28.792 8.13638C27.8422 9.08392 29.3158 10.5546 30.2663 9.6067C34.4526 5.43115 40.0284 3.07678 45.8387 2.38395C51.2056 1.74422 57.2005 1.96291 62.0637 4.38596C64.5205 5.60491 66.6508 7.39012 68.2779 9.59371C68.423 9.82575 68.6515 9.99368 68.9167 10.0631C69.1819 10.1324 69.4637 10.098 69.7043 9.96686C69.9412 9.826 70.113 9.59787 70.1827 9.33173C70.2524 9.06558 70.2142 8.78279 70.0766 8.54443H70.0762Z" fill="#211715"/>
<path d="M33.1457 81.6203C30.0261 82.7119 27.0513 84.1937 24.0612 85.5931C21.0122 86.9918 18.0529 88.5773 15.2002 90.3405C13.3358 91.4878 11.5542 92.764 9.8687 94.1596C7.69143 96.0667 5.86178 98.3354 4.46086 100.865C3.89085 101.854 3.3644 102.87 2.80854 103.865C1.80329 105.667 1.02777 107.583 0.132729 109.438C0.000375026 109.678 -0.0345974 109.959 0.0350357 110.224C0.104669 110.489 0.273588 110.717 0.506903 110.861C0.746004 110.998 1.02944 111.035 1.29621 110.966C1.56297 110.896 1.79172 110.725 1.93323 110.489C2.70392 108.891 3.38525 107.25 4.2021 105.673C4.70435 104.704 5.24458 103.749 5.77028 102.791C7.1322 100.304 8.73501 97.9646 10.8572 96.0539C11.142 95.7977 11.435 95.5508 11.7325 95.3091C11.8881 95.1824 12.0452 95.0573 12.2038 94.9337L12.3386 94.8287C12.1793 94.9505 12.3073 94.8532 12.3386 94.8287C12.4365 94.7544 12.5341 94.6802 12.6324 94.6059C13.5442 93.9238 14.4824 93.277 15.437 92.6566C18.1074 90.9324 20.8879 89.384 23.7608 88.0214C27.0174 86.4657 30.2867 84.8194 33.6985 83.6253C33.9614 83.5462 34.1837 83.3692 34.3192 83.131C34.4548 82.8929 34.4931 82.6118 34.4264 82.3462C34.3508 82.0817 34.174 81.8575 33.9342 81.7217C33.6944 81.5859 33.4107 81.5495 33.1442 81.6203H33.1457Z" fill="#211715"/>
<path d="M71.9109 83.6251C74.9073 84.6736 77.7562 86.1083 80.6294 87.4494C83.613 88.8199 86.509 90.3726 89.3009 92.0987C90.3359 92.7474 91.3534 93.4246 92.3442 94.139C92.5445 94.2835 92.743 94.4296 92.9399 94.5771C93.0267 94.6417 93.1136 94.7068 93.2005 94.7724L93.3435 94.8816C93.1763 94.7538 93.339 94.8782 93.3732 94.905C93.6838 95.1489 93.992 95.3954 94.2936 95.6505C96.3573 97.4581 98.088 99.6119 99.4073 102.014C99.9833 103.021 100.527 104.047 101.085 105.064C102.05 106.822 102.807 108.682 103.677 110.487C103.819 110.723 104.047 110.894 104.314 110.963C104.581 111.033 104.864 110.995 105.103 110.858C105.337 110.714 105.507 110.486 105.576 110.221C105.646 109.956 105.61 109.675 105.476 109.435C102.949 104.197 100.609 98.4894 96.1641 94.5248C94.6288 93.1936 92.995 91.9797 91.2768 90.8935C88.5391 89.1228 85.6855 87.537 82.7352 86.1469C79.3661 84.5459 75.9892 82.8528 72.4627 81.6172C72.1962 81.5466 71.9127 81.5832 71.6729 81.7189C71.4331 81.8546 71.2563 82.0787 71.1804 82.343C71.1125 82.6088 71.1504 82.8904 71.2862 83.1289C71.4219 83.3674 71.645 83.5441 71.9087 83.6221L71.9109 83.6251Z" fill="#211715"/>
<path d="M28.8172 85.1795C34.3009 88.9128 40.5905 91.3033 47.1748 92.1568C53.8088 93.0361 60.5573 92.3504 66.8772 90.1548C70.3846 88.943 73.713 87.2672 76.7732 85.1721C77.0064 85.0278 77.175 84.7998 77.2443 84.535C77.3136 84.2703 77.2782 83.9891 77.1455 83.7497C77.004 83.5138 76.7752 83.3427 76.5085 83.2733C76.2417 83.2038 75.9583 83.2416 75.7192 83.3784C70.4775 86.9685 64.4609 89.2755 58.1576 90.1121C51.8243 90.9414 45.3842 90.2819 39.3521 88.1862C35.9876 87.0208 32.797 85.406 29.8675 83.3858C29.6283 83.2491 29.3449 83.2114 29.0782 83.2808C28.8115 83.3503 28.5828 83.5213 28.4411 83.7571C28.3069 83.9962 28.2707 84.2779 28.3402 84.543C28.4096 84.8082 28.5792 85.0363 28.8134 85.1795H28.8172Z" fill="#211715"/>
<path d="M48.4987 63.3424C49.9973 64.113 51.6659 64.496 53.3514 64.4563C55.0641 64.4452 56.8232 64.1221 58.1989 63.0517C58.6435 62.7064 58.5623 61.9441 58.1989 61.5814C58.0001 61.3928 57.7362 61.2876 57.4618 61.2876C57.1873 61.2876 56.9234 61.3928 56.7246 61.5814C57.025 61.3482 56.7372 61.5643 56.6605 61.6137C56.5608 61.6775 56.4576 61.7366 56.3526 61.7915C56.2916 61.8235 55.9502 61.9746 56.1799 61.8818C56.0403 61.9382 55.8984 61.9898 55.7551 62.0355C54.9255 62.2906 54.059 62.406 53.1913 62.3771C52.3636 62.392 51.5384 62.2812 50.7441 62.0485C50.5889 62.0021 50.437 61.9471 50.2836 61.894C50.2333 61.8769 50.1849 61.855 50.1346 61.8365C50.3882 61.9304 50.1622 61.8487 50.1149 61.8268C49.9243 61.7377 49.7366 61.6438 49.5505 61.5457C49.3106 61.4123 49.0283 61.3764 48.7625 61.4456C48.4967 61.5148 48.268 61.6837 48.1242 61.917C47.9875 62.1555 47.9499 62.438 48.0195 62.7038C48.0891 62.9696 48.2603 63.1976 48.4965 63.3391L48.4987 63.3424Z" fill="#211715"/>
<path d="M52.9363 51.7951C53.1659 52.6207 53.3496 53.4584 53.4866 54.3043L53.4493 54.0277C53.4657 54.1424 53.4688 54.2586 53.4586 54.3741L53.4959 54.0978C53.4885 54.1508 53.4761 54.2029 53.4586 54.2534L53.564 54.005C53.5485 54.0399 53.5301 54.0735 53.5089 54.1053L53.6716 53.8951C53.6473 53.9249 53.6199 53.9519 53.5897 53.9757L53.8004 53.8131C53.7366 53.8528 53.67 53.888 53.6012 53.9185L53.8503 53.8134C53.7429 53.8592 53.6304 53.8921 53.5152 53.9114L53.7922 53.8743C53.6875 53.8866 53.5816 53.8866 53.4769 53.8743L53.7543 53.9114C53.6351 53.8947 53.5186 53.8662 53.3998 53.8502C53.1281 53.7871 52.8427 53.8243 52.5964 53.9549C52.3579 54.0943 52.1847 54.3225 52.1149 54.5892C52.045 54.856 52.0843 55.1394 52.2241 55.3773C52.29 55.4949 52.3792 55.5979 52.4863 55.68C52.5934 55.7622 52.7161 55.8218 52.8469 55.8552C53.0956 55.8886 53.3369 55.9524 53.5893 55.9632C53.9597 55.9662 54.3254 55.8809 54.656 55.7144C54.8612 55.6244 55.0432 55.4892 55.1885 55.319C55.3339 55.1488 55.4387 54.948 55.4952 54.7316C55.5689 54.3728 55.5648 54.0023 55.4829 53.6452C55.3463 52.8369 55.1586 52.0361 54.9501 51.243C54.8766 50.9771 54.7002 50.7512 54.4597 50.6151C54.2192 50.4789 53.9343 50.4436 53.6677 50.5169C53.4011 50.5902 53.1746 50.7662 53.0381 51.006C52.9015 51.2458 52.8661 51.5299 52.9396 51.7958L52.9363 51.7951Z" fill="#211715"/>
<path d="M39.3937 44.7546C38.9734 46.1162 39.2474 49.2473 41.8342 49.515C45.2532 49.4946 45.4349 45.7077 44.284 43.927C43.3417 42.469 40.571 41.8626 39.3937 44.7546Z" fill="#211715"/>
<path d="M66.7728 44.7546C67.1928 46.1162 66.9191 49.2473 64.3323 49.515C60.9133 49.4946 60.7313 45.7074 61.8821 43.927C62.8244 42.469 65.5952 41.8626 66.7728 44.7546Z" fill="#211715"/>
</svg>
