<svg width="72" height="72" viewBox="0 0 72 72" fill="none" xmlns="http://www.w3.org/2000/svg">
<g clip-path="url(#clip0_308_646)">
<path d="M11.3956 59.625L8.0791 62.9415" stroke="white" stroke-width="3.15625" stroke-linecap="round" stroke-linejoin="round"/>
<path d="M8.0791 59.625L11.3956 62.9415" stroke="white" stroke-width="3.15625" stroke-linecap="round" stroke-linejoin="round"/>
<path d="M59.625 11.25C60.2463 11.25 60.75 10.7463 60.75 10.125C60.75 9.50368 60.2463 9 59.625 9C59.0037 9 58.5 9.50368 58.5 10.125C58.5 10.7463 59.0037 11.25 59.625 11.25Z" fill="white"/>
<path d="M67.5 19.125C68.1213 19.125 68.625 18.6213 68.625 18C68.625 17.3787 68.1213 16.875 67.5 16.875C66.8787 16.875 66.375 17.3787 66.375 18C66.375 18.6213 66.8787 19.125 67.5 19.125Z" fill="white"/>
<path d="M38.25 60.0107V68.6249" stroke="white" stroke-width="3.15625" stroke-linecap="round" stroke-linejoin="round"/>
<path d="M24.75 68.6246V60.2051" stroke="white" stroke-width="3.15625" stroke-linecap="round" stroke-linejoin="round"/>
<path d="M48.7129 37.125H49.5836C50.1786 37.1251 50.7677 37.2425 51.3173 37.4703C51.8668 37.6981 52.3662 38.0319 52.7868 38.4527C53.2074 38.8735 53.5409 39.373 53.7685 39.9227C53.996 40.4724 54.113 41.0616 54.1129 41.6565C54.113 42.2516 53.9959 42.8409 53.7683 43.3908C53.5406 43.9407 53.2068 44.4403 52.786 44.8611C52.3652 45.2819 51.8656 45.6157 51.3157 45.8434C50.7658 46.071 50.1765 46.1881 49.5814 46.188H48.7129" stroke="white" stroke-width="3.15625" stroke-linecap="round" stroke-linejoin="round"/>
<path d="M14.2875 46.188H13.5281C12.3268 46.1874 11.1749 45.7097 10.3257 44.8599C9.47657 44.0101 8.9997 42.8578 9 41.6565C8.99985 41.0614 9.11696 40.4721 9.34464 39.9222C9.57232 39.3723 9.9061 38.8727 10.3269 38.4519C10.7477 38.0311 11.2473 37.6973 11.7972 37.4696C12.347 37.242 12.9364 37.1249 13.5315 37.125H14.625" stroke="white" stroke-width="3.15625" stroke-linecap="round" stroke-linejoin="round"/>
<path d="M41.4844 57.9714C38.8446 59.7858 35.7157 60.7549 32.5125 60.7501H30.4875C26.2805 60.7501 22.2458 59.0789 19.271 56.1041C16.2962 53.1293 14.625 49.0946 14.625 44.8876V37.4053" stroke="white" stroke-width="3.15625" stroke-linecap="round" stroke-linejoin="round"/>
<path d="M48.3753 37.125V44.8875C48.3798 48.3398 47.2532 51.6986 45.168 54.45" stroke="white" stroke-width="3.15625" stroke-linecap="round" stroke-linejoin="round"/>
<path d="M24.6748 40.7393C24.3804 41.1016 24.0096 41.3944 23.5888 41.5966C23.168 41.7988 22.7077 41.9055 22.2409 41.9089C21.7741 41.9124 21.3122 41.8125 20.8885 41.6165C20.4648 41.4205 20.0897 41.1332 19.79 40.7753" stroke="white" stroke-width="3.15625" stroke-linecap="round" stroke-linejoin="round"/>
<path d="M42.6748 40.7393C42.3804 41.1016 42.0096 41.3944 41.5888 41.5966C41.168 41.7988 40.7077 41.9055 40.2409 41.9089C39.7741 41.9124 39.3122 41.8125 38.8885 41.6165C38.4648 41.4205 38.0897 41.1332 37.79 40.7753" stroke="white" stroke-width="3.15625" stroke-linecap="round" stroke-linejoin="round"/>
<path d="M14.291 33.1123L14.6251 37.1252H18.0001L18.3343 33.1123" stroke="white" stroke-width="3.15625" stroke-linecap="round" stroke-linejoin="round"/>
<path d="M44.6494 32.9121L45.0004 37.1252H48.3754L48.7095 33.1124" stroke="white" stroke-width="3.15625" stroke-linecap="round" stroke-linejoin="round"/>
<path d="M1.125 24.75H61.875V24.957C61.875 26.9907 61.0671 28.9411 59.6291 30.3791C58.1911 31.8171 56.2407 32.625 54.207 32.625H8.793C6.75932 32.625 4.80893 31.8171 3.37091 30.3791C1.93288 28.9411 1.125 26.9907 1.125 24.957V24.75Z" stroke="white" stroke-width="3.15625" stroke-linecap="round" stroke-linejoin="round"/>
<path d="M42.5184 51.2041C42.8534 51.5667 43.1547 51.9591 43.4184 52.3764L43.4533 52.4326L47.2502 58.4997H49.5002V53.9997H57.3752V57.3747C57.3752 58.8666 56.7826 60.2973 55.7277 61.3522C54.6728 62.4071 53.242 62.9997 51.7502 62.9997H48.1862C47.2145 63 46.2593 62.7485 45.4137 62.2698C44.5681 61.7911 43.8609 61.1015 43.3611 60.2682L40.0806 54.8007C39.5272 53.8781 38.8229 53.0548 37.9971 52.3651" stroke="white" stroke-width="3.15625" stroke-linecap="round" stroke-linejoin="round"/>
<path d="M56.25 50.625V48.9375C56.25 48.4899 56.4278 48.0607 56.7443 47.7443C57.0607 47.4278 57.4899 47.25 57.9375 47.25C58.3851 47.25 58.8143 47.0722 59.1307 46.7557C59.4472 46.4393 59.625 46.0101 59.625 45.5625V42.1875C59.625 41.7399 59.8028 41.3107 60.1193 40.9943C60.4357 40.6778 60.8649 40.5 61.3125 40.5H62.4375C62.8851 40.5 63.3143 40.3222 63.6307 40.0057C63.9472 39.6893 64.125 39.2601 64.125 38.8125V33.75" stroke="white" stroke-width="3.15625" stroke-linecap="round" stroke-linejoin="round"/>
<path d="M46.5538 48.4249C39.5586 51.423 37.5595 45.4268 34.0664 45.4268C33.6771 45.4274 33.2935 45.5193 32.9463 45.6951C32.5991 45.871 32.298 46.1259 32.0672 46.4393C31.8365 46.1259 31.5354 45.871 31.1881 45.6951C30.8409 45.5193 30.4573 45.4274 30.0681 45.4268C26.5705 45.4268 24.5713 51.423 17.5806 48.4249C16.3116 47.8815 24.5758 54.4211 30.5721 51.423C31.1784 51.1459 31.6949 50.7043 32.0627 50.1484C32.4327 50.7059 32.9525 51.1477 33.5624 51.423C39.5586 54.4211 47.8228 47.8815 46.5538 48.4249Z" stroke="white" stroke-width="3.15625" stroke-linecap="round" stroke-linejoin="round"/>
<path d="M49.5 24.3484V14.688C49.5001 13.3501 49.2367 12.0252 48.7248 10.789C48.2128 9.55291 47.4624 8.42974 46.5163 7.48367C45.5703 6.53759 44.4471 5.78716 43.211 5.27521C41.9748 4.76327 40.6499 4.49985 39.312 4.5H23.688C22.3501 4.49985 21.0252 4.76327 19.789 5.27521C18.5529 5.78716 17.4297 6.53759 16.4837 7.48367C15.5376 8.42974 14.7872 9.55291 14.2752 10.789C13.7633 12.0252 13.4999 13.3501 13.5 14.688V24.4451" stroke="white" stroke-width="3.15625" stroke-linecap="round" stroke-linejoin="round"/>
<path d="M39.3604 4.86035C39.2699 5.98785 38.7581 7.03991 37.9269 7.80709C37.0958 8.57428 36.0061 9.0003 34.875 9.00035H28.125C26.9948 9.00041 25.9059 8.57517 25.0749 7.80916C24.2438 7.04315 23.7315 5.99246 23.6396 4.86598" stroke="white" stroke-width="3.15625" stroke-linecap="round" stroke-linejoin="round"/>
<path d="M13.5 19.125H49.5" stroke="white" stroke-width="3.15625" stroke-linejoin="round"/>
</g>
<defs>
<clipPath id="clip0_308_646">
<rect width="72" height="72" fill="white"/>
</clipPath>
</defs>
</svg>
