<svg width="158" height="158" viewBox="0 0 158 158" fill="none" xmlns="http://www.w3.org/2000/svg">
<g clip-path="url(#clip0_150_11)">
<path d="M79 158C122.63 158 158 122.63 158 79C158 35.3695 122.63 0 79 0C35.3695 0 0 35.3695 0 79C0 122.63 35.3695 158 79 158Z" fill="#D83E26"/>
<path d="M78.9995 138.965C45.9066 138.965 19.0342 112.093 19.0342 79C19.0342 45.9071 45.9066 19.0347 78.9995 19.0347C112.092 19.0347 138.965 45.9071 138.965 79C138.965 112.093 112.092 138.965 78.9995 138.965Z" fill="#324A5E"/>
<path d="M126.525 81.7369C126.525 80.866 126.649 79.8708 126.649 78.9999C126.649 52.7495 105.375 31.3511 79.0004 31.3511C52.75 31.3511 31.3516 52.6251 31.3516 78.9999C31.3516 79.8708 31.3516 80.866 31.476 81.7369H126.525Z" fill="#E6E9EE"/>
<path d="M104.873 55.5107C105.142 55.1516 105.134 54.7582 104.775 54.4895C104.533 54.1791 103.981 54.1106 103.712 54.4698L78.4006 77.2879C78.3249 77.4467 78.0903 77.5297 78.0146 77.6885C76.8221 79.1665 77.0588 81.3263 78.5367 82.5187C80.0147 83.7112 82.1745 83.4745 83.367 81.9966L104.873 55.5107Z" fill="#FF7058"/>
<path d="M79.0003 90.3213C83.7412 90.3213 87.5845 86.478 87.5845 81.7371C87.5845 76.9961 83.7412 73.1528 79.0003 73.1528C74.2593 73.1528 70.416 76.9961 70.416 81.7371C70.416 86.478 74.2593 90.3213 79.0003 90.3213Z" fill="#FFD05B"/>
<path d="M79.0001 42.2993C78.1293 42.2993 77.3828 41.5528 77.3828 40.6819V37.3229C77.3828 36.452 78.1293 35.7056 79.0001 35.7056C79.871 35.7056 80.6175 36.452 80.6175 37.3229V40.6819C80.6175 41.5528 79.871 42.2993 79.0001 42.2993Z" fill="#ACB3BA"/>
<path d="M105.002 52.9984C104.38 52.3763 104.38 51.3811 105.002 50.759L107.365 48.3952C107.988 47.7732 108.983 47.7732 109.605 48.3952C110.227 49.0173 110.227 50.0126 109.605 50.6346L107.241 52.9984C106.495 53.6204 105.499 53.6204 105.002 52.9984Z" fill="#ACB3BA"/>
<path d="M48.5202 48.5198C49.1423 47.8977 50.1376 47.8977 50.7596 48.5198L53.1234 50.8835C53.7454 51.5056 53.7454 52.5009 53.1234 53.1229C52.5013 53.745 51.5061 53.745 50.884 53.1229L48.5202 50.7591C47.8982 50.1371 47.8982 49.1418 48.5202 48.5198Z" fill="#ACB3BA"/>
<path d="M64.9422 45.0362C64.1958 45.4094 63.2005 45.0362 62.9517 44.1653L61.7076 41.0551C61.3344 40.3086 61.7076 39.3133 62.5785 39.0645C63.3249 38.6913 64.3202 39.0645 64.569 39.9354L65.8131 43.0456C66.1863 43.7921 65.8131 44.7874 64.9422 45.0362Z" fill="#ACB3BA"/>
<path d="M112.964 64.9418C112.591 64.1953 112.964 63.2 113.835 62.9512L116.946 61.7071C117.692 61.3339 118.687 61.7071 118.936 62.578C119.309 63.3244 118.936 64.3197 118.065 64.5685L114.955 65.8126C114.209 66.1858 113.213 65.8126 112.964 64.9418Z" fill="#ACB3BA"/>
<path d="M93.059 45.0362C92.3125 44.663 91.9393 43.7921 92.1881 43.0457L93.4322 39.9354C93.8054 39.189 94.6763 38.8157 95.4227 39.0646C96.1692 39.4378 96.5424 40.3087 96.2936 41.0551L95.0495 44.1653C94.8007 45.0362 93.8054 45.4094 93.059 45.0362Z" fill="#ACB3BA"/>
<path d="M39.065 62.4535C39.4383 61.707 40.3091 61.3338 41.0556 61.5826L44.1658 62.8267C44.9123 63.1999 45.2855 64.0708 45.0367 64.8173C44.6635 65.5637 43.7926 65.937 43.0461 65.6881L39.9359 64.444C39.1895 64.1952 38.8162 63.3244 39.065 62.4535Z" fill="#ACB3BA"/>
<path d="M79.0009 28.7385C80.7186 28.7385 82.1111 27.346 82.1111 25.6283C82.1111 23.9106 80.7186 22.5181 79.0009 22.5181C77.2831 22.5181 75.8906 23.9106 75.8906 25.6283C75.8906 27.346 77.2831 28.7385 79.0009 28.7385Z" fill="#2B3B4E"/>
<path d="M79.0009 135.482C80.7186 135.482 82.1111 134.089 82.1111 132.371C82.1111 130.654 80.7186 129.261 79.0009 129.261C77.2831 129.261 75.8906 130.654 75.8906 132.371C75.8906 134.089 77.2831 135.482 79.0009 135.482Z" fill="#2B3B4E"/>
<path d="M132.372 82.1101C134.09 82.1101 135.482 80.7176 135.482 78.9999C135.482 77.2821 134.09 75.8896 132.372 75.8896C130.654 75.8896 129.262 77.2821 129.262 78.9999C129.262 80.7176 130.654 82.1101 132.372 82.1101Z" fill="#2B3B4E"/>
<path d="M25.6288 82.1101C27.3465 82.1101 28.739 80.7176 28.739 78.9999C28.739 77.2821 27.3465 75.8896 25.6288 75.8896C23.9111 75.8896 22.5186 77.2821 22.5186 78.9999C22.5186 80.7176 23.9111 82.1101 25.6288 82.1101Z" fill="#2B3B4E"/>
</g>
<defs>
<clipPath id="clip0_150_11">
<rect width="158" height="158" fill="white"/>
</clipPath>
</defs>
</svg>
