<svg width="160" height="160" viewBox="0 0 160 160" fill="none" xmlns="http://www.w3.org/2000/svg">
<path d="M80 80H0C0 58.7827 8.42854 38.4344 23.4315 23.4315C38.4344 8.42855 58.7827 0 80 0C101.217 0 121.566 8.42855 136.569 23.4315C151.571 38.4344 160 58.7827 160 80H80Z" fill="#0290FF"/>
<path d="M79.9997 80H160C160 92.6248 157.012 105.07 151.28 116.319C145.549 127.568 137.236 137.301 127.022 144.721C116.809 152.142 104.984 157.04 92.5144 159.015C80.045 160.99 67.2852 159.986 55.2783 156.085L79.9997 80Z" fill="#0DB1FF"/>
<path d="M80 80L55.2786 156.085C39.2112 150.864 25.2089 140.691 15.2786 127.023C5.34839 113.355 0 96.8943 0 80H80Z" fill="#13C4FF"/>
<path d="M103.467 79.7334C103.467 92.841 92.841 103.467 79.7334 103.467C66.6258 103.467 56 92.841 56 79.7334C56 66.6258 66.6258 56 79.7334 56C92.841 56 103.467 66.6258 103.467 79.7334Z" fill="#D9D9D9"/>
<path d="M70.28 28.52H63.92V31.38C64.2 31.06 64.5867 30.8133 65.08 30.64C65.5867 30.4533 66.1333 30.36 66.72 30.36C67.6667 30.36 68.46 30.5733 69.1 31C69.74 31.4133 70.2133 31.9733 70.52 32.68C70.8267 33.3867 70.98 34.1667 70.98 35.02C70.98 36.5667 70.5467 37.7933 69.68 38.7C68.8133 39.5933 67.5933 40.04 66.02 40.04C64.9533 40.04 64.0267 39.8533 63.24 39.48C62.4533 39.0933 61.8467 38.56 61.42 37.88C60.9933 37.2 60.7667 36.4133 60.74 35.52H64.08C64.1467 35.9733 64.3267 36.3467 64.62 36.64C64.9267 36.9333 65.34 37.08 65.86 37.08C66.46 37.08 66.9067 36.8867 67.2 36.5C67.5067 36.1133 67.66 35.6 67.66 34.96C67.66 34.3467 67.5 33.8733 67.18 33.54C66.86 33.2067 66.4133 33.04 65.84 33.04C65.4 33.04 65.0333 33.14 64.74 33.34C64.4467 33.5267 64.2467 33.7733 64.14 34.08H60.82V25.52H70.28V28.52ZM72.6916 32.78C72.6916 34.9933 73.1382 36.7467 74.0316 38.04C74.9249 39.3333 76.3516 39.98 78.3116 39.98C80.2582 39.98 81.6782 39.3333 82.5716 38.04C83.4782 36.7467 83.9316 34.9933 83.9316 32.78C83.9316 30.58 83.4782 28.84 82.5716 27.56C81.6782 26.2667 80.2582 25.62 78.3116 25.62C76.3516 25.62 74.9249 26.2667 74.0316 27.56C73.1382 28.84 72.6916 30.58 72.6916 32.78ZM80.5316 32.78C80.5316 34.0467 80.3782 35.0267 80.0716 35.72C79.7782 36.4 79.1916 36.74 78.3116 36.74C77.4182 36.74 76.8182 36.4 76.5116 35.72C76.2049 35.0267 76.0516 34.0467 76.0516 32.78C76.0516 31.5267 76.2049 30.56 76.5116 29.88C76.8182 29.2 77.4182 28.86 78.3116 28.86C79.1916 28.86 79.7782 29.2 80.0716 29.88C80.3782 30.5467 80.5316 31.5133 80.5316 32.78ZM88.5827 25.62C89.556 25.62 90.3493 25.9133 90.9627 26.5C91.5893 27.0867 91.9027 27.9133 91.9027 28.98C91.9027 30.0467 91.5893 30.8733 90.9627 31.46C90.3493 32.0467 89.556 32.34 88.5827 32.34C87.5827 32.34 86.7693 32.0467 86.1427 31.46C85.5293 30.8733 85.2227 30.0467 85.2227 28.98C85.2227 27.9133 85.5293 27.0867 86.1427 26.5C86.7693 25.9133 87.5827 25.62 88.5827 25.62ZM98.2827 25.82L90.5627 40H87.2627L94.9827 25.82H98.2827ZM87.5027 28.98C87.5027 29.3933 87.596 29.72 87.7827 29.96C87.9693 30.1867 88.2227 30.3 88.5427 30.3C88.876 30.3 89.1427 30.1867 89.3427 29.96C89.5427 29.72 89.6427 29.3933 89.6427 28.98C89.6427 28.5667 89.5427 28.2467 89.3427 28.02C89.1427 27.78 88.876 27.66 88.5427 27.66C88.2227 27.66 87.9693 27.78 87.7827 28.02C87.596 28.2467 87.5027 28.5667 87.5027 28.98ZM96.9827 33.46C97.9693 33.46 98.7693 33.7533 99.3827 34.34C99.996 34.9267 100.303 35.7533 100.303 36.82C100.303 37.8867 99.996 38.72 99.3827 39.32C98.7693 39.9067 97.9693 40.2 96.9827 40.2C96.0093 40.2 95.2093 39.9067 94.5827 39.32C93.9693 38.72 93.6627 37.8867 93.6627 36.82C93.6627 35.7533 93.9693 34.9267 94.5827 34.34C95.2093 33.7533 96.0093 33.46 96.9827 33.46ZM95.9227 36.82C95.9227 37.2467 96.016 37.58 96.2027 37.82C96.3893 38.0467 96.6493 38.16 96.9827 38.16C97.3027 38.16 97.556 38.0467 97.7427 37.82C97.9427 37.58 98.0427 37.2467 98.0427 36.82C98.0427 36.4067 97.9427 36.0867 97.7427 35.86C97.556 35.62 97.3027 35.5 96.9827 35.5C96.6493 35.5 96.3893 35.62 96.2027 35.86C96.016 36.0867 95.9227 36.4067 95.9227 36.82Z" fill="white"/>
<path d="M107.04 107.24C108.027 107.24 108.873 107.413 109.58 107.76C110.287 108.093 110.82 108.56 111.18 109.16C111.553 109.747 111.74 110.413 111.74 111.16C111.74 112.08 111.5 112.82 111.02 113.38C110.553 113.94 109.967 114.293 109.26 114.44V114.54C111.087 115.127 112 116.267 112 117.96C112 118.773 111.813 119.5 111.44 120.14C111.067 120.767 110.52 121.26 109.8 121.62C109.093 121.967 108.24 122.14 107.24 122.14C105.613 122.14 104.32 121.74 103.36 120.94C102.413 120.14 101.9 118.92 101.82 117.28H105.16C105.187 117.907 105.36 118.4 105.68 118.76C106 119.12 106.467 119.3 107.08 119.3C107.573 119.3 107.96 119.153 108.24 118.86C108.533 118.567 108.68 118.187 108.68 117.72C108.68 116.56 107.84 115.98 106.16 115.98H105.52V113.2H106.14C107.647 113.227 108.4 112.687 108.4 111.58C108.4 111.1 108.267 110.733 108 110.48C107.747 110.213 107.4 110.08 106.96 110.08C106.48 110.08 106.1 110.247 105.82 110.58C105.54 110.9 105.38 111.333 105.34 111.88H102C102.067 110.387 102.533 109.24 103.4 108.44C104.267 107.64 105.48 107.24 107.04 107.24ZM113.949 114.78C113.949 116.993 114.396 118.747 115.289 120.04C116.183 121.333 117.609 121.98 119.569 121.98C121.516 121.98 122.936 121.333 123.829 120.04C124.736 118.747 125.189 116.993 125.189 114.78C125.189 112.58 124.736 110.84 123.829 109.56C122.936 108.267 121.516 107.62 119.569 107.62C117.609 107.62 116.183 108.267 115.289 109.56C114.396 110.84 113.949 112.58 113.949 114.78ZM121.789 114.78C121.789 116.047 121.636 117.027 121.329 117.72C121.036 118.4 120.449 118.74 119.569 118.74C118.676 118.74 118.076 118.4 117.769 117.72C117.463 117.027 117.309 116.047 117.309 114.78C117.309 113.527 117.463 112.56 117.769 111.88C118.076 111.2 118.676 110.86 119.569 110.86C120.449 110.86 121.036 111.2 121.329 111.88C121.636 112.547 121.789 113.513 121.789 114.78ZM129.84 107.62C130.814 107.62 131.607 107.913 132.22 108.5C132.847 109.087 133.16 109.913 133.16 110.98C133.16 112.047 132.847 112.873 132.22 113.46C131.607 114.047 130.814 114.34 129.84 114.34C128.84 114.34 128.027 114.047 127.4 113.46C126.787 112.873 126.48 112.047 126.48 110.98C126.48 109.913 126.787 109.087 127.4 108.5C128.027 107.913 128.84 107.62 129.84 107.62ZM139.54 107.82L131.82 122H128.52L136.24 107.82H139.54ZM128.76 110.98C128.76 111.393 128.854 111.72 129.04 111.96C129.227 112.187 129.48 112.3 129.8 112.3C130.134 112.3 130.4 112.187 130.6 111.96C130.8 111.72 130.9 111.393 130.9 110.98C130.9 110.567 130.8 110.247 130.6 110.02C130.4 109.78 130.134 109.66 129.8 109.66C129.48 109.66 129.227 109.78 129.04 110.02C128.854 110.247 128.76 110.567 128.76 110.98ZM138.24 115.46C139.227 115.46 140.027 115.753 140.64 116.34C141.254 116.927 141.56 117.753 141.56 118.82C141.56 119.887 141.254 120.72 140.64 121.32C140.027 121.907 139.227 122.2 138.24 122.2C137.267 122.2 136.467 121.907 135.84 121.32C135.227 120.72 134.92 119.887 134.92 118.82C134.92 117.753 135.227 116.927 135.84 116.34C136.467 115.753 137.267 115.46 138.24 115.46ZM137.18 118.82C137.18 119.247 137.274 119.58 137.46 119.82C137.647 120.047 137.907 120.16 138.24 120.16C138.56 120.16 138.814 120.047 139 119.82C139.2 119.58 139.3 119.247 139.3 118.82C139.3 118.407 139.2 118.087 139 117.86C138.814 117.62 138.56 117.5 138.24 117.5C137.907 117.5 137.647 117.62 137.46 117.86C137.274 118.087 137.18 118.407 137.18 118.82Z" fill="white"/>
<path d="M14.68 112.28C18.92 109.253 21.04 106.847 21.04 105.06C21.04 103.967 20.5667 103.42 19.62 103.42C19.0867 103.42 18.6933 103.607 18.44 103.98C18.2 104.353 18.0667 104.933 18.04 105.72H14.7C14.78 104 15.3 102.707 16.26 101.84C17.22 100.973 18.4333 100.54 19.9 100.54C21.4333 100.54 22.5867 100.927 23.36 101.7C24.1467 102.473 24.54 103.48 24.54 104.72C24.54 106.093 24.0133 107.44 22.96 108.76C21.9067 110.067 20.6467 111.173 19.18 112.08H24.76V114.84H14.68V112.28ZM26.1681 107.78C26.1681 109.993 26.6148 111.747 27.5081 113.04C28.4015 114.333 29.8281 114.98 31.7881 114.98C33.7348 114.98 35.1548 114.333 36.0481 113.04C36.9548 111.747 37.4081 109.993 37.4081 107.78C37.4081 105.58 36.9548 103.84 36.0481 102.56C35.1548 101.267 33.7348 100.62 31.7881 100.62C29.8281 100.62 28.4015 101.267 27.5081 102.56C26.6148 103.84 26.1681 105.58 26.1681 107.78ZM34.0081 107.78C34.0081 109.047 33.8548 110.027 33.5481 110.72C33.2548 111.4 32.6681 111.74 31.7881 111.74C30.8948 111.74 30.2948 111.4 29.9881 110.72C29.6815 110.027 29.5281 109.047 29.5281 107.78C29.5281 106.527 29.6815 105.56 29.9881 104.88C30.2948 104.2 30.8948 103.86 31.7881 103.86C32.6681 103.86 33.2548 104.2 33.5481 104.88C33.8548 105.547 34.0081 106.513 34.0081 107.78ZM42.0592 100.62C43.0326 100.62 43.8259 100.913 44.4392 101.5C45.0659 102.087 45.3792 102.913 45.3792 103.98C45.3792 105.047 45.0659 105.873 44.4392 106.46C43.8259 107.047 43.0326 107.34 42.0592 107.34C41.0592 107.34 40.2459 107.047 39.6192 106.46C39.0059 105.873 38.6992 105.047 38.6992 103.98C38.6992 102.913 39.0059 102.087 39.6192 101.5C40.2459 100.913 41.0592 100.62 42.0592 100.62ZM51.7592 100.82L44.0392 115H40.7392L48.4592 100.82H51.7592ZM40.9792 103.98C40.9792 104.393 41.0726 104.72 41.2592 104.96C41.4459 105.187 41.6992 105.3 42.0192 105.3C42.3526 105.3 42.6192 105.187 42.8192 104.96C43.0192 104.72 43.1192 104.393 43.1192 103.98C43.1192 103.567 43.0192 103.247 42.8192 103.02C42.6192 102.78 42.3526 102.66 42.0192 102.66C41.6992 102.66 41.4459 102.78 41.2592 103.02C41.0726 103.247 40.9792 103.567 40.9792 103.98ZM50.4592 108.46C51.4459 108.46 52.2459 108.753 52.8592 109.34C53.4726 109.927 53.7792 110.753 53.7792 111.82C53.7792 112.887 53.4726 113.72 52.8592 114.32C52.2459 114.907 51.4459 115.2 50.4592 115.2C49.4859 115.2 48.6859 114.907 48.0592 114.32C47.4459 113.72 47.1392 112.887 47.1392 111.82C47.1392 110.753 47.4459 109.927 48.0592 109.34C48.6859 108.753 49.4859 108.46 50.4592 108.46ZM49.3992 111.82C49.3992 112.247 49.4926 112.58 49.6792 112.82C49.8659 113.047 50.1259 113.16 50.4592 113.16C50.7792 113.16 51.0326 113.047 51.2192 112.82C51.4192 112.58 51.5192 112.247 51.5192 111.82C51.5192 111.407 51.4192 111.087 51.2192 110.86C51.0326 110.62 50.7792 110.5 50.4592 110.5C50.1259 110.5 49.8659 110.62 49.6792 110.86C49.4926 111.087 49.3992 111.407 49.3992 111.82Z" fill="white"/>
</svg>
