<svg width="160" height="160" viewBox="0 0 160 160" fill="none" xmlns="http://www.w3.org/2000/svg">
<path d="M80.0002 80L0.941406 67.4852C3.92286 48.6715 13.5232 31.5384 28.0156 19.1675C42.508 6.79667 60.9414 0 80.0002 0C99.059 0 117.492 6.79667 131.985 19.1675C146.477 31.5384 156.078 48.6715 159.059 67.4852L80.0002 80Z" fill="#0290FF"/>
<path d="M80.0572 80.2416L159.016 67.7646C161.657 84.4006 158.951 101.444 151.287 116.451C143.622 131.459 131.393 143.66 116.35 151.307C101.308 158.953 84.2258 161.653 67.5515 159.018C50.8771 156.383 35.4668 148.549 23.5293 136.639L80.0572 80.2416Z" fill="#0DB1FF"/>
<path d="M80 80.211L23.4315 136.471C14.5044 127.592 7.81677 116.739 3.91548 104.797C0.0141975 92.856 -0.990016 80.1659 0.984943 67.7646L80 80.211Z" fill="#13C4FF"/>
<path d="M58.88 37.4V34.54L65.34 25.68H69.02V34.42H70.72V37.4H69.02V40H65.56V37.4H58.88ZM65.84 29.64L62.36 34.42H65.84V29.64ZM82.7175 28.52H76.3575V31.38C76.6375 31.06 77.0242 30.8133 77.5175 30.64C78.0242 30.4533 78.5708 30.36 79.1575 30.36C80.1042 30.36 80.8975 30.5733 81.5375 31C82.1775 31.4133 82.6508 31.9733 82.9575 32.68C83.2642 33.3867 83.4175 34.1667 83.4175 35.02C83.4175 36.5667 82.9842 37.7933 82.1175 38.7C81.2508 39.5933 80.0308 40.04 78.4575 40.04C77.3908 40.04 76.4642 39.8533 75.6775 39.48C74.8908 39.0933 74.2842 38.56 73.8575 37.88C73.4308 37.2 73.2042 36.4133 73.1775 35.52H76.5175C76.5842 35.9733 76.7642 36.3467 77.0575 36.64C77.3642 36.9333 77.7775 37.08 78.2975 37.08C78.8975 37.08 79.3442 36.8867 79.6375 36.5C79.9442 36.1133 80.0975 35.6 80.0975 34.96C80.0975 34.3467 79.9375 33.8733 79.6175 33.54C79.2975 33.2067 78.8508 33.04 78.2775 33.04C77.8375 33.04 77.4708 33.14 77.1775 33.34C76.8842 33.5267 76.6842 33.7733 76.5775 34.08H73.2575V25.52H82.7175V28.52ZM88.1491 25.62C89.1224 25.62 89.9157 25.9133 90.5291 26.5C91.1557 27.0867 91.4691 27.9133 91.4691 28.98C91.4691 30.0467 91.1557 30.8733 90.5291 31.46C89.9157 32.0467 89.1224 32.34 88.1491 32.34C87.1491 32.34 86.3357 32.0467 85.7091 31.46C85.0957 30.8733 84.7891 30.0467 84.7891 28.98C84.7891 27.9133 85.0957 27.0867 85.7091 26.5C86.3357 25.9133 87.1491 25.62 88.1491 25.62ZM97.8491 25.82L90.1291 40H86.8291L94.5491 25.82H97.8491ZM87.0691 28.98C87.0691 29.3933 87.1624 29.72 87.3491 29.96C87.5357 30.1867 87.7891 30.3 88.1091 30.3C88.4424 30.3 88.7091 30.1867 88.9091 29.96C89.1091 29.72 89.2091 29.3933 89.2091 28.98C89.2091 28.5667 89.1091 28.2467 88.9091 28.02C88.7091 27.78 88.4424 27.66 88.1091 27.66C87.7891 27.66 87.5357 27.78 87.3491 28.02C87.1624 28.2467 87.0691 28.5667 87.0691 28.98ZM96.5491 33.46C97.5357 33.46 98.3357 33.7533 98.9491 34.34C99.5624 34.9267 99.8691 35.7533 99.8691 36.82C99.8691 37.8867 99.5624 38.72 98.9491 39.32C98.3357 39.9067 97.5357 40.2 96.5491 40.2C95.5757 40.2 94.7757 39.9067 94.1491 39.32C93.5357 38.72 93.2291 37.8867 93.2291 36.82C93.2291 35.7533 93.5357 34.9267 94.1491 34.34C94.7757 33.7533 95.5757 33.46 96.5491 33.46ZM95.4891 36.82C95.4891 37.2467 95.5824 37.58 95.7691 37.82C95.9557 38.0467 96.2157 38.16 96.5491 38.16C96.8691 38.16 97.1224 38.0467 97.3091 37.82C97.5091 37.58 97.6091 37.2467 97.6091 36.82C97.6091 36.4067 97.5091 36.0867 97.3091 35.86C97.1224 35.62 96.8691 35.5 96.5491 35.5C96.2157 35.5 95.9557 35.62 95.7691 35.86C95.5824 36.0867 95.4891 36.4067 95.4891 36.82Z" fill="white"/>
<path d="M92.88 123.4V120.54L99.34 111.68H103.02V120.42H104.72V123.4H103.02V126H99.56V123.4H92.88ZM99.84 115.64L96.36 120.42H99.84V115.64ZM106.278 118.78C106.278 120.993 106.724 122.747 107.618 124.04C108.511 125.333 109.938 125.98 111.898 125.98C113.844 125.98 115.264 125.333 116.158 124.04C117.064 122.747 117.518 120.993 117.518 118.78C117.518 116.58 117.064 114.84 116.158 113.56C115.264 112.267 113.844 111.62 111.898 111.62C109.938 111.62 108.511 112.267 107.618 113.56C106.724 114.84 106.278 116.58 106.278 118.78ZM114.118 118.78C114.118 120.047 113.964 121.027 113.658 121.72C113.364 122.4 112.778 122.74 111.898 122.74C111.004 122.74 110.404 122.4 110.098 121.72C109.791 121.027 109.638 120.047 109.638 118.78C109.638 117.527 109.791 116.56 110.098 115.88C110.404 115.2 111.004 114.86 111.898 114.86C112.778 114.86 113.364 115.2 113.658 115.88C113.964 116.547 114.118 117.513 114.118 118.78ZM122.169 111.62C123.142 111.62 123.935 111.913 124.549 112.5C125.175 113.087 125.489 113.913 125.489 114.98C125.489 116.047 125.175 116.873 124.549 117.46C123.935 118.047 123.142 118.34 122.169 118.34C121.169 118.34 120.355 118.047 119.729 117.46C119.115 116.873 118.809 116.047 118.809 114.98C118.809 113.913 119.115 113.087 119.729 112.5C120.355 111.913 121.169 111.62 122.169 111.62ZM131.869 111.82L124.149 126H120.849L128.569 111.82H131.869ZM121.089 114.98C121.089 115.393 121.182 115.72 121.369 115.96C121.555 116.187 121.809 116.3 122.129 116.3C122.462 116.3 122.729 116.187 122.929 115.96C123.129 115.72 123.229 115.393 123.229 114.98C123.229 114.567 123.129 114.247 122.929 114.02C122.729 113.78 122.462 113.66 122.129 113.66C121.809 113.66 121.555 113.78 121.369 114.02C121.182 114.247 121.089 114.567 121.089 114.98ZM130.569 119.46C131.555 119.46 132.355 119.753 132.969 120.34C133.582 120.927 133.889 121.753 133.889 122.82C133.889 123.887 133.582 124.72 132.969 125.32C132.355 125.907 131.555 126.2 130.569 126.2C129.595 126.2 128.795 125.907 128.169 125.32C127.555 124.72 127.249 123.887 127.249 122.82C127.249 121.753 127.555 120.927 128.169 120.34C128.795 119.753 129.595 119.46 130.569 119.46ZM129.509 122.82C129.509 123.247 129.602 123.58 129.789 123.82C129.975 124.047 130.235 124.16 130.569 124.16C130.889 124.16 131.142 124.047 131.329 123.82C131.529 123.58 131.629 123.247 131.629 122.82C131.629 122.407 131.529 122.087 131.329 121.86C131.142 121.62 130.889 121.5 130.569 121.5C130.235 121.5 129.975 121.62 129.789 121.86C129.602 122.087 129.509 122.407 129.509 122.82Z" fill="white"/>
<path d="M13.22 93.06V89.86H18.94V104H15.34V93.06H13.22ZM31.4089 92.52H25.0489V95.38C25.3289 95.06 25.7156 94.8133 26.2089 94.64C26.7156 94.4533 27.2622 94.36 27.8489 94.36C28.7956 94.36 29.5889 94.5733 30.2289 95C30.8689 95.4133 31.3422 95.9733 31.6489 96.68C31.9556 97.3867 32.1089 98.1667 32.1089 99.02C32.1089 100.567 31.6756 101.793 30.8089 102.7C29.9422 103.593 28.7222 104.04 27.1489 104.04C26.0822 104.04 25.1556 103.853 24.3689 103.48C23.5822 103.093 22.9756 102.56 22.5489 101.88C22.1222 101.2 21.8956 100.413 21.8689 99.52H25.2089C25.2756 99.9733 25.4556 100.347 25.7489 100.64C26.0556 100.933 26.4689 101.08 26.9889 101.08C27.5889 101.08 28.0356 100.887 28.3289 100.5C28.6356 100.113 28.7889 99.6 28.7889 98.96C28.7889 98.3467 28.6289 97.8733 28.3089 97.54C27.9889 97.2067 27.5422 97.04 26.9689 97.04C26.5289 97.04 26.1622 97.14 25.8689 97.34C25.5756 97.5267 25.3756 97.7733 25.2689 98.08H21.9489V89.52H31.4089V92.52ZM36.8405 89.62C37.8138 89.62 38.6071 89.9133 39.2205 90.5C39.8471 91.0867 40.1605 91.9133 40.1605 92.98C40.1605 94.0467 39.8471 94.8733 39.2205 95.46C38.6071 96.0467 37.8138 96.34 36.8405 96.34C35.8405 96.34 35.0271 96.0467 34.4005 95.46C33.7871 94.8733 33.4805 94.0467 33.4805 92.98C33.4805 91.9133 33.7871 91.0867 34.4005 90.5C35.0271 89.9133 35.8405 89.62 36.8405 89.62ZM46.5405 89.82L38.8205 104H35.5205L43.2405 89.82H46.5405ZM35.7605 92.98C35.7605 93.3933 35.8538 93.72 36.0405 93.96C36.2271 94.1867 36.4805 94.3 36.8005 94.3C37.1338 94.3 37.4005 94.1867 37.6005 93.96C37.8005 93.72 37.9005 93.3933 37.9005 92.98C37.9005 92.5667 37.8005 92.2467 37.6005 92.02C37.4005 91.78 37.1338 91.66 36.8005 91.66C36.4805 91.66 36.2271 91.78 36.0405 92.02C35.8538 92.2467 35.7605 92.5667 35.7605 92.98ZM45.2405 97.46C46.2271 97.46 47.0271 97.7533 47.6405 98.34C48.2538 98.9267 48.5605 99.7533 48.5605 100.82C48.5605 101.887 48.2538 102.72 47.6405 103.32C47.0271 103.907 46.2271 104.2 45.2405 104.2C44.2671 104.2 43.4671 103.907 42.8405 103.32C42.2271 102.72 41.9205 101.887 41.9205 100.82C41.9205 99.7533 42.2271 98.9267 42.8405 98.34C43.4671 97.7533 44.2671 97.46 45.2405 97.46ZM44.1805 100.82C44.1805 101.247 44.2738 101.58 44.4605 101.82C44.6471 102.047 44.9071 102.16 45.2405 102.16C45.5605 102.16 45.8138 102.047 46.0005 101.82C46.2005 101.58 46.3005 101.247 46.3005 100.82C46.3005 100.407 46.2005 100.087 46.0005 99.86C45.8138 99.62 45.5605 99.5 45.2405 99.5C44.9071 99.5 44.6471 99.62 44.4605 99.86C44.2738 100.087 44.1805 100.407 44.1805 100.82Z" fill="white"/>
<ellipse cx="79.9053" cy="79.9336" rx="23.7334" ry="23.7334" fill="#D9D9D9"/>
</svg>
