<svg width="161" height="161" viewBox="0 0 161 161" fill="none" xmlns="http://www.w3.org/2000/svg">
<path d="M80.1718 80.2004L4.08691 55.479C9.30757 39.4115 19.4809 25.4091 33.1487 15.4789C46.8166 5.5486 63.2773 0.200195 80.1718 0.200195C97.0662 0.200195 113.527 5.5486 127.195 15.4789C140.863 25.4091 151.036 39.4115 156.257 55.479L80.1718 80.2004Z" fill="#0290FF"/>
<path d="M80.1724 80.1999L156.257 55.4785C161.478 71.546 161.478 88.8538 156.257 104.921C151.037 120.989 140.863 134.991 127.195 144.921C113.528 154.852 97.0668 160.2 80.1724 160.2C63.278 160.2 46.8173 154.852 33.1494 144.921L80.1724 80.1999Z" fill="#0DB1FF"/>
<path d="M80.1722 80.1999L33.1492 144.921C19.4813 134.991 9.30803 120.989 4.08737 104.921C-1.13329 88.8539 -1.13329 71.546 4.08737 55.4785L80.1722 80.1999Z" fill="#13C4FF"/>
<ellipse cx="79.9053" cy="79.9336" rx="23.7334" ry="23.7334" fill="#D9D9D9"/>
<path d="M57.88 37.4V34.54L64.34 25.68H68.02V34.42H69.72V37.4H68.02V40H64.56V37.4H57.88ZM64.84 29.64L61.36 34.42H64.84V29.64ZM71.2775 32.78C71.2775 34.9933 71.7242 36.7467 72.6175 38.04C73.5108 39.3333 74.9375 39.98 76.8975 39.98C78.8442 39.98 80.2642 39.3333 81.1575 38.04C82.0642 36.7467 82.5175 34.9933 82.5175 32.78C82.5175 30.58 82.0642 28.84 81.1575 27.56C80.2642 26.2667 78.8442 25.62 76.8975 25.62C74.9375 25.62 73.5108 26.2667 72.6175 27.56C71.7242 28.84 71.2775 30.58 71.2775 32.78ZM79.1175 32.78C79.1175 34.0467 78.9642 35.0267 78.6575 35.72C78.3642 36.4 77.7775 36.74 76.8975 36.74C76.0042 36.74 75.4042 36.4 75.0975 35.72C74.7908 35.0267 74.6375 34.0467 74.6375 32.78C74.6375 31.5267 74.7908 30.56 75.0975 29.88C75.4042 29.2 76.0042 28.86 76.8975 28.86C77.7775 28.86 78.3642 29.2 78.6575 29.88C78.9642 30.5467 79.1175 31.5133 79.1175 32.78ZM87.1686 25.62C88.1419 25.62 88.9353 25.9133 89.5486 26.5C90.1753 27.0867 90.4886 27.9133 90.4886 28.98C90.4886 30.0467 90.1753 30.8733 89.5486 31.46C88.9353 32.0467 88.1419 32.34 87.1686 32.34C86.1686 32.34 85.3553 32.0467 84.7286 31.46C84.1153 30.8733 83.8086 30.0467 83.8086 28.98C83.8086 27.9133 84.1153 27.0867 84.7286 26.5C85.3553 25.9133 86.1686 25.62 87.1686 25.62ZM96.8686 25.82L89.1486 40H85.8486L93.5686 25.82H96.8686ZM86.0886 28.98C86.0886 29.3933 86.1819 29.72 86.3686 29.96C86.5553 30.1867 86.8086 30.3 87.1286 30.3C87.4619 30.3 87.7286 30.1867 87.9286 29.96C88.1286 29.72 88.2286 29.3933 88.2286 28.98C88.2286 28.5667 88.1286 28.2467 87.9286 28.02C87.7286 27.78 87.4619 27.66 87.1286 27.66C86.8086 27.66 86.5553 27.78 86.3686 28.02C86.1819 28.2467 86.0886 28.5667 86.0886 28.98ZM95.5686 33.46C96.5553 33.46 97.3553 33.7533 97.9686 34.34C98.5819 34.9267 98.8886 35.7533 98.8886 36.82C98.8886 37.8867 98.5819 38.72 97.9686 39.32C97.3553 39.9067 96.5553 40.2 95.5686 40.2C94.5953 40.2 93.7953 39.9067 93.1686 39.32C92.5553 38.72 92.2486 37.8867 92.2486 36.82C92.2486 35.7533 92.5553 34.9267 93.1686 34.34C93.7953 33.7533 94.5953 33.46 95.5686 33.46ZM94.5086 36.82C94.5086 37.2467 94.6019 37.58 94.7886 37.82C94.9753 38.0467 95.2353 38.16 95.5686 38.16C95.8886 38.16 96.1419 38.0467 96.3286 37.82C96.5286 37.58 96.6286 37.2467 96.6286 36.82C96.6286 36.4067 96.5286 36.0867 96.3286 35.86C96.1419 35.62 95.8886 35.5 95.5686 35.5C95.2353 35.5 94.9753 35.62 94.7886 35.86C94.6019 36.0867 94.5086 36.4067 94.5086 36.82Z" fill="white"/>
<path d="M97.88 119.4V116.54L104.34 107.68H108.02V116.42H109.72V119.4H108.02V122H104.56V119.4H97.88ZM104.84 111.64L101.36 116.42H104.84V111.64ZM111.278 114.78C111.278 116.993 111.724 118.747 112.618 120.04C113.511 121.333 114.938 121.98 116.898 121.98C118.844 121.98 120.264 121.333 121.158 120.04C122.064 118.747 122.518 116.993 122.518 114.78C122.518 112.58 122.064 110.84 121.158 109.56C120.264 108.267 118.844 107.62 116.898 107.62C114.938 107.62 113.511 108.267 112.618 109.56C111.724 110.84 111.278 112.58 111.278 114.78ZM119.118 114.78C119.118 116.047 118.964 117.027 118.658 117.72C118.364 118.4 117.778 118.74 116.898 118.74C116.004 118.74 115.404 118.4 115.098 117.72C114.791 117.027 114.638 116.047 114.638 114.78C114.638 113.527 114.791 112.56 115.098 111.88C115.404 111.2 116.004 110.86 116.898 110.86C117.778 110.86 118.364 111.2 118.658 111.88C118.964 112.547 119.118 113.513 119.118 114.78ZM127.169 107.62C128.142 107.62 128.935 107.913 129.549 108.5C130.175 109.087 130.489 109.913 130.489 110.98C130.489 112.047 130.175 112.873 129.549 113.46C128.935 114.047 128.142 114.34 127.169 114.34C126.169 114.34 125.355 114.047 124.729 113.46C124.115 112.873 123.809 112.047 123.809 110.98C123.809 109.913 124.115 109.087 124.729 108.5C125.355 107.913 126.169 107.62 127.169 107.62ZM136.869 107.82L129.149 122H125.849L133.569 107.82H136.869ZM126.089 110.98C126.089 111.393 126.182 111.72 126.369 111.96C126.555 112.187 126.809 112.3 127.129 112.3C127.462 112.3 127.729 112.187 127.929 111.96C128.129 111.72 128.229 111.393 128.229 110.98C128.229 110.567 128.129 110.247 127.929 110.02C127.729 109.78 127.462 109.66 127.129 109.66C126.809 109.66 126.555 109.78 126.369 110.02C126.182 110.247 126.089 110.567 126.089 110.98ZM135.569 115.46C136.555 115.46 137.355 115.753 137.969 116.34C138.582 116.927 138.889 117.753 138.889 118.82C138.889 119.887 138.582 120.72 137.969 121.32C137.355 121.907 136.555 122.2 135.569 122.2C134.595 122.2 133.795 121.907 133.169 121.32C132.555 120.72 132.249 119.887 132.249 118.82C132.249 117.753 132.555 116.927 133.169 116.34C133.795 115.753 134.595 115.46 135.569 115.46ZM134.509 118.82C134.509 119.247 134.602 119.58 134.789 119.82C134.975 120.047 135.235 120.16 135.569 120.16C135.889 120.16 136.142 120.047 136.329 119.82C136.529 119.58 136.629 119.247 136.629 118.82C136.629 118.407 136.529 118.087 136.329 117.86C136.142 117.62 135.889 117.5 135.569 117.5C135.235 117.5 134.975 117.62 134.789 117.86C134.602 118.087 134.509 118.407 134.509 118.82Z" fill="white"/>
<path d="M13.68 101.28C17.92 98.2533 20.04 95.8467 20.04 94.06C20.04 92.9667 19.5667 92.42 18.62 92.42C18.0867 92.42 17.6933 92.6067 17.44 92.98C17.2 93.3533 17.0667 93.9333 17.04 94.72H13.7C13.78 93 14.3 91.7067 15.26 90.84C16.22 89.9733 17.4333 89.54 18.9 89.54C20.4333 89.54 21.5867 89.9267 22.36 90.7C23.1467 91.4733 23.54 92.48 23.54 93.72C23.54 95.0933 23.0133 96.44 21.96 97.76C20.9067 99.0667 19.6467 100.173 18.18 101.08H23.76V103.84H13.68V101.28ZM25.1681 96.78C25.1681 98.9933 25.6148 100.747 26.5081 102.04C27.4015 103.333 28.8281 103.98 30.7881 103.98C32.7348 103.98 34.1548 103.333 35.0481 102.04C35.9548 100.747 36.4081 98.9933 36.4081 96.78C36.4081 94.58 35.9548 92.84 35.0481 91.56C34.1548 90.2667 32.7348 89.62 30.7881 89.62C28.8281 89.62 27.4015 90.2667 26.5081 91.56C25.6148 92.84 25.1681 94.58 25.1681 96.78ZM33.0081 96.78C33.0081 98.0467 32.8548 99.0267 32.5481 99.72C32.2548 100.4 31.6681 100.74 30.7881 100.74C29.8948 100.74 29.2948 100.4 28.9881 99.72C28.6815 99.0267 28.5281 98.0467 28.5281 96.78C28.5281 95.5267 28.6815 94.56 28.9881 93.88C29.2948 93.2 29.8948 92.86 30.7881 92.86C31.6681 92.86 32.2548 93.2 32.5481 93.88C32.8548 94.5467 33.0081 95.5133 33.0081 96.78ZM41.0592 89.62C42.0326 89.62 42.8259 89.9133 43.4392 90.5C44.0659 91.0867 44.3792 91.9133 44.3792 92.98C44.3792 94.0467 44.0659 94.8733 43.4392 95.46C42.8259 96.0467 42.0326 96.34 41.0592 96.34C40.0592 96.34 39.2459 96.0467 38.6192 95.46C38.0059 94.8733 37.6992 94.0467 37.6992 92.98C37.6992 91.9133 38.0059 91.0867 38.6192 90.5C39.2459 89.9133 40.0592 89.62 41.0592 89.62ZM50.7592 89.82L43.0392 104H39.7392L47.4592 89.82H50.7592ZM39.9792 92.98C39.9792 93.3933 40.0726 93.72 40.2592 93.96C40.4459 94.1867 40.6992 94.3 41.0192 94.3C41.3526 94.3 41.6192 94.1867 41.8192 93.96C42.0192 93.72 42.1192 93.3933 42.1192 92.98C42.1192 92.5667 42.0192 92.2467 41.8192 92.02C41.6192 91.78 41.3526 91.66 41.0192 91.66C40.6992 91.66 40.4459 91.78 40.2592 92.02C40.0726 92.2467 39.9792 92.5667 39.9792 92.98ZM49.4592 97.46C50.4459 97.46 51.2459 97.7533 51.8592 98.34C52.4726 98.9267 52.7792 99.7533 52.7792 100.82C52.7792 101.887 52.4726 102.72 51.8592 103.32C51.2459 103.907 50.4459 104.2 49.4592 104.2C48.4859 104.2 47.6859 103.907 47.0592 103.32C46.4459 102.72 46.1392 101.887 46.1392 100.82C46.1392 99.7533 46.4459 98.9267 47.0592 98.34C47.6859 97.7533 48.4859 97.46 49.4592 97.46ZM48.3992 100.82C48.3992 101.247 48.4926 101.58 48.6792 101.82C48.8659 102.047 49.1259 102.16 49.4592 102.16C49.7792 102.16 50.0326 102.047 50.2192 101.82C50.4192 101.58 50.5192 101.247 50.5192 100.82C50.5192 100.407 50.4192 100.087 50.2192 99.86C50.0326 99.62 49.7792 99.5 49.4592 99.5C49.1259 99.5 48.8659 99.62 48.6792 99.86C48.4926 100.087 48.3992 100.407 48.3992 100.82Z" fill="white"/>
</svg>
