<svg width="58" height="58" viewBox="0 0 58 58" fill="none" xmlns="http://www.w3.org/2000/svg">
<path d="M40.333 57.3332C37.1691 57.3332 34.7731 56.8024 33.1449 55.7408C31.5148 54.6774 30.133 53.5554 28.9997 52.3748C28.1025 51.4304 27.2411 50.604 26.4157 49.8957C25.5884 49.1873 24.5372 48.8332 23.2622 48.8332C21.1372 48.8332 18.7761 48.4677 16.1789 47.7367C13.5816 47.0038 11.1384 45.7987 8.84903 44.1213C6.55781 42.4459 4.63303 40.2623 3.0747 37.5707C1.51636 34.879 0.713584 31.5734 0.666362 27.654C0.571918 19.7679 2.51936 13.2984 6.50869 8.24567C10.4999 3.19289 16.0844 0.666504 23.2622 0.666504C26.615 0.666504 29.4483 1.15006 31.7622 2.11717C34.0761 3.08617 36.0717 4.30262 37.749 5.7665C39.4245 7.23039 40.8402 8.84728 41.9962 10.6172C43.1541 12.3889 44.2525 14.1012 45.2914 15.754C45.858 16.6984 46.4247 17.5598 46.9914 18.338C47.558 19.1181 48.1719 19.8387 48.833 20.4998C51.6664 23.3332 53.7914 25.8123 55.208 27.9373C56.6247 30.0623 57.333 33.2734 57.333 37.5707C57.333 43.2373 55.5745 47.9473 52.0574 51.7005C48.5384 55.4556 44.6303 57.3332 40.333 57.3332ZM28.9997 38.9165C31.7386 38.9165 34.0761 37.9485 36.0122 36.0123C37.9483 34.0762 38.9164 31.7387 38.9164 28.9998C38.9164 26.261 37.9483 23.9234 36.0122 21.9873C34.0761 20.0512 31.7386 19.0832 28.9997 19.0832C26.2608 19.0832 23.9233 20.0512 21.9872 21.9873C20.0511 23.9234 19.083 26.261 19.083 28.9998C19.083 31.7387 20.0511 34.0762 21.9872 36.0123C23.9233 37.9485 26.2608 38.9165 28.9997 38.9165Z" fill="#0084DF"/>
</svg>
