<svg width="189" height="189" viewBox="0 0 189 189" fill="none" xmlns="http://www.w3.org/2000/svg">
<path d="M189 94.5C189 146.691 146.691 189 94.5 189C42.3091 189 0 146.691 0 94.5C0 42.3091 42.3091 0 94.5 0C146.691 0 189 42.3091 189 94.5Z" fill="#0084DF"/>
<path d="M82.5 82.5C96.2844 82.5 107.5 71.2844 107.5 57.5C107.5 43.7156 96.2844 32.5 82.5 32.5C68.7156 32.5 57.5 43.7156 57.5 57.5C57.5 71.2844 68.7156 82.5 82.5 82.5ZM82.5 45C89.3938 45 95 50.6062 95 57.5C95 64.3938 89.3938 70 82.5 70C75.6062 70 70 64.3938 70 57.5C70 50.6062 75.6062 45 82.5 45Z" fill="white"/>
<path d="M146.165 91.3687L116.784 132.5H48.6592L34.3311 146.831L43.1686 155.669L53.8404 145H120.534L131.206 155.669L140.044 146.831L129.465 136.25L156.334 98.6312L146.165 91.3687Z" fill="white"/>
<path d="M130.284 80.8313C131.872 81.9313 133.715 82.5031 135.603 82.5031C136.165 82.5031 136.734 82.45 137.3 82.35C139.759 81.9 141.9 80.525 143.325 78.4719C146.275 74.2313 145.218 68.3781 140.965 65.4156C138.903 63.9906 136.415 63.4594 133.95 63.9C131.487 64.35 129.343 65.7281 127.918 67.7875C124.975 72.0375 126.037 77.8875 130.284 80.8313Z" fill="white"/>
<path d="M73.125 108.4L97.2969 121.828C98.0719 122.828 98.9531 123.75 100.022 124.491C102.188 125.991 104.669 126.712 107.125 126.712C111.088 126.712 114.991 124.834 117.416 121.341L131.659 100.791C133.556 98.053 134.272 94.7343 133.678 91.4437C133.081 88.1499 131.244 85.2937 128.509 83.3999C125.769 81.503 122.45 80.7749 119.159 81.3812C115.869 81.978 113.012 83.8124 111.116 86.5499L96.8719 107.1C96.8406 107.147 96.8219 107.2 96.7906 107.247L73.125 94.0999L36.5 114.447L42.5719 125.375L73.125 108.4Z" fill="white"/>
</svg>
