<svg width="72" height="72" viewBox="0 0 72 72" fill="none" xmlns="http://www.w3.org/2000/svg">
<path d="M24.75 46.3412V38.1208H29.2804L35.6929 47.0004C35.8697 47.2367 36.1322 47.3941 36.424 47.4386C36.7157 47.4831 37.0132 47.4113 37.2525 47.2384C37.4917 47.0656 37.6534 46.8057 37.7028 46.5148C37.7522 46.2238 37.6853 45.9251 37.5165 45.6831L31.8499 37.8384C33.5599 37.3576 35.0379 36.2739 36.0108 34.7877C36.9837 33.3015 37.3856 31.5133 37.1422 29.7538C36.8989 27.9942 36.0267 26.3823 34.6869 25.216C33.3472 24.0496 31.6304 23.4078 29.8541 23.4092H23.625C23.3266 23.4092 23.0405 23.5277 22.8295 23.7387C22.6185 23.9497 22.5 24.2358 22.5 24.5342V46.3412C22.5 46.6396 22.6185 46.9257 22.8295 47.1367C23.0405 47.3477 23.3266 47.4662 23.625 47.4662C23.9234 47.4662 24.2095 47.3477 24.4205 47.1367C24.6315 46.9257 24.75 46.6396 24.75 46.3412ZM34.9616 30.7644C34.9601 32.1183 34.4217 33.4162 33.4644 34.3735C32.507 35.3308 31.2091 35.8693 29.8553 35.8708H24.75V25.6592H29.8553C31.2089 25.6607 32.5067 26.199 33.464 27.156C34.4212 28.1131 34.9598 29.4108 34.9616 30.7644Z" fill="white"/>
<path d="M42.3164 29.6396C42.018 29.6396 41.7319 29.7582 41.5209 29.9692C41.3099 30.1801 41.1914 30.4663 41.1914 30.7646V46.3414C41.1914 46.6398 41.3099 46.9259 41.5209 47.1369C41.7319 47.3479 42.018 47.4664 42.3164 47.4664C42.6148 47.4664 42.9009 47.3479 43.1119 47.1369C43.3229 46.9259 43.4414 46.6398 43.4414 46.3414V41.2361H45.9513C47.4891 41.2361 48.9639 40.6253 50.0513 39.5379C51.1386 38.4505 51.7495 36.9757 51.7495 35.4379C51.7495 33.9001 51.1386 32.4253 50.0513 31.3379C48.9639 30.2505 47.4891 29.6396 45.9513 29.6396H42.3164ZM49.4995 35.4379C49.4983 36.3786 49.1241 37.2804 48.459 37.9456C47.7938 38.6107 46.892 38.985 45.9513 38.9861H43.4414V31.8896H45.9513C46.892 31.8908 47.7938 32.2651 48.459 32.9302C49.1241 33.5954 49.4983 34.4972 49.4995 35.4379Z" fill="white"/>
<path d="M36 2.25C29.3249 2.25 22.7997 4.2294 17.2495 7.9379C11.6994 11.6464 7.37354 16.9174 4.81908 23.0844C2.26462 29.2514 1.59626 36.0374 2.89851 42.5843C4.20076 49.1312 7.41514 55.1448 12.1352 59.8649C16.8552 64.5849 22.8689 67.7992 29.4157 69.1015C35.9626 70.4038 42.7486 69.7354 48.9156 67.1809C55.0826 64.6265 60.3536 60.3007 64.0621 54.7505C67.7706 49.2003 69.75 42.6751 69.75 36C69.7399 27.0521 66.1809 18.4735 59.8537 12.1463C53.5265 5.81917 44.948 2.26012 36 2.25ZM36 67.5C29.7699 67.5 23.6797 65.6526 18.4996 62.1913C13.3194 58.73 9.28197 53.8104 6.89781 48.0545C4.51365 42.2987 3.88984 35.9651 5.10528 29.8547C6.32071 23.7443 9.3208 18.1315 13.7262 13.7261C18.1315 9.32078 23.7443 6.3207 29.8547 5.10526C35.9651 3.88983 42.2987 4.51363 48.0545 6.89779C53.8104 9.28195 58.73 13.3194 62.1913 18.4995C65.6526 23.6797 67.5 29.7699 67.5 36C67.4905 44.3514 64.1687 52.358 58.2634 58.2633C52.358 64.1687 44.3514 67.4905 36 67.5Z" fill="white"/>
<path d="M55.8618 18.8917C55.8618 18.186 55.6526 17.4961 55.2605 16.9093C54.8685 16.3225 54.3112 15.8651 53.6592 15.595C53.0072 15.3249 52.2898 15.2541 51.5976 15.3917C50.9054 15.5293 50.2695 15.8691 49.7704 16.368C49.2713 16.867 48.9314 17.5027 48.7935 18.1949C48.6557 18.887 48.7262 19.6045 48.9962 20.2566C49.2661 20.9086 49.7233 21.466 50.31 21.8583C50.8967 22.2505 51.5865 22.46 52.2922 22.4602C52.7818 22.4602 53.2661 22.3583 53.7142 22.161C56.8803 26.2145 58.5616 31.2307 58.4777 36.3734C58.3939 41.5162 56.5501 46.4749 53.2536 50.4231C49.9571 54.3713 45.407 57.0704 40.3617 58.0707C35.3165 59.0709 30.0808 58.3119 25.5273 55.92C25.3962 55.8457 25.2516 55.7985 25.1019 55.7812C24.9522 55.7639 24.8005 55.7768 24.656 55.8192C24.5114 55.8617 24.3768 55.9327 24.2602 56.0281C24.1435 56.1236 24.0473 56.2415 23.9771 56.3748C23.9069 56.5081 23.8643 56.6542 23.8516 56.8044C23.839 56.9545 23.8566 57.1057 23.9035 57.2489C23.9504 57.3921 24.0256 57.5244 24.1247 57.638C24.2237 57.7516 24.3445 57.8441 24.48 57.9101C29.5015 60.558 35.281 61.398 40.8486 60.2891C46.4161 59.1801 51.4327 56.1898 55.0565 51.8199C58.6802 47.45 60.6905 41.9666 60.7498 36.2901C60.8092 30.6135 58.9141 25.0892 55.3826 20.6445C55.6931 20.1123 55.8583 19.5079 55.8618 18.8917ZM50.9748 18.8917C50.9748 18.6309 51.0522 18.376 51.1971 18.1591C51.3421 17.9423 51.548 17.7733 51.789 17.6735C52.03 17.5737 52.2952 17.5477 52.551 17.5987C52.8068 17.6496 53.0417 17.7753 53.2261 17.9598C53.4104 18.1443 53.5359 18.3794 53.5866 18.6352C53.6374 18.891 53.6111 19.1562 53.5112 19.3971C53.4112 19.638 53.242 19.8438 53.025 19.9886C52.8081 20.1333 52.553 20.2105 52.2922 20.2102C51.9427 20.2099 51.6076 20.0709 51.3606 19.8237C51.1136 19.5764 50.9748 19.2412 50.9748 18.8917Z" fill="white"/>
<path d="M18.8918 49.5398C18.6298 49.5414 18.3687 49.5719 18.1133 49.6309C15.1082 45.7238 13.4854 40.9295 13.4997 36.0004C13.5066 30.0352 15.8793 24.3162 20.0974 20.0981C24.3155 15.88 30.0344 13.5073 35.9997 13.5004C39.2901 13.4918 42.5415 14.2117 45.5206 15.6087C45.7909 15.7352 46.1004 15.7491 46.381 15.6474C46.6616 15.5457 46.8903 15.3368 47.0168 15.0664C47.1433 14.7961 47.1573 14.4866 47.0556 14.206C46.9539 13.9254 46.7449 13.6967 46.4746 13.5702C41.4783 11.2316 35.8437 10.6301 30.4664 11.8613C25.089 13.0926 20.2775 16.0859 16.7966 20.3655C13.3157 24.6451 11.3651 29.9654 11.2549 35.4808C11.1447 40.9962 12.8813 46.3902 16.1885 50.8054C15.6336 51.4447 15.3266 52.2618 15.3233 53.1083C15.3231 53.8144 15.5323 54.5047 15.9245 55.0919C16.3166 55.6791 16.8741 56.1368 17.5264 56.4071C18.1787 56.6774 18.8965 56.7482 19.5891 56.6105C20.2816 56.4728 20.9178 56.1328 21.4171 55.6335C21.9164 55.1342 22.2564 54.4981 22.3941 53.8055C22.5318 53.113 22.461 52.3952 22.1906 51.7429C21.9203 51.0906 21.4626 50.5331 20.8754 50.1409C20.2882 49.7488 19.5979 49.5396 18.8918 49.5398ZM18.8918 54.4268C18.6311 54.4266 18.3763 54.3491 18.1596 54.204C17.9429 54.059 17.7741 53.853 17.6745 53.6121C17.5749 53.3711 17.5489 53.1061 17.5999 52.8504C17.6509 52.5947 17.7766 52.3599 17.961 52.1756C18.1455 51.9913 18.3804 51.8658 18.6361 51.8151C18.8919 51.7643 19.1569 51.7905 19.3978 51.8903C19.6386 51.9901 19.8445 52.1591 19.9893 52.3759C20.1342 52.5927 20.2115 52.8476 20.2115 53.1083C20.2115 53.2815 20.1773 53.4531 20.111 53.6131C20.0447 53.7732 19.9474 53.9186 19.8249 54.041C19.7023 54.1635 19.5568 54.2606 19.3967 54.3268C19.2367 54.393 19.0651 54.427 18.8918 54.4268Z" fill="white"/>
</svg>
