<svg width="189" height="189" viewBox="0 0 189 189" fill="none" xmlns="http://www.w3.org/2000/svg">
<path d="M189 94.5C189 146.691 146.691 189 94.5 189C42.3091 189 0 146.691 0 94.5C0 42.3091 42.3091 0 94.5 0C146.691 0 189 42.3091 189 94.5Z" fill="#0084DF"/>
<path d="M143.344 143.039L128.414 109.98C126.637 105.816 123.489 102.719 119.578 101.348C120.594 100.18 121.356 98.7578 121.66 97.1328L126.485 73.0117C127.399 68.3398 124.555 63.7695 120.035 62.5508C123.184 59.3008 125.114 54.8828 125.114 49.957C125.114 39.9531 117.039 31.8789 107.035 31.8789C97.0315 31.8789 88.9573 39.9531 88.9573 49.957C88.9573 59.9609 97.0315 68.0352 107.035 68.0352C107.746 68.0352 108.508 67.9844 109.219 67.8828C109.016 68.3906 108.864 68.8984 108.762 69.457L107.035 78.0898L89.6683 62.5508L89.6175 62.5C84.2347 57.7266 75.1956 57.6758 67.8323 66.5625C59.098 77.0742 47.9261 103.48 43.8636 130.547C41.68 144.766 52.6995 157.613 67.1214 157.613C67.3753 157.613 67.6292 157.613 67.8323 157.613C70.9808 157.613 73.5706 156.852 75.7542 155.531C76.6175 155.125 77.4808 154.617 78.2425 153.957L112.52 124.758L124.606 151.52C126.332 155.328 130.039 157.562 133.95 157.562C135.371 157.562 136.793 157.258 138.164 156.648C143.395 154.262 145.68 148.168 143.344 143.039ZM88.2464 118.562L93.9847 90.7344L106.731 102.16C106.934 102.313 107.137 102.516 107.34 102.668C106.629 103.074 105.969 103.531 105.309 104.039L88.2464 118.562Z" fill="white"/>
</svg>
