<svg width="152" height="152" viewBox="0 0 152 152" fill="none" xmlns="http://www.w3.org/2000/svg">
<g clip-path="url(#clip0_307_532)">
<path d="M54.1017 79.8419C55.5264 79.8419 56.6779 78.6904 56.6779 77.2657C56.6779 65.3221 62.0959 56.6554 69.5593 56.6554H82.4407C83.5486 56.6554 84.5351 55.9471 84.8831 54.8959C85.2361 53.8446 84.8754 52.688 83.9916 52.0206C81.8686 50.4235 79.8644 45.2038 79.8644 41.2776C79.8644 34.229 87.0702 33.469 90.1695 33.469C91.5942 33.469 92.7458 32.3174 92.7458 30.8927C92.7458 29.468 91.5942 28.3164 90.1695 28.3164C80.7791 28.3164 74.7119 33.4045 74.7119 41.2776C74.7119 44.4233 75.6212 48.3159 77.2469 51.5029H69.5593C59.1099 51.5029 51.5254 62.3388 51.5254 77.2657C51.5254 78.6904 52.677 79.8419 54.1017 79.8419Z" fill="#0084DF" stroke="#0084DF" stroke-width="1.5625"/>
<path d="M96.8692 25.5242C100.337 27.0415 103.05 31.6636 103.05 36.0457C103.05 41.7291 98.4278 46.3508 92.7444 46.3508C91.4925 46.3508 90.4208 47.2551 90.2067 48.4892C89.993 49.7257 90.6987 50.934 91.8814 51.354C93.8111 52.0392 95.3207 54.3682 95.3207 56.6559C95.3207 59.4976 93.0098 61.8085 90.1681 61.8085H74.7105C68.2983 61.8085 61.8291 66.5876 61.8291 77.2661C61.8291 78.6908 62.9834 79.8424 64.4054 79.8424C65.8301 79.8424 66.9817 78.6908 66.9817 77.2661C66.9817 70.8127 69.8723 66.961 74.7105 66.961H90.1681C95.8515 66.961 100.473 62.3393 100.473 56.6559C100.473 54.4041 99.7415 52.2016 98.505 50.3904C104.186 48.1027 108.202 42.5354 108.202 36.0457C108.202 29.5638 104.307 23.1542 98.9378 20.8045C97.6265 20.2223 96.1116 20.8303 95.5422 22.1312C94.9728 23.4321 95.5656 24.9521 96.8692 25.5242Z" fill="#0084DF" stroke="#0084DF" stroke-width="1.5625"/>
<path d="M0 124.059C0 126.264 0.930107 128.335 2.55045 129.734C4.04462 131.022 5.92799 131.594 7.89627 131.368H110.612C110.895 131.401 111.179 131.417 111.459 131.417C113.111 131.417 114.68 130.837 115.958 129.734C117.578 128.335 118.508 126.264 118.508 124.059V121.062H0V124.059Z" fill="#0084DF" stroke="#0084DF" stroke-width="1.5625"/>
<path d="M111.246 68.9316L70.0897 90.1472H48.949C47.5243 90.1472 46.3727 91.2988 46.3727 92.7235V100.872C46.3727 103.85 41.2201 103.85 41.2201 100.872V92.7235C41.2201 91.2988 40.0686 90.1472 38.6438 90.1472H28.339V82.4932C28.339 78.1909 24.838 74.6895 20.5354 74.6895H10.3051C8.88041 74.6895 7.72883 75.8411 7.72883 77.2658V90.1472C7.60266 90.1472 7.47649 90.1576 7.35269 90.1754C3.16112 90.7938 0 94.2847 0 98.2958V115.91H118.508V98.2958C118.508 95.1065 116.494 92.2698 113.564 90.9199L120.914 87.1327L111.246 68.9316ZM23.1865 90.1472H12.8814V79.8421H20.5354C21.996 79.8421 23.1865 81.0322 23.1865 82.4932V90.1472Z" fill="#0084DF" stroke="#0084DF" stroke-width="1.5625"/>
<path d="M151.712 68.3573L144.63 54.6179C144.318 54.0099 143.777 53.5513 143.126 53.3452C142.474 53.1365 141.768 53.1932 141.16 53.5076L115.822 66.5719L125.491 84.7733L150.602 71.8274C151.87 71.1755 152.364 69.6196 151.712 68.3573Z" fill="#0084DF" stroke="#0084DF" stroke-width="1.5625"/>
</g>
<defs>
<clipPath id="clip0_307_532">
<rect width="152" height="152" fill="white"/>
</clipPath>
</defs>
</svg>
