<svg width="189" height="189" viewBox="0 0 189 189" fill="none" xmlns="http://www.w3.org/2000/svg">
<path d="M189 94.5C189 146.691 146.691 189 94.5 189C42.3091 189 0 146.691 0 94.5C0 42.3091 42.3091 0 94.5 0C146.691 0 189 42.3091 189 94.5Z" fill="#0084DF"/>
<mask id="mask0_450_68" style="mask-type:luminance" maskUnits="userSpaceOnUse" x="25" y="25" width="139" height="139">
<path d="M164 25H25V164H164V25Z" fill="white"/>
</mask>
<g mask="url(#mask0_450_68)">
<path d="M74.4741 98.0132C75.777 98.0132 76.83 96.9602 76.83 95.6574C76.83 84.7353 81.7846 76.8098 88.6097 76.8098H100.389C101.403 76.8098 102.305 76.1621 102.623 75.2008C102.946 74.2394 102.616 73.1817 101.808 72.5714C99.8662 71.1109 98.0334 66.3376 98.0334 62.7472C98.0334 56.3014 104.623 55.6064 107.457 55.6064C108.76 55.6064 109.813 54.5533 109.813 53.2505C109.813 51.9476 108.76 50.8945 107.457 50.8945C98.8699 50.8945 93.3216 55.5475 93.3216 62.7472C93.3216 65.6239 94.1531 69.1835 95.6398 72.098H88.6097C79.054 72.098 72.1182 82.0071 72.1182 95.6574C72.1182 96.9602 73.1713 98.0132 74.4741 98.0132Z" fill="white" stroke="white" stroke-width="1.5625"/>
<path d="M113.584 48.3411C116.755 49.7286 119.236 53.9554 119.236 57.9627C119.236 63.1601 115.01 67.3865 109.812 67.3865C108.667 67.3865 107.687 68.2134 107.492 69.342C107.296 70.4727 107.942 71.5777 109.023 71.9618C110.788 72.5884 112.168 74.7182 112.168 76.8102C112.168 79.4089 110.055 81.5221 107.456 81.5221H93.3207C87.4569 81.5221 81.541 85.8925 81.541 95.6577C81.541 96.9605 82.5966 98.0137 83.897 98.0137C85.1998 98.0137 86.2529 96.9605 86.2529 95.6577C86.2529 89.7562 88.8963 86.234 93.3207 86.234H107.456C112.654 86.234 116.88 82.0075 116.88 76.8102C116.88 74.751 116.211 72.7369 115.08 71.0806C120.275 68.9885 123.948 63.8974 123.948 57.9627C123.948 52.0352 120.386 46.1738 115.476 44.0251C114.277 43.4927 112.891 44.0487 112.371 45.2383C111.85 46.4279 112.392 47.8179 113.584 48.3411Z" fill="white" stroke="white" stroke-width="1.5625"/>
<path d="M25 138.449C25 140.465 25.8506 142.359 27.3323 143.638C28.6987 144.816 30.421 145.339 32.2209 145.133H126.152C126.411 145.163 126.67 145.177 126.926 145.177C128.437 145.177 129.872 144.647 131.041 143.638C132.522 142.359 133.372 140.465 133.372 138.449V135.708H25V138.449Z" fill="white" stroke="white" stroke-width="1.5625"/>
<path d="M126.732 88.0361L89.0952 107.437H69.7626C68.4597 107.437 67.4066 108.49 67.4066 109.793V117.245C67.4066 119.968 62.6947 119.968 62.6947 117.245V109.793C62.6947 108.49 61.6417 107.437 60.3387 107.437H50.9153V100.438C50.9153 96.5035 47.7137 93.3016 43.7791 93.3016H34.4237C33.1209 93.3016 32.0678 94.3547 32.0678 95.6575V107.437C31.9524 107.437 31.8371 107.447 31.7238 107.463C27.8908 108.029 25 111.221 25 114.889V130.997H133.372V114.889C133.372 111.972 131.531 109.378 128.851 108.144L135.573 104.681L126.732 88.0361ZM46.2034 107.437H36.7797V98.0135H43.7791C45.1148 98.0135 46.2034 99.1018 46.2034 100.438V107.437Z" fill="white" stroke="white" stroke-width="1.5625"/>
<path d="M163.736 87.5111L157.26 74.9468C156.975 74.3908 156.48 73.9714 155.885 73.7829C155.289 73.5921 154.643 73.6439 154.087 73.9314L130.916 85.8784L139.758 102.523L162.721 90.6844C163.881 90.0883 164.333 88.6654 163.736 87.5111Z" fill="white" stroke="white" stroke-width="1.5625"/>
</g>
</svg>
