<svg width="120" height="120" viewBox="0 0 120 120" fill="none" xmlns="http://www.w3.org/2000/svg">
<mask id="mask0_298_856" style="mask-type:luminance" maskUnits="userSpaceOnUse" x="27" y="8" width="66" height="104">
<path d="M90 92.5L83.025 108.5C82.8302 108.946 82.5092 109.326 82.1015 109.593C81.6938 109.859 81.2171 110.001 80.73 110H39.2675C38.7813 110 38.3057 109.858 37.8989 109.591C37.4922 109.325 37.172 108.946 36.9775 108.5L30 92.5M30 27.5L36.975 11.5C37.1698 11.0536 37.4908 10.6738 37.8985 10.4073C38.3062 10.1409 38.7829 9.99928 39.27 10H80.73C81.2166 9.99977 81.6928 10.1416 82.1 10.408C82.5072 10.6745 82.8278 11.054 83.0225 11.5L90 27.5" stroke="white" stroke-width="4" stroke-linecap="round" stroke-linejoin="round"/>
<path d="M30 30C30 28.6739 30.5268 27.4021 31.4645 26.4645C32.4021 25.5268 33.6739 25 35 25H85C86.3261 25 87.5979 25.5268 88.5355 26.4645C89.4732 27.4021 90 28.6739 90 30V90C90 91.3261 89.4732 92.5979 88.5355 93.5355C87.5979 94.4732 86.3261 95 85 95H35C33.6739 95 32.4021 94.4732 31.4645 93.5355C30.5268 92.5979 30 91.3261 30 90V30Z" fill="white" stroke="white" stroke-width="4"/>
<path d="M32.5 56.2499L48.49 53.7249C53.5126 52.9324 58.1145 50.4498 61.535 46.6874C63.7866 44.2108 66.5661 42.2719 69.6678 41.014C72.7696 39.7561 76.1144 39.2113 79.455 39.4199L88.75 39.9999M31.25 81.2499L45.1325 80.6199C49.2796 80.4312 53.3055 79.1633 56.8124 76.9417C60.3192 74.72 63.1854 71.6214 65.1275 67.9524C66.6644 65.0498 68.7843 62.4959 71.3542 60.4507C73.9242 58.4056 76.8889 56.9133 80.0625 56.0674L88.75 53.7499" stroke="black" stroke-width="4" stroke-linecap="round" stroke-linejoin="round"/>
<path d="M90 30V80M30 40V90" stroke="white" stroke-width="4" stroke-linecap="round" stroke-linejoin="round"/>
</mask>
<g mask="url(#mask0_298_856)">
<path d="M0 0H120V120H0V0Z" fill="white"/>
</g>
</svg>
