<?xml version="1.0" encoding="utf-8"?>
<!-- Generator: Adobe Illustrator 23.0.0, SVG Export Plug-In . SVG Version: 6.00 Build 0)  -->
<svg version="1.1" id="Layer_1" xmlns="http://www.w3.org/2000/svg" xmlns:xlink="http://www.w3.org/1999/xlink" x="0px" y="0px"
	 viewBox="0 0 500 500" style="enable-background:new 0 0 500 500;" xml:space="preserve">
<style type="text/css">
	.st0{fill:#83E1E5;}
	.st1{fill:#AAB1BA;}
	.st2{fill:#FDDF7F;}
	.st3{fill:#ECF4F7;}
	.st4{fill:#1C1D21;}
</style>
<g>
	<g>
		<path class="st0" d="M341.963,267.332h-31.602c-15.919,10.299-34.868,16.3-55.225,16.3s-39.306-6.001-55.225-16.3h-31.602
			c-33.464,0-60.591,27.185-60.591,60.72v75.634c0,11.106,9.002,20.109,20.106,20.109h4.436V495h245.752v-71.204h4.436
			c11.104,0,20.106-9.003,20.106-20.109v-75.634C402.554,294.518,375.427,267.332,341.963,267.332z"/>
	</g>
</g>
<g>
	<g>
		<path class="st2" d="M345.266,350.723v22.391h-83.823h-12.841h-83.823v-22.391h-57.06v52.963c0,11.106,9.002,20.109,20.106,20.109
			h120.777h12.841h121.005c11.104,0,20.106-9.003,20.106-20.109v-52.963H345.266z"/>
	</g>
</g>
<g>
	<g>
		<ellipse class="st2" cx="255.136" cy="181.423" rx="101.992" ry="102.209"/>
	</g>
</g>
<g>
	<g>
		<path class="st0" d="M238.714,156.064c2.347-2.287,1.052-6.273-2.191-6.744l-12.085-1.756c-1.288-0.187-2.401-0.996-2.977-2.163
			l-5.404-10.951c-1.45-2.939-5.641-2.939-7.091,0l-5.404,10.951c-0.576,1.167-1.689,1.976-2.977,2.163l-12.085,1.756
			c-3.243,0.471-4.538,4.456-2.191,6.744l8.745,8.524c0.932,0.908,1.357,2.217,1.137,3.5l-2.064,12.036
			c-0.554,3.23,2.836,5.693,5.737,4.168l10.809-5.683c1.152-0.606,2.528-0.606,3.68,0l10.809,5.683
			c2.901,1.525,6.291-0.938,5.737-4.168l-2.064-12.036c-0.22-1.283,0.205-2.591,1.137-3.5L238.714,156.064z"/>
	</g>
</g>
<g>
	<g>
		<path class="st0" d="M326.008,156.064c2.347-2.287,1.052-6.273-2.191-6.744l-12.085-1.756c-1.288-0.187-2.401-0.996-2.977-2.163
			l-5.404-10.951c-1.45-2.939-5.641-2.939-7.091,0l-5.405,10.951c-0.576,1.167-1.689,1.976-2.977,2.163l-12.085,1.756
			c-3.243,0.471-4.538,4.456-2.191,6.744l8.745,8.524c0.932,0.908,1.357,2.217,1.137,3.5l-2.064,12.036
			c-0.554,3.23,2.836,5.693,5.737,4.168l10.809-5.683c1.152-0.606,2.528-0.606,3.68,0l10.809,5.683
			c2.901,1.525,6.291-0.938,5.737-4.168l-2.064-12.036c-0.22-1.283,0.205-2.591,1.137-3.5L326.008,156.064z"/>
	</g>
</g>
<g>
	<g>
		<path class="st3" d="M304.364,215.537c-4.378-3.804-11.009-3.339-14.813,1.038c-8.7,10.01-21.22,15.792-34.415,15.933
			c-13.195-0.14-25.715-5.922-34.415-15.933c-3.804-4.377-10.435-4.841-14.813-1.038c-4.377,3.804-4.841,10.436-1.038,14.813
			c12.69,14.602,30.988,23.017,50.266,23.157c19.278-0.14,37.576-8.556,50.266-23.157
			C309.206,225.973,308.741,219.341,304.364,215.537z"/>
	</g>
</g>
<path class="st4" d="M239.534,16.535c0-2.761,2.239-5,5-5h6.535V5c0-2.761,2.239-5,5-5s5,2.239,5,5v6.535h6.535c2.761,0,5,2.239,5,5
	s-2.239,5-5,5h-6.535v6.534c0,2.761-2.239,5-5,5s-5-2.239-5-5v-6.534h-6.535C241.772,21.535,239.534,19.296,239.534,16.535z
	 M168.405,21.535h6.535v6.534c0,2.761,2.239,5,5,5s5-2.239,5-5v-6.534h6.535c2.761,0,5-2.239,5-5s-2.239-5-5-5h-6.535V5
	c0-2.761-2.239-5-5-5s-5,2.239-5,5v6.535h-6.535c-2.761,0-5,2.239-5,5S165.644,21.535,168.405,21.535z M320.662,21.535h6.535v6.534
	c0,2.761,2.239,5,5,5s5-2.239,5-5v-6.534h6.535c2.761,0,5-2.239,5-5s-2.239-5-5-5h-6.535V5c0-2.761-2.239-5-5-5s-5,2.239-5,5v6.535
	h-6.535c-2.761,0-5,2.239-5,5S317.901,21.535,320.662,21.535z M102.718,403.687v-75.634c0-36.238,29.424-65.72,65.591-65.72h16.707
	c-22.576-19.671-36.872-48.648-36.872-80.909c0-59.115,47.997-107.209,106.992-107.209s106.992,48.094,106.992,107.209
	c0,32.261-14.296,61.238-36.872,80.909h16.706c36.167,0,65.591,29.482,65.591,65.72v75.637c0,13.654-10.959,24.79-24.542,25.092
	v50.762c0,2.761-2.239,5-5,5s-5-2.239-5-5v-50.748H264.644c-2.761,0-5-2.239-5-5s2.239-5,5-5h117.804
	c8.33,0,15.106-6.777,15.106-15.106v-47.966h-47.289v17.391c0,2.761-2.239,5-5,5h-35.724c-9.172,0-17.96,3.399-24.746,9.571
	l-31.816,28.938c-8.63,7.85-19.809,12.173-31.475,12.173H137.26v50.748c0,2.761-2.239,5-5,5s-5-2.239-5-5v-50.762
	C113.676,428.478,102.718,417.341,102.718,403.687z M204.12,264.063c0.293,0.182,0.585,0.368,0.88,0.547
	c0.474,0.288,0.953,0.57,1.433,0.85c0.411,0.24,0.823,0.475,1.236,0.708c0.436,0.246,0.871,0.495,1.311,0.734
	c0.754,0.41,1.513,0.809,2.276,1.198c0.37,0.189,0.743,0.372,1.115,0.556c0.597,0.295,1.197,0.584,1.799,0.866
	c0.302,0.142,0.603,0.286,0.907,0.425c0.879,0.401,1.763,0.788,2.653,1.161c0.246,0.103,0.494,0.202,0.741,0.304
	c0.773,0.317,1.549,0.625,2.329,0.921c0.203,0.077,0.406,0.157,0.61,0.233c0.983,0.366,1.972,0.718,2.966,1.052
	c0.098,0.033,0.196,0.063,0.294,0.096c0.939,0.312,1.882,0.608,2.83,0.891c0.143,0.043,0.285,0.086,0.429,0.128
	c2.088,0.612,4.197,1.153,6.324,1.622c0.128,0.028,0.256,0.056,0.385,0.084c2.13,0.461,4.277,0.851,6.438,1.167
	c0.151,0.022,0.303,0.043,0.455,0.064c0.962,0.136,1.927,0.258,2.895,0.365c0.132,0.015,0.263,0.031,0.394,0.045
	c1.064,0.114,2.131,0.209,3.201,0.288c0.169,0.012,0.339,0.021,0.509,0.032c0.882,0.06,1.766,0.107,2.652,0.143
	c0.271,0.011,0.542,0.022,0.814,0.031c1.046,0.034,2.092,0.056,3.142,0.056s2.096-0.023,3.142-0.056
	c0.272-0.009,0.542-0.02,0.813-0.031c0.886-0.036,1.77-0.083,2.653-0.143c0.169-0.011,0.339-0.02,0.508-0.032
	c1.07-0.078,2.138-0.174,3.202-0.288c0.13-0.014,0.26-0.03,0.391-0.045c0.969-0.107,1.936-0.23,2.9-0.366
	c0.15-0.021,0.3-0.041,0.45-0.063c2.164-0.317,4.313-0.707,6.445-1.168c0.125-0.027,0.251-0.055,0.376-0.082
	c2.13-0.47,4.242-1.012,6.334-1.625c0.139-0.041,0.277-0.083,0.415-0.124c0.955-0.285,1.905-0.583,2.851-0.897
	c0.092-0.031,0.185-0.059,0.277-0.09c0.998-0.335,1.99-0.688,2.977-1.056c0.197-0.074,0.393-0.15,0.59-0.225
	c0.789-0.3,1.574-0.611,2.356-0.932c0.24-0.099,0.481-0.195,0.72-0.295c0.894-0.376,1.784-0.765,2.667-1.168
	c0.295-0.135,0.587-0.275,0.881-0.413c0.613-0.287,1.223-0.581,1.831-0.881c0.365-0.18,0.73-0.36,1.093-0.545
	c0.781-0.398,1.557-0.806,2.328-1.225c0.418-0.228,0.831-0.465,1.245-0.699c0.426-0.24,0.851-0.483,1.273-0.73
	c0.471-0.276,0.942-0.552,1.408-0.835c0.321-0.195,0.639-0.397,0.958-0.596c27.537-17.169,45.909-47.771,45.909-82.598
	c0-53.601-43.51-97.209-96.992-97.209s-96.992,43.608-96.992,97.209C158.144,216.278,176.546,246.902,204.12,264.063z
	 M112.718,328.052v17.671h47.06v-31.42c0-2.761,2.239-5,5-5s5,2.239,5,5v53.811h96.815c2.761,0,5,2.239,5,5s-2.239,5-5,5H164.778
	c-2.761,0-5-2.239-5-5v-17.391h-47.06v47.963c0,8.331,6.778,15.109,15.109,15.109h93.679c9.172,0,17.96-3.399,24.746-9.571
	l31.816-28.938c8.63-7.85,19.808-12.173,31.474-12.173h30.724v-53.811c0-2.761,2.239-5,5-5s5,2.239,5,5v31.42h47.289v-17.671
	c0-30.724-24.938-55.72-55.591-55.72h-30.145c-0.326,0.205-0.66,0.395-0.988,0.596c-0.277,0.17-0.556,0.336-0.834,0.503
	c-0.924,0.555-1.856,1.095-2.794,1.62c-0.429,0.24-0.857,0.483-1.29,0.718c-0.487,0.264-0.977,0.521-1.468,0.777
	c-0.513,0.268-1.029,0.531-1.548,0.791c-0.424,0.213-0.847,0.429-1.274,0.635c-0.892,0.433-1.791,0.853-2.697,1.262
	c-0.328,0.148-0.658,0.289-0.988,0.434c-0.727,0.319-1.458,0.631-2.194,0.934c-0.302,0.125-0.604,0.25-0.907,0.372
	c-1.021,0.41-2.048,0.808-3.084,1.188c-0.062,0.023-0.125,0.044-0.187,0.066c-1.012,0.368-2.033,0.718-3.059,1.057
	c-0.206,0.068-0.413,0.135-0.62,0.202c-2.207,0.713-4.445,1.357-6.712,1.927c-0.114,0.029-0.228,0.056-0.342,0.084
	c-1.064,0.264-2.133,0.512-3.209,0.743c-0.102,0.022-0.204,0.045-0.306,0.067c-2.291,0.486-4.608,0.896-6.95,1.232
	c-0.191,0.027-0.383,0.054-0.574,0.081c-1.088,0.15-2.18,0.287-3.277,0.404c-0.06,0.006-0.12,0.014-0.18,0.021
	c-1.15,0.12-2.305,0.221-3.465,0.304c-0.234,0.017-0.468,0.029-0.702,0.045c-0.908,0.059-1.819,0.107-2.732,0.144
	c-0.303,0.012-0.606,0.025-0.909,0.035c-1.127,0.035-2.257,0.059-3.392,0.059c-1.135,0-2.265-0.024-3.392-0.059
	c-0.304-0.01-0.607-0.023-0.91-0.035c-0.913-0.036-1.824-0.084-2.731-0.143c-0.234-0.015-0.469-0.028-0.703-0.045
	c-1.16-0.083-2.315-0.184-3.464-0.304c-0.062-0.006-0.123-0.015-0.184-0.021c-1.096-0.117-2.186-0.253-3.272-0.403
	c-0.193-0.027-0.385-0.054-0.578-0.081c-2.34-0.336-4.656-0.746-6.945-1.231c-0.105-0.022-0.211-0.046-0.316-0.069
	c-1.071-0.231-2.137-0.477-3.196-0.74c-0.118-0.029-0.235-0.057-0.353-0.086c-2.263-0.569-4.497-1.212-6.7-1.923
	c-0.212-0.068-0.424-0.138-0.636-0.207c-1.016-0.335-2.027-0.682-3.029-1.046c-0.071-0.026-0.143-0.05-0.214-0.076
	c-1.032-0.378-2.054-0.774-3.071-1.183c-0.31-0.124-0.619-0.253-0.928-0.381c-0.726-0.3-1.447-0.607-2.165-0.922
	c-0.337-0.148-0.675-0.293-1.011-0.444c-0.9-0.406-1.794-0.824-2.681-1.255c-0.436-0.211-0.868-0.432-1.301-0.649
	c-0.507-0.255-1.012-0.512-1.514-0.774c-0.499-0.26-0.997-0.521-1.492-0.79c-0.409-0.222-0.812-0.451-1.218-0.678
	c-0.969-0.542-1.931-1.099-2.885-1.672c-0.264-0.159-0.529-0.317-0.792-0.478c-0.333-0.204-0.671-0.397-1.001-0.604h-30.145
	C137.656,272.333,112.718,297.328,112.718,328.052z M191.169,167.784l-8.351-8.14c-2.458-2.396-3.327-5.913-2.266-9.178
	c1.061-3.265,3.831-5.6,7.229-6.094l11.54-1.677l5.162-10.458c1.519-3.078,4.596-4.991,8.029-4.991s6.51,1.913,8.029,4.991
	l5.161,10.457l11.541,1.677c3.397,0.494,6.167,2.829,7.228,6.094c1.061,3.265,0.193,6.782-2.266,9.178l-8.351,8.14l1.972,11.494
	c0.581,3.383-0.784,6.739-3.562,8.757c-2.777,2.018-6.391,2.279-9.43,0.682l-10.322-5.427l-10.322,5.427
	c-1.321,0.695-2.752,1.038-4.175,1.038c-1.849,0-3.685-0.579-5.254-1.719c-2.777-2.018-4.143-5.373-3.563-8.757L191.169,167.784z
	 M191.316,153.963l7.227,7.044c2.111,2.057,3.074,5.02,2.575,7.926l-1.706,9.946l8.933-4.696c0,0,0,0,0,0
	c2.608-1.371,5.724-1.371,8.332,0l8.933,4.696l-1.706-9.946c-0.498-2.906,0.465-5.868,2.575-7.925l7.227-7.044l-9.987-1.451
	c-2.916-0.424-5.437-2.254-6.741-4.897l-4.466-9.05l-4.467,9.05c-1.303,2.643-3.824,4.474-6.741,4.898L191.316,153.963z
	 M270.112,159.644c-2.458-2.396-3.327-5.913-2.266-9.178s3.831-5.6,7.228-6.094l11.541-1.677l5.161-10.457
	c1.52-3.079,4.596-4.991,8.029-4.991s6.51,1.913,8.029,4.991l5.161,10.457l11.541,1.677c3.397,0.494,6.167,2.829,7.228,6.094
	s0.192,6.782-2.266,9.178l-8.35,8.14l1.971,11.494c0.581,3.383-0.784,6.739-3.562,8.757c-2.777,2.018-6.39,2.279-9.429,0.682
	l-10.322-5.427l-10.322,5.427c-1.321,0.695-2.752,1.038-4.175,1.038c-1.849,0-3.685-0.579-5.254-1.72
	c-2.778-2.018-4.143-5.374-3.562-8.757l1.971-11.494L270.112,159.644z M278.61,153.963l7.227,7.044
	c2.111,2.058,3.073,5.021,2.574,7.926l-1.705,9.945l8.932-4.696v0c1.305-0.686,2.735-1.028,4.167-1.028s2.862,0.343,4.167,1.028
	l8.932,4.696l-1.706-9.946c-0.499-2.904,0.464-5.867,2.575-7.925l7.227-7.044l-9.987-1.451c-2.917-0.424-5.438-2.255-6.741-4.899
	l-4.466-9.049l-4.466,9.05c-1.305,2.643-3.825,4.474-6.742,4.898L278.61,153.963z M446.904,490h-3.813c-2.761,0-5,2.239-5,5
	s2.239,5,5,5h3.813c2.761,0,5-2.239,5-5S449.665,490,446.904,490z M425.931,490H86.206c-2.761,0-5,2.239-5,5s2.239,5,5,5h339.725
	c2.761,0,5-2.239,5-5S428.692,490,425.931,490z M69.046,490h-3.813c-2.761,0-5,2.239-5,5s2.239,5,5,5h3.813c2.761,0,5-2.239,5-5
	S71.808,490,69.046,490z M255.136,227.507c11.746-0.14,22.912-5.318,30.641-14.212c5.605-6.45,15.415-7.138,21.866-1.532
	c0,0,0,0,0,0.001c6.451,5.606,7.138,15.416,1.532,21.867c-13.609,15.659-33.292,24.727-54.003,24.877
	c-20.783-0.151-40.466-9.218-54.076-24.877c-5.606-6.451-4.919-16.26,1.532-21.867c6.452-5.606,16.263-4.918,21.867,1.532
	C232.224,222.188,243.39,227.367,255.136,227.507z M255.083,237.507c-14.622-0.155-28.521-6.589-38.136-17.653
	c-1.086-1.249-2.616-1.889-4.155-1.889c-1.28,0-2.565,0.443-3.605,1.346c-2.288,1.989-2.532,5.47-0.543,7.759
	c11.728,13.494,28.687,21.307,46.528,21.437c17.77-0.13,34.728-7.943,46.456-21.437c1.989-2.289,1.745-5.769-0.543-7.759
	c-2.29-1.99-5.771-1.746-7.76,0.543c-9.615,11.063-23.515,17.497-38.136,17.653C255.153,237.507,255.119,237.507,255.083,237.507z"
	/>
</svg>
