<svg width="256" height="256" viewBox="0 0 256 256" fill="none" xmlns="http://www.w3.org/2000/svg">
<g clip-path="url(#clip0_320_453)">
<path d="M248.965 197.045H195.903C195.903 209.207 195.903 225.103 195.903 237.736H206.19V241.859C206.19 244.377 208.232 246.419 210.751 246.419H233.629C236.148 246.419 238.19 244.377 238.19 241.859V237.736H248.965C252.851 237.736 256 234.586 256 230.701V204.079C255.999 200.195 252.85 197.045 248.965 197.045Z" fill="white"/>
<path d="M173.064 174.629H158.406C160.415 178.027 161.573 181.986 161.573 186.212V243.71C161.573 250.646 167.081 255.293 173.064 255.293C179.462 255.293 184.647 250.107 184.647 243.71V186.213C184.647 179.815 179.461 174.629 173.064 174.629Z" fill="white"/>
<path d="M156.972 84.5801L150.84 44.0941C150.043 38.8236 145.122 35.1966 139.851 35.9961C134.581 36.7941 130.954 41.7136 131.753 46.9851L137.172 82.7671L119.326 101.34C118.777 101.377 120.326 101.213 98.692 103.615L96.571 95.4546C99.5265 96.6366 102.806 97.1306 106.191 96.7551C117.172 95.5361 125.086 85.6456 123.867 74.6646C122.648 63.6836 112.757 55.7696 101.776 56.9886C96.341 57.5921 91.6595 60.3221 88.4625 64.2556L77.165 20.7881C75.824 15.6286 70.555 12.5336 65.3945 13.8741C60.235 15.2151 57.1395 20.4851 58.4805 25.6446L82.9005 119.604C87.497 161.011 85.9965 147.416 89.9875 183.776C91.0345 191.553 91.915 194.976 97.1105 197.001C90.022 197.001 48.02 197.047 48.02 197.047C48.594 195.617 49.6935 192.896 47.8115 189.898C40.7765 178.692 31.735 168.124 20.0145 158.777C18.4105 157.497 16.3115 157.001 14.3045 157.429C7.28199 158.925 2.63149 163.078 0.353991 169.888C-0.297509 171.837 -0.0410087 173.974 1.05149 175.715C5.93449 183.494 11.567 190.604 17.945 197.048H8.80599C4.92049 197.048 1.77099 200.197 1.77099 204.083V230.704C1.77099 234.589 4.92049 237.739 8.80599 237.739H21.067V241.862C21.067 244.381 23.109 246.423 25.628 246.423H48.506C51.025 246.423 53.067 244.381 53.067 241.862V237.739H115.895C115.895 229.706 115.895 223.606 115.895 214.965H115.941V197.799H127.151V243.714C127.151 250.111 132.337 255.297 138.734 255.297C145.131 255.297 150.317 250.111 150.317 243.714V186.214C150.317 179.816 145.13 174.631 138.734 174.631C134.511 174.631 105.533 174.631 101.308 174.631L139.494 166.009C138.91 160.745 134.469 120.749 133.742 114.199L154.388 92.7136C156.466 90.5501 157.421 87.5451 156.972 84.5801ZM109.047 73.3031C112.699 73.3031 115.66 77.2716 115.66 82.1671C115.66 87.0626 112.699 91.0311 109.047 91.0311C105.394 91.0311 102.434 87.0626 102.434 82.1671C102.434 77.2716 105.395 73.3031 109.047 73.3031Z" fill="white"/>
<path d="M224.465 0.703125C209.701 0.703125 197.732 12.6716 197.732 27.4356C197.732 42.1996 209.701 54.1681 224.465 54.1681C239.229 54.1681 251.197 42.1996 251.197 27.4356C251.197 12.6716 239.229 0.703125 224.465 0.703125ZM228.686 27.4356C228.686 29.1026 227.705 30.6131 226.183 31.2916L215.021 36.2631C212.895 37.2106 210.397 36.2571 209.448 34.1246C208.498 31.9951 209.456 29.5001 211.586 28.5516L220.244 24.6951V10.4586C220.244 8.12763 222.134 6.23763 224.465 6.23763C226.797 6.23763 228.686 8.12713 228.686 10.4586V27.4356Z" fill="white"/>
</g>
<defs>
<clipPath id="clip0_320_453">
<rect width="256" height="256" fill="white"/>
</clipPath>
</defs>
</svg>
