<!DOCTYPE svg PUBLIC "-//W3C//DTD SVG 1.1//EN" "http://www.w3.org/Graphics/SVG/1.1/DTD/svg11.dtd">
<!-- Uploaded to: SVG Repo, www.svgrepo.com, Transformed by: SVG Repo Mixer Tools -->
<svg fill="#000000" width="800px" height="800px" viewBox="0 0 24 24" id="glass-water-left-2" data-name="Flat Line" xmlns="http://www.w3.org/2000/svg" class="icon flat-line">
<g id="SVGRepo_bgCarrier" stroke-width="0"/>
<g id="SVGRepo_tracerCarrier" stroke-linecap="round" stroke-linejoin="round"/>
<g id="SVGRepo_iconCarrier">
<path id="secondary" d="M5.5,9.5,6.67,20.11a1,1,0,0,0,1,.89h8.44a1,1,0,0,0,1-.89L18.39,8.5C12.09,8.55,11.74,9.44,5.5,9.5Z" style="fill: #0290ff; stroke-width: 2;"/>
<path id="primary" d="M5.61,9.5c6.24-.06,6.59-.95,12.89-1" style="fill: none; stroke: #000000; stroke-linecap: round; stroke-linejoin: round; stroke-width: 2;"/>
<path id="primary-2" data-name="primary" d="M18,3a1,1,0,0,1,1,1.11l-1.77,16a1,1,0,0,1-1,.89H7.78a1,1,0,0,1-1-.89L5,4.11A1,1,0,0,1,6,3Z" style="fill: none; stroke: #000000; stroke-linecap: round; stroke-linejoin: round; stroke-width: 2;"/>
</g>
</svg>